<svg width="34" height="48" viewBox="0 0 34 48" fill="none" xmlns="http://www.w3.org/2000/svg">
<path fill-rule="evenodd" clip-rule="evenodd" d="M17.317 14.6406C17.8109 14.6403 18.285 14.8342 18.637 15.1806C18.9816 15.5338 19.1753 16.0072 19.177 16.5006C19.1769 16.9914 18.9828 17.4623 18.637 17.8106C18.465 17.9845 18.2602 18.1225 18.0345 18.2167C17.8087 18.3109 17.5666 18.3594 17.322 18.3594C17.0774 18.3594 16.8353 18.3109 16.6096 18.2167C16.3838 18.1225 16.1791 17.9845 16.007 17.8106C15.8326 17.64 15.6942 17.4362 15.5997 17.2112C15.5052 16.9862 15.4567 16.7446 15.457 16.5006C15.4582 16.0051 15.656 15.5304 16.007 15.1806C16.3565 14.8367 16.8266 14.6429 17.317 14.6406ZM18.317 15.5506C18.1859 15.4207 18.0295 15.319 17.8575 15.252C17.6855 15.1849 17.5015 15.1538 17.317 15.1606C17.1423 15.1602 16.9693 15.1944 16.8079 15.2614C16.6466 15.3283 16.5001 15.4267 16.377 15.5506C16.2471 15.6818 16.1455 15.8382 16.0784 16.0102C16.0113 16.1822 15.9802 16.3661 15.987 16.5506C15.9866 16.7253 16.0209 16.8984 16.0878 17.0597C16.1547 17.2211 16.253 17.3675 16.377 17.4906C16.4982 17.6178 16.6441 17.7189 16.8057 17.7876C16.9674 17.8564 17.1414 17.8915 17.317 17.8906C17.5025 17.8986 17.6876 17.8671 17.86 17.7981C18.0324 17.7292 18.1882 17.6244 18.317 17.4906C18.441 17.3675 18.5393 17.2211 18.6063 17.0597C18.6732 16.8984 18.7075 16.7253 18.707 16.5506C18.7139 16.3661 18.6827 16.1822 18.6157 16.0102C18.5486 15.8382 18.4469 15.6818 18.317 15.5506Z" fill="#FFDF66"/>
<path fill-rule="evenodd" clip-rule="evenodd" d="M8.42783 11.8711H26.2078C26.4518 11.8711 26.6858 11.968 26.8583 12.1406C27.0309 12.3131 27.1278 12.5471 27.1278 12.7911V14.3111C27.1278 14.5551 27.0309 14.7891 26.8583 14.9616C26.6858 15.1342 26.4518 15.2311 26.2078 15.2311H8.42783C8.18383 15.2311 7.94982 15.1342 7.77728 14.9616C7.60475 14.7891 7.50781 14.5551 7.50781 14.3111V12.7911C7.50781 12.5471 7.60475 12.3131 7.77728 12.1406C7.94982 11.968 8.18383 11.8711 8.42783 11.8711ZM26.2078 12.5311H8.42783C8.39522 12.5303 8.36288 12.5371 8.33337 12.551C8.30387 12.5649 8.27799 12.5855 8.25781 12.6111C8.23198 12.6333 8.21141 12.661 8.19757 12.6921C8.18374 12.7232 8.177 12.757 8.17783 12.7911V14.3111C8.177 14.3451 8.18374 14.379 8.19757 14.4101C8.21141 14.4412 8.23198 14.4689 8.25781 14.4911C8.27799 14.5167 8.30387 14.5373 8.33337 14.5512C8.36288 14.565 8.39522 14.5719 8.42783 14.5711H26.2078C26.276 14.5686 26.3407 14.5404 26.3889 14.4922C26.4371 14.444 26.4653 14.3793 26.4678 14.3111V12.7911C26.4653 12.7229 26.4371 12.6582 26.3889 12.61C26.3407 12.5618 26.276 12.5336 26.2078 12.5311Z" fill="#FFDF66"/>
<path fill-rule="evenodd" clip-rule="evenodd" d="M17.3173 16.0898L22.1773 26.8498L33.9473 28.1698L25.2173 36.1198L27.5973 47.7198L17.3372 41.8698L7.04727 47.7198L9.43726 36.1498L0.697266 28.1698L12.4273 26.8698L17.3173 16.0898Z" fill="#FFC63B"/>
<path d="M27.937 0.291016H6.70703V7.11102H27.937V0.291016Z" fill="#57C8CC"/>
<path d="M27.937 6.62109H6.70703V13.4911H27.937V6.62109Z" fill="#2C9FA6"/>
<path d="M27.937 4.48047H6.70703V9.30047H27.937V4.48047Z" fill="#FF6533"/>
<path fill-rule="evenodd" clip-rule="evenodd" d="M17.318 18.6816L21.388 27.6816L31.228 28.7816L23.918 35.4316L25.918 45.1316L17.338 40.2316L8.72797 45.1316L10.728 35.4616L3.41797 28.7816L13.228 27.7016L17.318 18.6816Z" fill="#FF6533"/>
<path fill-rule="evenodd" clip-rule="evenodd" d="M17.6268 18.5409L21.6268 27.3709L31.2768 28.4509L32.0068 28.5309L31.4668 29.0309L24.3068 35.5409L26.2568 45.0609L26.4068 45.7809L25.7668 45.4109L17.3568 40.6109L8.91681 45.4109L8.27679 45.7709L8.42682 45.0609L10.4268 35.5809L3.25681 29.0309L2.7168 28.5309L3.4368 28.4509L13.0368 27.3909L17.0368 18.5409L17.3368 17.8809L17.6468 18.5409H17.6268ZM21.0368 27.8109L17.2768 19.4909L13.4968 27.8309L13.4168 28.0109H13.2268L4.14679 29.0109L10.9168 35.1909L11.0568 35.3209V35.5009L9.19681 44.5009L17.1968 39.9709L17.3568 39.8809L17.5168 39.9709L25.4568 44.5009L23.6168 35.5009V35.3209L23.7568 35.1909L30.5168 29.0409L21.4068 28.0409H21.2168L21.0368 27.8109Z" fill="#FFDF66"/>
<path fill-rule="evenodd" clip-rule="evenodd" d="M17.3164 14.6406C17.8103 14.6403 18.2844 14.8342 18.6364 15.1806C18.981 15.5338 19.1747 16.0072 19.1764 16.5006C19.1763 16.9914 18.9822 17.4623 18.6364 17.8106C18.4639 17.9853 18.2583 18.1239 18.0317 18.2183C17.8051 18.3128 17.5619 18.3611 17.3164 18.3606V17.8406C17.5019 17.8486 17.687 17.8171 17.8594 17.7482C18.0318 17.6792 18.1876 17.5744 18.3164 17.4406C18.4404 17.3175 18.5387 17.1711 18.6057 17.0097C18.6726 16.8484 18.7069 16.6753 18.7064 16.5006C18.7132 16.3161 18.6821 16.1322 18.6151 15.9602C18.548 15.7882 18.4463 15.6318 18.3164 15.5006C18.1852 15.3707 18.0288 15.2691 17.8568 15.202C17.6848 15.1349 17.5009 15.1038 17.3164 15.1106V14.6406Z" fill="#FFC63B"/>
<path fill-rule="evenodd" clip-rule="evenodd" d="M17.3164 11.8711H26.2064C26.4504 11.8711 26.6844 11.968 26.8569 12.1406C27.0295 12.3131 27.1264 12.5471 27.1264 12.7911V14.3111C27.1264 14.5551 27.0295 14.7891 26.8569 14.9616C26.6844 15.1342 26.4504 15.2311 26.2064 15.2311H17.3164V14.5711H26.2064C26.2746 14.5686 26.3393 14.5404 26.3875 14.4922C26.4357 14.444 26.4639 14.3793 26.4664 14.3111V12.7911C26.4639 12.7229 26.4357 12.6582 26.3875 12.61C26.3393 12.5618 26.2746 12.5336 26.2064 12.5311H17.3164V11.8711Z" fill="#FFC63B"/>
<path fill-rule="evenodd" clip-rule="evenodd" d="M17.3164 16.0898L22.1764 26.8498L33.9464 28.1698L25.2164 36.1198L27.5964 47.7198L17.3364 41.8698L17.3164 41.8798V39.6598L20.8364 37.3698L17.3164 19.5898V16.0898Z" fill="#EC9F1D"/>
<path fill-rule="evenodd" clip-rule="evenodd" d="M17.3164 0.291016H27.9364V7.11102L18.5564 4.75102L17.3164 4.48102V0.291016Z" fill="#2C9FA6"/>
<path fill-rule="evenodd" clip-rule="evenodd" d="M20.0764 8.81109L27.9364 6.62109V13.4911H17.3164V9.26109L20.0764 8.81109Z" fill="#23858A"/>
<path d="M27.9364 4.48047H17.3164V9.30047H27.9364V4.48047Z" fill="#DC3F16"/>
<path fill-rule="evenodd" clip-rule="evenodd" d="M19.2164 23.5202L21.3864 27.6802L31.2264 28.7802L23.9164 35.4302L25.9164 45.1302L17.3664 39.8802L17.3164 39.8902V19.4902L19.2164 23.5202Z" fill="#DC3F16"/>
<path fill-rule="evenodd" clip-rule="evenodd" d="M17.6264 18.5409L21.6064 27.3709L31.2564 28.4509L31.9864 28.5309L31.4464 29.0309L24.2864 35.5409L26.2364 45.0609L26.3864 45.7809L25.7464 45.4109L17.3364 40.6109L17.3164 40.6209V39.8609L17.3364 39.8509L17.4964 39.9409L25.4364 44.4709L23.5964 35.4909L23.5564 35.3109L23.6964 35.1809L30.4564 29.0309L21.3464 28.0109L21.1564 27.9909L21.0764 27.8109L17.3164 19.4909V17.8809L17.6264 18.5409Z" fill="#FFC63B"/>
</svg>
