<svg width="39" height="62" viewBox="0 0 39 62" fill="none" xmlns="http://www.w3.org/2000/svg">
<path fill-rule="evenodd" clip-rule="evenodd" d="M31.3778 5.93993C31.3778 12.9399 25.9778 18.6299 19.3178 18.6299C12.6578 18.6299 7.25781 12.9499 7.25781 5.93993V5.47993C7.25781 5.30993 12.6578 5.16992 19.3178 5.16992C25.9778 5.16992 31.3778 5.30993 31.3778 5.47993V5.93993Z" fill="#FFDF66"/>
<path d="M21.218 17.5605H17.418V19.7305H21.218V17.5605Z" fill="#FFDF66"/>
<path fill-rule="evenodd" clip-rule="evenodd" d="M21.3678 20.8998C21.9568 21.5433 22.6295 22.105 23.3678 22.5698C21.3078 26.7898 21.3178 29.5698 21.1078 35.0298C19.9158 35.1797 18.7098 35.1797 17.5178 35.0298C17.3078 29.5698 17.3078 26.7898 15.2578 22.5698C15.9945 22.1027 16.6668 21.5413 17.2578 20.8998C18.7178 20.8798 19.9278 20.8798 21.3678 20.8998Z" fill="#FFDF66"/>
<path d="M28.5362 50.9199H10.0962C9.67091 50.9199 9.32617 51.2647 9.32617 51.6899V60.3799C9.32617 60.8052 9.67091 61.1499 10.0962 61.1499H28.5362C28.9614 61.1499 29.3062 60.8052 29.3062 60.3799V51.6899C29.3062 51.2647 28.9614 50.9199 28.5362 50.9199Z" fill="#57C8CC"/>
<path d="M24.0173 53.6309H14.6173C14.3853 53.6309 14.1973 53.8189 14.1973 54.0509V58.3109C14.1973 58.5428 14.3853 58.7309 14.6173 58.7309H24.0173C24.2492 58.7309 24.4373 58.5428 24.4373 58.3109V54.0509C24.4373 53.8189 24.2492 53.6309 24.0173 53.6309Z" fill="#FF6533"/>
<path fill-rule="evenodd" clip-rule="evenodd" d="M21.0372 38.3105C21.3072 40.9705 21.4172 41.8506 23.1872 43.9406L22.6772 44.7906V45.5005C24.7472 46.4505 25.6772 50.0705 25.8072 51.1705C21.5282 51.9406 17.1462 51.9406 12.8672 51.1705C13.0272 50.0705 13.9372 46.4505 16.0072 45.5005V44.7906L15.4972 43.9406C17.2572 41.8506 17.3772 40.9405 17.6472 38.3105H21.0372Z" fill="#FFDF66"/>
<path fill-rule="evenodd" clip-rule="evenodd" d="M38.0374 0.111328C38.1674 1.98133 37.7774 3.74133 37.0374 4.52133C38.0374 6.14133 36.7674 7.52133 36.3474 8.52133C35.9174 11.9413 32.9374 14.2613 29.8374 15.9813C29.0874 16.4013 26.3374 17.4813 25.5074 18.3013C25.6957 18.4883 25.802 18.7424 25.803 19.0078C25.8039 19.2732 25.6994 19.528 25.5124 19.7163C25.3254 19.9046 25.0713 20.0109 24.8059 20.0119C24.5406 20.0128 24.2857 19.9083 24.0974 19.7213C23.8779 19.5444 23.7355 19.2893 23.7001 19.0096C23.6646 18.7299 23.7389 18.4474 23.9074 18.2213C24.4574 17.3013 25.2574 17.4213 25.5674 17.0813C26.3274 16.2513 25.1874 15.5913 27.7074 15.9713L26.2474 14.9213L26.5374 14.1313C29.0974 16.7413 32.1574 13.1313 32.4374 10.4513C32.5774 9.10132 31.8874 7.39133 30.4374 7.71133L30.4974 6.94133C32.3474 6.85133 32.8074 7.44133 33.3874 8.94133C33.7674 7.59133 31.9574 5.83133 33.1974 5.07133C32.0374 0.521327 36.4674 2.72133 38.0374 0.111328Z" fill="#FFDF66"/>
<path fill-rule="evenodd" clip-rule="evenodd" d="M0.646244 0.111328C0.516244 1.98133 0.896244 3.74133 1.64624 4.52133C0.646244 6.14133 1.92624 7.52133 2.33624 8.52133C2.76624 11.9413 5.75624 14.2613 8.85624 15.9813C9.60624 16.4013 12.3462 17.4813 13.1862 18.3013C13.05 18.4909 12.9845 18.7222 13.0009 18.9551C13.0173 19.188 13.1147 19.4078 13.2762 19.5764C13.4377 19.745 13.6531 19.8518 13.8851 19.8783C14.117 19.9047 14.3509 19.8492 14.5462 19.7213C14.7636 19.543 14.9045 19.2881 14.9398 19.0091C14.9751 18.7302 14.9023 18.4483 14.7362 18.2213C14.1862 17.3013 13.3862 17.4213 13.0762 17.0813C12.3162 16.2513 13.4462 15.5913 10.9262 15.9713L12.3962 14.9213L12.0962 14.1313C9.54624 16.7413 6.48624 13.1313 6.20624 10.4513C6.06624 9.10132 6.75624 7.39133 8.20624 7.71133L8.13624 6.94133C6.29624 6.85133 5.83625 7.44133 5.25625 8.94133C4.87625 7.59133 6.68624 5.83133 5.44624 5.07133C6.60624 0.521327 2.16624 2.72133 0.646244 0.111328Z" fill="#FFDF66"/>
<path fill-rule="evenodd" clip-rule="evenodd" d="M17.2571 19.5605H21.3771C21.7158 19.5632 22.0398 19.6989 22.2793 19.9383C22.5188 20.1778 22.6545 20.5019 22.6571 20.8405C22.6545 21.1783 22.5185 21.5013 22.2787 21.7392C22.0389 21.9771 21.7149 22.1106 21.3771 22.1105H17.2571C16.929 22.0976 16.6187 21.9581 16.3912 21.7213C16.1638 21.4846 16.0369 21.1689 16.0371 20.8405C16.0367 20.5112 16.1633 20.1944 16.3906 19.956C16.6178 19.7176 16.9281 19.576 17.2571 19.5605Z" fill="#FFC63B"/>
<path fill-rule="evenodd" clip-rule="evenodd" d="M21.127 34.8911C21.581 35.4208 22.1059 35.8852 22.687 36.2711C21.988 36.864 21.4252 37.6008 21.037 38.4311H17.627C17.224 37.6044 16.6556 36.8692 15.957 36.2711C16.5407 35.8806 17.0659 35.4092 17.517 34.8711C18.737 34.8811 19.927 34.9011 21.127 34.8911Z" fill="#FFC63B"/>
<path fill-rule="evenodd" clip-rule="evenodd" d="M31.3764 5.93993C31.3764 12.9399 25.9764 18.6299 19.3164 18.6299V5.16992C25.9764 5.16992 31.3764 5.30993 31.3764 5.47993V5.93993Z" fill="#FFC63B"/>
<path d="M21.2164 17.5605H19.3164V19.7305H21.2164V17.5605Z" fill="#FFC63B"/>
<path fill-rule="evenodd" clip-rule="evenodd" d="M21.3666 20.9008C21.9557 21.5444 22.6283 22.1061 23.3666 22.5709C21.3066 26.7909 21.3166 29.5709 21.1066 35.0309C20.2166 35.1109 19.7666 35.1409 19.3066 35.1409V20.8809L21.3666 20.9008Z" fill="#FFC63B"/>
<path fill-rule="evenodd" clip-rule="evenodd" d="M19.3164 50.9199H28.5464C28.7489 50.9226 28.9422 51.0048 29.0844 51.149C29.2267 51.2931 29.3064 51.4874 29.3064 51.6899V60.3899C29.3064 60.5924 29.2267 60.7868 29.0844 60.9309C28.9422 61.075 28.7489 61.1573 28.5464 61.1599H19.3164V50.9199Z" fill="#2C9FA6"/>
<path fill-rule="evenodd" clip-rule="evenodd" d="M19.3164 53.6309H24.0364C24.1478 53.6309 24.2546 53.6751 24.3334 53.7539C24.4122 53.8326 24.4564 53.9395 24.4564 54.0509V58.3109C24.4538 58.4205 24.4084 58.5248 24.3299 58.6014C24.2514 58.678 24.1461 58.7209 24.0364 58.7209H19.3164V53.6309Z" fill="#DC3F16"/>
<path fill-rule="evenodd" clip-rule="evenodd" d="M21.0379 38.3108C21.3079 40.9708 21.4179 41.8508 23.1879 43.9408L22.6779 44.7908V45.5008C24.7479 46.4508 25.6779 50.0708 25.8079 51.1708C23.6754 51.5757 21.5084 51.77 19.3379 51.7508V38.3008L21.0379 38.3108Z" fill="#FFC63B"/>
<path fill-rule="evenodd" clip-rule="evenodd" d="M38.0374 0.111328C38.1674 1.98133 37.7774 3.74133 37.0374 4.52133C38.0374 6.14133 36.7674 7.52133 36.3474 8.52133C35.9174 11.9413 32.9374 14.2613 29.8374 15.9813C29.0874 16.4013 26.3374 17.4813 25.5074 18.3013C25.6957 18.4883 25.802 18.7424 25.803 19.0078C25.8039 19.2732 25.6994 19.528 25.5124 19.7163C25.3254 19.9046 25.0713 20.0109 24.8059 20.0119C24.5406 20.0128 24.2857 19.9083 24.0974 19.7213C23.8779 19.5444 23.7355 19.2893 23.7001 19.0096C23.6646 18.7299 23.7389 18.4474 23.9074 18.2213C24.4574 17.3013 25.2574 17.4213 25.5674 17.0813C26.3274 16.2513 25.1874 15.5913 27.7074 15.9713L26.2474 14.9213L26.5374 14.1313C29.0974 16.7413 32.1574 13.1313 32.4374 10.4513C32.5774 9.10132 31.8874 7.39133 30.4374 7.71133L30.4974 6.94133C32.3474 6.85133 32.8074 7.44133 33.3874 8.94133C33.7674 7.59133 31.9574 5.83133 33.1974 5.07133C32.0374 0.521327 36.4674 2.72133 38.0374 0.111328Z" fill="#FFC63B"/>
<path fill-rule="evenodd" clip-rule="evenodd" d="M19.3164 19.5605H21.3764C21.7151 19.5632 22.0391 19.6989 22.2786 19.9383C22.5181 20.1778 22.6538 20.5019 22.6564 20.8405C22.6538 21.1783 22.5177 21.5013 22.278 21.7392C22.0382 21.9771 21.7142 22.1106 21.3764 22.1105H19.3164V19.5605Z" fill="#EC9F1D"/>
<path fill-rule="evenodd" clip-rule="evenodd" d="M21.1279 34.8906C21.5818 35.4203 22.1068 35.8847 22.6879 36.2706C21.9889 36.8635 21.4261 37.6003 21.0379 38.4306H19.3379V34.8906H21.1279Z" fill="#EC9F1D"/>
</svg>
