<svg width="27" height="59" viewBox="0 0 27 59" fill="none" xmlns="http://www.w3.org/2000/svg">
<path fill-rule="evenodd" clip-rule="evenodd" d="M15.1371 37.0312L24.8571 9.95117L14.1771 27.9512L13.3171 28.3012L12.4671 27.9512L1.78711 9.95117L11.5071 37.0312C9.44711 38.1312 9.44711 41.1912 8.98711 42.2812C10.5671 43.3512 16.0671 43.3512 17.6471 42.2812C17.1871 41.1912 17.1971 38.1312 15.1371 37.0312Z" fill="#FFDF66"/>
<path fill-rule="evenodd" clip-rule="evenodd" d="M13.3177 0.460938L16.7277 9.19094L24.7177 9.94094L17.7977 14.4409L19.1477 21.0209L13.3277 17.7109L7.49774 21.0209L8.84773 14.4709L1.92773 9.94094L9.88774 9.20094L13.3177 0.460938Z" fill="#57C8CC"/>
<path d="M22.2966 42.4004H4.33656C3.99967 42.4004 3.72656 42.6735 3.72656 43.0104V52.9904C3.72656 53.3273 3.99967 53.6004 4.33656 53.6004H22.2966C22.6334 53.6004 22.9066 53.3273 22.9066 52.9904V43.0104C22.9066 42.6735 22.6334 42.4004 22.2966 42.4004Z" fill="#FF6533"/>
<path fill-rule="evenodd" clip-rule="evenodd" d="M22.9073 52V53C22.9086 53.0796 22.894 53.1587 22.8645 53.2327C22.8349 53.3066 22.791 53.374 22.7351 53.4307C22.6793 53.4875 22.6127 53.5326 22.5392 53.5634C22.4657 53.5942 22.3869 53.61 22.3073 53.61H4.30727C4.14548 53.61 3.99033 53.5457 3.87593 53.4313C3.76153 53.3169 3.69727 53.1618 3.69727 53V52H22.9073Z" fill="#DC3F16"/>
<path d="M17.838 45.1914H8.80804C8.63684 45.1914 8.49805 45.3302 8.49805 45.5014V50.5114C8.49805 50.6826 8.63684 50.8214 8.80804 50.8214H17.838C18.0093 50.8214 18.148 50.6826 18.148 50.5114V45.5014C18.148 45.3302 18.0093 45.1914 17.838 45.1914Z" fill="#57C8CC"/>
<path d="M24.6563 52.8516H1.98633V55.9616H24.6563V52.8516Z" fill="#FF6533"/>
<path d="M26.5172 55.9609H0.117188V58.1609H26.5172V55.9609Z" fill="#FF6533"/>
<path d="M24.6563 55.0098H1.98633V55.9598H24.6563V55.0098Z" fill="#DC3F16"/>
<path fill-rule="evenodd" clip-rule="evenodd" d="M15.1364 37.0312L24.8564 9.95117L14.1764 27.9512L13.3164 28.3012V43.1212C14.8033 43.2097 16.2894 42.9352 17.6464 42.3212C17.1864 41.1912 17.1964 38.1312 15.1364 37.0312Z" fill="#FFC63B"/>
<path fill-rule="evenodd" clip-rule="evenodd" d="M13.3164 0.460938L16.7264 9.19094L24.7164 9.94094L17.7964 14.4409L19.1464 21.0209L13.3264 17.7109H13.3164V0.460938Z" fill="#2C9FA6"/>
<path fill-rule="evenodd" clip-rule="evenodd" d="M13.3164 42.4004H22.3164C22.4764 42.403 22.629 42.4685 22.7413 42.5826C22.8535 42.6967 22.9164 42.8503 22.9164 43.0104V53.0104C22.9177 53.09 22.9032 53.1691 22.8736 53.2431C22.8441 53.317 22.8001 53.3844 22.7442 53.4411C22.6884 53.4979 22.6218 53.543 22.5484 53.5738C22.4749 53.6046 22.396 53.6204 22.3164 53.6204H13.3164V42.4004Z" fill="#DC3F16"/>
<path fill-rule="evenodd" clip-rule="evenodd" d="M22.9066 52V53C22.908 53.0796 22.8934 53.1587 22.8639 53.2327C22.8343 53.3066 22.7903 53.374 22.7345 53.4307C22.6786 53.4875 22.612 53.5326 22.5386 53.5634C22.4651 53.5942 22.3863 53.61 22.3066 53.61H13.3066V52.01L22.9066 52Z" fill="#C73714"/>
<path fill-rule="evenodd" clip-rule="evenodd" d="M13.3164 45.1916H17.8364C17.8766 45.1902 17.9167 45.197 17.9543 45.2115C17.9918 45.2259 18.0261 45.2478 18.055 45.2758C18.084 45.3038 18.107 45.3373 18.1227 45.3744C18.1383 45.4115 18.1464 45.4513 18.1464 45.4916V50.4916C18.1464 50.5738 18.1137 50.6526 18.0556 50.7108C17.9975 50.7689 17.9186 50.8016 17.8364 50.8016H13.3164V45.1916Z" fill="#2C9FA6"/>
<path d="M24.6464 52.8516H13.3164V55.9616H24.6464V52.8516Z" fill="#DC3F16"/>
<path d="M26.5164 55.9609H13.3164V58.1609H26.5164V55.9609Z" fill="#DC3F16"/>
<path d="M24.6464 55.0098H13.3164V55.9598H24.6464V55.0098Z" fill="#C73714"/>
</svg>
