<svg width="39" height="44" viewBox="0 0 39 44" fill="none" xmlns="http://www.w3.org/2000/svg">
<path fill-rule="evenodd" clip-rule="evenodd" d="M22.7969 20.3216L27.6369 17.9316L38.0169 38.9216L30.4669 36.0716L22.7969 20.3216Z" fill="#57C8CC"/>
<path fill-rule="evenodd" clip-rule="evenodd" d="M17.7676 22.8112L22.3676 20.5312L30.4676 36.0713L28.1576 43.8013L17.7676 22.8112Z" fill="#FF6533"/>
<path fill-rule="evenodd" clip-rule="evenodd" d="M21.0879 21.1703L24.3179 19.5703L32.9379 37.0003L30.4679 36.0703L29.7079 38.6003L21.0879 21.1703Z" fill="#2C9FA6"/>
<path fill-rule="evenodd" clip-rule="evenodd" d="M15.847 20.3216L11.007 17.9316L0.626953 38.9216L8.17696 36.0716L15.847 20.3216Z" fill="#FF6533"/>
<path fill-rule="evenodd" clip-rule="evenodd" d="M20.8777 22.8112L16.2777 20.5312L8.17773 36.0713L10.4877 43.8013L20.8777 22.8112Z" fill="#57C8CC"/>
<path fill-rule="evenodd" clip-rule="evenodd" d="M17.557 21.1703L14.327 19.5703L5.70703 37.0003L8.17703 36.0703L8.92703 38.6003L17.557 21.1703Z" fill="#2C9FA6"/>
<path fill-rule="evenodd" clip-rule="evenodd" d="M19.3166 0.210938C20.6766 0.210938 20.7966 2.37093 22.0066 2.64093C23.2166 2.91093 24.5966 1.16093 25.6666 1.64093C26.7366 2.12093 26.0566 4.23093 27.0166 5.00093C27.9766 5.77093 30.0166 4.80093 30.7466 5.70093C31.5966 6.76093 29.9766 8.20094 30.5166 9.32094C31.0566 10.4409 33.2966 10.4209 33.5166 11.5609C33.8266 12.8809 31.7466 13.4809 31.7466 14.7209C31.7466 15.9609 33.7466 16.9209 33.5166 18.0709C33.2166 19.3909 31.0866 19.0709 30.5166 20.1409C29.9466 21.2109 31.3866 23.0009 30.6666 23.9309C29.9466 24.8609 28.0566 23.7309 27.0866 24.5109C26.1166 25.2909 26.6266 27.4609 25.5866 27.9809C24.3666 28.5709 23.3166 26.6809 22.1066 26.9809C20.8966 27.2809 20.4066 29.4409 19.2366 29.4609C17.8866 29.4609 17.7666 27.3009 16.5566 27.0209C15.3466 26.7409 13.9566 28.5109 12.8966 28.0209C11.6766 27.4409 12.5066 25.4309 11.5366 24.6609C10.5666 23.8909 8.53662 24.8709 7.81662 23.9709C6.96662 22.9109 8.57662 21.4609 8.04662 20.3509C7.51662 19.2409 5.26662 19.2409 4.98662 18.1109C4.68662 16.7909 6.76662 16.1809 6.76662 14.9509C6.76662 13.7209 4.76662 12.7509 4.98662 11.6009C5.28662 10.2809 7.42662 10.6009 7.98662 9.53093C8.54662 8.46093 7.11663 6.67094 7.83663 5.74094C8.55663 4.81094 10.4466 5.93093 11.4066 5.16093C12.3666 4.39093 11.8666 2.21094 12.9166 1.68094C14.1366 1.10094 15.1866 2.99094 16.3966 2.68094C17.6066 2.37094 18.1466 0.220937 19.3166 0.210938Z" fill="#FFDF66"/>
<path fill-rule="evenodd" clip-rule="evenodd" d="M19.3171 25.1215C21.3551 25.1254 23.3485 24.5247 25.0449 23.3953C26.7414 22.266 28.0647 20.6587 28.8473 18.777C29.63 16.8953 29.8368 14.8236 29.4416 12.8243C29.0465 10.825 28.0671 8.98785 26.6274 7.54536C25.1877 6.10288 23.3525 5.11992 21.3539 4.72087C19.3554 4.32182 17.2833 4.52461 15.4001 5.3036C13.5169 6.0826 11.907 7.40276 10.7744 9.09702C9.6417 10.7913 9.03711 12.7835 9.03711 14.8215C9.04237 17.5481 10.1265 20.1619 12.0527 22.0918C13.9788 24.0217 16.5905 25.1109 19.3171 25.1215Z" fill="#FFC63B"/>
<path fill-rule="evenodd" clip-rule="evenodd" d="M19.3177 24.2916C21.1906 24.2916 23.0216 23.7362 24.5789 22.6956C26.1362 21.655 27.35 20.176 28.0668 18.4456C28.7836 16.7152 28.9711 14.8111 28.6057 12.9741C28.2403 11.1371 27.3384 9.44967 26.0139 8.12527C24.6895 6.80086 23.0022 5.89893 21.1652 5.53353C19.3282 5.16813 17.4241 5.35566 15.6936 6.07243C13.9632 6.78919 12.4842 8.00298 11.4436 9.56031C10.4031 11.1176 9.84766 12.9486 9.84766 14.8216C9.8503 17.3324 10.8489 19.7395 12.6243 21.5149C14.3997 23.2903 16.8069 24.2889 19.3177 24.2916Z" fill="#FFDF66"/>
</svg>
