<svg width="45" height="60" viewBox="0 0 45 60" fill="none" xmlns="http://www.w3.org/2000/svg">
<path fill-rule="evenodd" clip-rule="evenodd" d="M12.0879 30.5312H32.2679L29.4179 54.7812H15.1179L12.0879 30.5312Z" fill="#FF6533"/>
<path d="M31.0176 54.7812H13.5176V56.9713H31.0176V54.7812Z" fill="#FF6533"/>
<path d="M32.7881 56.9707H11.748V59.1607H32.7881V56.9707Z" fill="#FF6533"/>
<path d="M26.147 28.3301H18.207V30.5201H26.147V28.3301Z" fill="#FFDF66"/>
<path fill-rule="evenodd" clip-rule="evenodd" d="M22.3164 30.5312H32.2664L29.4164 54.7812H22.3164V30.5312Z" fill="#DC3F16"/>
<path d="M31.0164 54.7812H22.3164V56.9713H31.0164V54.7812Z" fill="#DC3F16"/>
<path d="M32.7864 56.9707H22.3164V59.1607H32.7864V56.9707Z" fill="#DC3F16"/>
<path d="M26.1464 28.3301H22.3164V30.5201H26.1464V28.3301Z" fill="#FFC63B"/>
<path fill-rule="evenodd" clip-rule="evenodd" d="M35.9563 1.33984C36.1663 11.6398 34.1363 28.1898 22.3863 28.3398C10.6363 28.4898 8.47627 11.6898 8.67627 1.33984H35.9563Z" fill="#FFDF66"/>
<path d="M35.7676 0.380859H8.86755C7.9839 0.380859 7.26758 1.0972 7.26758 1.98086C7.26758 2.86451 7.9839 3.58086 8.86755 3.58086H35.7676C36.6512 3.58086 37.3676 2.86451 37.3676 1.98086C37.3676 1.0972 36.6512 0.380859 35.7676 0.380859Z" fill="#FFDF66"/>
<path fill-rule="evenodd" clip-rule="evenodd" d="M5.95647 8.5714C5.7496 8.5714 5.5512 8.65357 5.40492 8.79985C5.25865 8.94613 5.17647 9.14453 5.17647 9.3514C5.17647 9.55826 5.25865 9.75666 5.40492 9.90294C5.5512 10.0492 5.7496 10.1314 5.95647 10.1314C6.53045 10.1965 7.11052 10.0825 7.61717 9.80502C8.12383 9.52753 8.53225 9.10012 8.78646 8.58139C8.9695 8.16012 9.06395 7.70571 9.06395 7.24639C9.06395 6.78707 8.9695 6.33266 8.78646 5.91139C8.51218 5.23573 8.04784 4.6541 7.44969 4.237C6.85155 3.8199 6.14528 3.58521 5.41646 3.56139C4.5952 3.47046 3.76455 3.60048 3.01036 3.93802C2.25617 4.27556 1.6058 4.80837 1.12645 5.48139C-1.98355 10.2214 4.24645 15.8914 7.56645 18.4814C8.51645 19.2114 9.45646 19.9414 10.3265 20.7414C11.1965 21.5414 10.9365 22.5914 9.65645 22.2514C9.5573 22.2245 9.45382 22.2173 9.35192 22.2304C9.25001 22.2435 9.15169 22.2765 9.06255 22.3276C8.9734 22.3786 8.8952 22.4468 8.83238 22.5281C8.76957 22.6094 8.72338 22.7022 8.69646 22.8014C8.66954 22.9005 8.66239 23.004 8.67546 23.1059C8.68853 23.2078 8.72156 23.3062 8.77263 23.3953C8.8237 23.4844 8.89183 23.5627 8.97313 23.6255C9.05443 23.6883 9.1473 23.7345 9.24645 23.7614C9.90545 23.9806 10.6244 23.9303 11.2464 23.6214C12.8264 22.7914 12.6265 20.7014 11.4165 19.6214C10.5065 18.7814 9.53644 18.0314 8.55644 17.2714C6.03644 15.3314 0.0264478 10.1314 2.46645 6.40139C2.79999 5.95854 3.24519 5.61222 3.75649 5.39787C4.26778 5.18351 4.82682 5.1088 5.37645 5.18139C5.80933 5.19167 6.22966 5.3289 6.58522 5.57601C6.94078 5.82313 7.21591 6.16925 7.37645 6.57139C7.47052 6.79277 7.519 7.03085 7.519 7.27139C7.519 7.51193 7.47052 7.75 7.37645 7.97139C7.22929 8.20438 7.01436 8.38675 6.76052 8.494C6.50668 8.60126 6.22611 8.62827 5.95647 8.5714Z" fill="#FFDF66"/>
<path fill-rule="evenodd" clip-rule="evenodd" d="M35.9564 1.33984C36.1664 11.6398 34.1364 28.1898 22.3864 28.3398H22.3164V1.33984H35.9564Z" fill="#FFC63B"/>
<path fill-rule="evenodd" clip-rule="evenodd" d="M22.3164 0.380859H35.7764C36.2007 0.380859 36.6077 0.549429 36.9078 0.849487C37.2078 1.14955 37.3764 1.55651 37.3764 1.98086C37.3764 2.4052 37.2078 2.81217 36.9078 3.11223C36.6077 3.41229 36.2007 3.58086 35.7764 3.58086H22.3164V0.380859Z" fill="#FFC63B"/>
<path fill-rule="evenodd" clip-rule="evenodd" d="M38.6864 8.57081C38.8933 8.57081 39.0917 8.65299 39.2379 8.79927C39.3842 8.94555 39.4664 9.14394 39.4664 9.35081C39.4664 9.55768 39.3842 9.75608 39.2379 9.90236C39.0917 10.0486 38.8933 10.1308 38.6864 10.1308C38.1126 10.1945 37.5331 10.0798 37.0268 9.80249C36.5204 9.52516 36.1118 9.09859 35.8564 8.58081C35.6734 8.15954 35.5789 7.70513 35.5789 7.24581C35.5789 6.78649 35.6734 6.33208 35.8564 5.91081C36.1296 5.23441 36.5937 4.65209 37.192 4.23483C37.7904 3.81757 38.4973 3.58338 39.2264 3.5608C40.0476 3.47094 40.8778 3.60144 41.6318 3.93889C42.3858 4.27635 43.0363 4.80857 43.5164 5.48081C46.6264 10.2208 40.3964 15.8908 37.0664 18.4808C36.1264 19.2108 35.1764 19.9408 34.3064 20.7408C33.4364 21.5408 33.7064 22.5908 34.9864 22.2508C35.0856 22.2245 35.1889 22.2181 35.2906 22.2317C35.3922 22.2454 35.4902 22.279 35.5789 22.3305C35.6675 22.3821 35.7452 22.4506 35.8074 22.5321C35.8696 22.6137 35.9151 22.7067 35.9414 22.8058C35.9677 22.905 35.9742 23.0083 35.9605 23.11C35.9468 23.2116 35.9132 23.3096 35.8617 23.3983C35.8102 23.4869 35.7416 23.5646 35.6601 23.6268C35.5785 23.689 35.4856 23.7345 35.3864 23.7608C35.0603 23.8704 34.7157 23.9145 34.3724 23.8905C34.0292 23.8665 33.6941 23.7748 33.3864 23.6208C31.8064 22.7908 32.0064 20.7008 33.2064 19.6208C34.1164 18.7808 35.0964 18.0308 36.0764 17.2708C38.5964 15.3308 44.6064 10.1308 42.1664 6.40081C41.8313 5.95714 41.3844 5.6104 40.8713 5.39606C40.3583 5.18171 39.7975 5.10742 39.2464 5.18081C38.8135 5.19109 38.3932 5.32831 38.0377 5.57543C37.6821 5.82255 37.4069 6.16867 37.2464 6.57081C37.15 6.7916 37.1003 7.02991 37.1003 7.27081C37.1003 7.51171 37.15 7.75002 37.2464 7.97081C37.3948 8.20754 37.6131 8.39239 37.871 8.49986C38.1289 8.60733 38.4138 8.63212 38.6864 8.57081Z" fill="#FFC63B"/>
<path d="M32.7881 56.3906H11.748V56.9706H32.7881V56.3906Z" fill="#DC3F16"/>
<path d="M32.7864 56.3906H22.3164V56.9706H32.7864V56.3906Z" fill="#C73714"/>
<path d="M31.0176 54.1914H13.5176V54.7814H31.0176V54.1914Z" fill="#DC3F16"/>
<path d="M31.0164 54.1914H22.3164V54.7814H31.0164V54.1914Z" fill="#C73714"/>
</svg>
