<svg width="56" height="56" viewBox="0 0 56 56" fill="none" xmlns="http://www.w3.org/2000/svg">
<rect x="4" y="4" width="48" height="48" rx="24" fill="#FAE2A1" fill-opacity="0.47"/>
<path d="M27.9384 22.0157C27.9558 22.006 27.9775 22 28.0015 22C28.0256 22 28.0473 22.006 28.0647 22.0157C28.0797 22.024 28.0995 22.0393 28.1194 22.0731L34.9763 33.7398C35.012 33.8005 35.0113 33.864 34.9785 33.9231C34.962 33.9528 34.9415 33.9724 34.9238 33.9833C34.909 33.9925 34.8901 34 34.8585 34H21.1446C21.113 34 21.094 33.9925 21.0793 33.9833C21.0616 33.9724 21.0411 33.9528 21.0246 33.9231C20.9918 33.864 20.9911 33.8005 21.0267 33.7398L27.8837 22.0731C27.9036 22.0393 27.9234 22.024 27.9384 22.0157ZM28.9815 21.5664C28.5376 20.8112 27.4655 20.8112 27.0216 21.5664L20.1646 33.2331C19.7076 34.0107 20.2563 35 21.1446 35H34.8585C35.7468 35 36.2955 34.0107 35.8385 33.2331L28.9815 21.5664Z" fill="#FFC700"/>
<path d="M27.0015 32C27.0015 31.4477 27.4493 31 28.0015 31C28.5538 31 29.0015 31.4477 29.0015 32C29.0015 32.5523 28.5538 33 28.0015 33C27.4493 33 27.0015 32.5523 27.0015 32Z" fill="#FFC700"/>
<path d="M27.0995 25.995C27.0462 25.4623 27.4646 25 28 25C28.5354 25 28.9538 25.4623 28.9005 25.995L28.5498 29.5025C28.5215 29.7849 28.2838 30 28 30C27.7162 30 27.4785 29.7849 27.4502 29.5025L27.0995 25.995Z" fill="#FFC700"/>
<rect x="4" y="4" width="48" height="48" rx="24" stroke="#FAE2A1" stroke-opacity="0.47" stroke-width="8"/>
</svg>
