<svg width="16" height="16" viewBox="0 0 16 16" fill="none" xmlns="http://www.w3.org/2000/svg">
<path d="M7.99931 0L9.668 0.864295L11.526 1.1459L12.368 2.82596L13.7056 4.1459L13.3993 6L13.7056 7.8541L12.368 9.17404L11.526 10.8541L9.668 11.1357L7.99931 12L6.33062 11.1357L4.4726 10.8541L3.63062 9.17404L2.29297 7.8541L2.59931 6L2.29297 4.1459L3.63062 2.82596L4.4726 1.1459L6.33062 0.864295L7.99931 0Z" fill="#FE5972"/>
<path d="M3.99931 11.7938V16L7.99931 15L11.9993 16V11.7938L9.98119 12.0997L7.9993 13.1262L6.0174 12.0997L3.99931 11.7938Z" fill="#FE5972"/>
</svg>
