<svg width="105" height="115" viewBox="0 0 105 115" fill="none" xmlns="http://www.w3.org/2000/svg">
<path d="M92.527 22.498C88.9974 22.9554 85.4949 23.5996 82.0344 24.4278C75.4332 25.9375 68.954 27.9324 62.6501 30.3962L52.3042 14.5998C50.5365 11.8942 48.7889 9.16197 46.9679 6.48283C45.4819 4.08262 43.5724 1.96864 41.3313 0.242526C41.0464 0.0627887 40.7107 -0.0207235 40.3742 0.00436667C40.0378 0.0294569 39.7184 0.161865 39.4636 0.381843C38.2429 1.37657 37.7893 2.79572 37.3958 4.26792C36.8977 6.16454 36.453 8.07 36.0617 9.98431C35.2657 13.6803 34.6298 17.3983 34.1539 21.1385C33.2551 28.3078 32.965 35.5397 33.2868 42.7574C27.808 43.6489 22.385 44.8511 17.0443 46.3583C14.2649 47.1541 11.5078 48.0383 8.77292 49.0109C7.38102 49.4972 5.99358 50.0035 4.61057 50.5296C3.39655 50.9938 1.849 51.3585 0.881782 52.2604C-0.832521 53.8586 0.214735 56.12 1.79563 57.3402C3.7434 58.819 6.46496 59.6148 8.73958 60.457C13.9655 62.3868 19.3769 63.7779 24.8887 64.6083C25.8826 64.7608 27.6903 64.6083 28.5574 65.1521C29.4246 65.6959 29.538 67.891 29.6981 68.8459C30.117 71.5572 30.2933 74.3002 30.225 77.0425C30.1383 82.5268 29.3912 87.9712 28.8909 93.429C28.6375 96.0816 28.444 98.7342 28.404 101.387C28.3707 103.589 27.9971 106.692 29.0711 108.682C31.866 113.775 37.9227 105.406 39.2969 103.164C45.3081 93.3396 49.9805 82.7648 53.1914 71.7173C60.7193 79.4399 69.0634 86.3324 78.0788 92.2751C79.9999 93.5351 82.2078 94.8813 84.6158 94.5895C87.0238 94.2977 88.2178 92.368 88.0511 90.1132C87.6375 84.5759 84.9427 78.9457 82.4146 74.0848C79.7464 68.9255 76.618 63.9982 73.9765 58.8323C73.3094 57.5458 72.6757 56.2393 72.1021 54.913C71.8152 54.2499 71.5084 53.7458 71.9687 53.0561C72.4188 52.5089 72.9265 52.0109 73.4828 51.5707C75.3306 49.8399 77.285 48.255 79.2728 46.6568C83.2217 43.5134 87.2773 40.5093 90.906 36.968C92.722 35.2067 94.3699 33.282 95.8288 31.2185C97.0228 29.4943 98.8972 27.0672 98.1301 24.8456C97.323 22.5179 94.6481 22.2593 92.527 22.498ZM44.4998 8.26676C43.8379 7.77276 43.0634 7.44922 42.2452 7.32505H42.1585C42.2185 6.6619 42.2719 5.99874 42.3386 5.33559C43.1231 6.27069 43.8535 7.24934 44.5265 8.26676H44.4998ZM42.0851 75.3382C43.3058 69.2571 44.6065 63.1892 46.0874 57.181C46.2341 58.1227 46.3475 59.0643 46.4475 60.0126C44.9667 64.8404 43.5726 69.6881 42.3119 74.602C42.2852 74.8275 42.1918 75.0796 42.0851 75.3382ZM38.2362 59.0975C38.4722 58.8435 38.599 58.5081 38.5898 58.1625C38.5898 57.6916 38.5898 57.2208 38.5898 56.7566C38.7988 55.4568 39.0211 54.1593 39.2568 52.8639C39.0034 56.0957 38.781 59.3274 38.5898 62.5592C38.3518 62.4676 38.0977 62.4247 37.8427 62.4332C37.9561 61.3257 38.0828 60.2116 38.2629 59.0975H38.2362ZM60.9157 50.0985C60.8058 50.1812 60.711 50.2822 60.6356 50.3969C60.5088 50.5826 60.4155 50.775 60.3087 50.9606C60.1953 50.8346 60.0753 50.7219 59.9619 50.5959C59.0547 48.5069 58.2076 46.3915 57.4004 44.2562L57.8807 44.0837L60.9157 50.0985ZM53.725 43.0956C53.6036 43.443 53.6085 43.8216 53.7389 44.1657C53.8693 44.5099 54.117 44.7976 54.4388 44.979C54.7456 45.8013 55.0591 46.6236 55.3793 47.4393C54.9588 47.3913 54.5336 47.4698 54.1586 47.6647C54.0852 47.605 54.0185 47.5388 53.9518 47.4724C53.7569 47.3052 53.53 47.1788 53.2847 47.101C53.2847 45.1845 53.2848 43.2681 53.138 41.3515C53.3715 41.9351 53.5716 42.5187 53.7784 43.0956H53.725ZM52.7511 54.5284C53.4182 55.8017 54.1252 57.0417 54.6789 58.2685C54.7656 58.4741 54.8457 58.6864 54.939 58.8919C54.1653 57.7557 53.3959 56.6151 52.6311 55.47C52.7578 55.1584 52.7578 54.8268 52.8045 54.5284H52.7511ZM65.8719 59.2832C65.3288 58.0448 64.8588 56.7761 64.4644 55.4833C64.6969 55.489 64.9269 55.4341 65.1314 55.3242C65.6384 56.9157 66.1409 58.5073 66.639 60.0988C66.4255 59.8203 66.172 59.5551 65.9252 59.2832H65.8719ZM56.2331 40.9006C56.1531 40.6685 56.073 40.4364 55.9863 40.2374L56.3131 40.9006H56.2331ZM50.0496 51.511C49.4893 50.6489 48.9423 49.7802 48.3887 48.9181C48.969 46.9286 49.576 44.9922 50.223 43.0492C50.3354 45.8707 50.2775 48.6964 50.0496 51.511ZM48.9089 55.2976L49.3892 56.0205C49.2675 55.9678 49.1399 55.93 49.009 55.9077L48.9089 55.2976ZM52.0107 59.9397C52.9579 61.339 53.9118 62.7382 54.8723 64.1242C53.7917 63.4257 52.7022 62.7383 51.6038 62.0618C51.7506 61.3324 51.884 60.6294 52.0107 59.9199V59.9397ZM67.7463 72.8778C64.4467 68.5342 61.6561 63.8308 59.4282 58.8587C58.9035 57.6916 58.4032 56.509 57.9274 55.3109C58.5477 55.921 59.1547 56.5311 59.7551 57.1478C61.5966 60.8268 63.6963 64.3724 66.0386 67.7583C66.112 67.8644 66.1787 67.9771 66.2588 68.0833C66.3937 68.3146 66.6045 68.4929 66.8558 68.5883C67.1072 68.6837 67.3839 68.6904 67.6395 68.6072C69.8008 71.9229 72.1754 75.1525 74.4234 78.4417C72.4222 76.775 70.3922 75.1481 68.3333 73.5609C68.1465 73.3951 67.9464 73.1166 67.7463 72.8579V72.8778ZM71.0148 68.3552C71.1898 68.2835 71.3538 68.1874 71.5017 68.07C71.8953 68.9851 72.2955 69.9069 72.6957 70.8221C72.1221 69.9953 71.5618 69.1664 71.0148 68.3353V68.3552ZM45.4804 19.3879L47.3014 22.9954C47.3814 23.2673 47.4681 23.5392 47.5549 23.8044C48.6555 27.3987 49.7428 30.993 50.8901 34.5674C50.6142 34.6032 50.3529 34.7111 50.1326 34.88C49.9123 35.0489 49.741 35.2729 49.636 35.529C48.3553 38.8448 47.2213 42.2335 46.1808 45.6355C46.0881 45.5735 45.9898 45.5202 45.8872 45.4763C46.1074 43.0359 46.2808 40.5955 46.3942 38.1816C46.5943 33.7783 46.8144 29.2423 45.3736 25.0379C45.2535 21.2358 44.9445 17.447 44.4464 13.6714C44.7199 14.56 44.92 15.4222 45.1135 15.9726C45.3069 16.523 45.487 17.1795 45.6805 17.783C45.485 17.9934 45.3605 18.2593 45.3246 18.5435C45.2887 18.8278 45.3432 19.116 45.4804 19.368V19.3879ZM23.101 57.2937V57.3335L22.5807 57.0882L22.6741 56.9555L23.101 57.2937ZM20.0593 54.8931L19.5924 55.6823L16.3239 54.1305C17.4445 54.0708 18.5585 53.9647 19.6591 53.8387C19.6917 54.2164 19.8356 54.5762 20.0726 54.8732L20.0593 54.8931ZM27.9638 53.8122C27.9638 54.3891 27.8971 54.9727 27.8437 55.5496L27.6236 56.929L26.8898 56.3719C27.25 55.4899 27.6036 54.6411 27.9638 53.7922V53.8122ZM66.152 75.7825C69.3672 79.8211 73.176 83.369 77.9854 85.4314C78.2402 85.5333 78.5221 85.5473 78.7859 85.4711C79.3328 86.4659 79.8531 87.4606 80.3267 88.4952C75.8798 85.3562 71.5818 82.0405 67.4328 78.5478C64.6934 76.2312 62.0253 73.8372 59.4282 71.3658C58.8546 70.8154 58.2876 70.2452 57.7206 69.6947C60.5844 71.6267 63.3949 73.6493 66.152 75.7626V75.7825ZM66.8191 46.9949L65.9786 47.7509C65.7518 47.0347 65.5317 46.3185 65.3116 45.6023C65.2182 45.3039 65.1248 45.0121 65.0247 44.7137C67.2838 42.9453 69.6051 41.2653 71.9887 39.6737C69.9488 41.8744 68.2044 44.3286 66.7991 46.9751L66.8191 46.9949ZM63.9975 41.6566C63.9827 41.6026 63.9649 41.5494 63.9441 41.4974L64.6912 41.1326C64.4444 41.2918 64.2109 41.4642 63.9775 41.6367L63.9975 41.6566ZM41.5715 15.1635C41.9094 17.9134 42.1451 20.6744 42.2785 23.4464C42.1103 23.6573 42.0021 23.9092 41.965 24.1758C41.587 27.5977 41.2313 31.0196 40.8977 34.4414C40.9111 27.9956 41.129 21.563 41.5515 15.1437L41.5715 15.1635ZM33.7671 46.5374C33.3202 46.7894 32.8732 47.0347 32.433 47.2735C32.433 46.9551 32.3863 46.6103 32.3529 46.3186C32.337 46.2179 32.3079 46.1198 32.2662 46.0267L33.8271 45.7615C33.7804 46.0002 33.7604 46.2588 33.747 46.5175L33.7671 46.5374ZM36.8088 83.5679C36.9987 83.4554 37.1585 83.299 37.2746 83.112C37.3908 82.9249 37.4598 82.7128 37.4758 82.4936C37.6359 79.8874 37.796 77.2746 38.0295 74.6684C38.2607 73.0017 38.4986 71.3416 38.7432 69.6881L38.8499 69.7743C38.043 73.5923 37.7092 77.4942 37.856 81.3928C37.8505 81.6049 37.8901 81.8158 37.9723 82.0116C38.0545 82.2074 38.1775 82.3838 38.3331 82.529C38.4886 82.6743 38.6734 82.7853 38.8751 82.8546C39.0768 82.9239 39.291 82.9501 39.5036 82.9313C38.3519 86.0702 37.1312 89.1804 35.8416 92.2618C36.0817 89.344 36.4286 86.4394 36.7888 83.5481L36.8088 83.5679ZM70.0743 58.0564C69.8001 57.9348 69.4943 57.9023 69.2004 57.9635C68.7802 56.6372 68.3533 55.3109 67.933 53.9382C68.1798 53.6133 68.4533 53.275 68.7068 52.9699C68.6137 53.3768 68.5979 53.7974 68.6601 54.21C68.9318 55.5471 69.4016 56.8366 70.0542 58.0364L70.0743 58.0564ZM80.3534 37.1803C80.0304 37.1275 79.6995 37.2038 79.4329 37.3924C78.4634 38.0291 77.5073 38.679 76.5646 39.3422C79.9792 36.2091 83.6029 33.3089 87.4107 30.6615C87.5713 30.5525 87.7039 30.4074 87.7978 30.238C87.8916 30.0687 87.9441 29.8798 87.951 29.6866L88.4046 29.5142L89.1584 29.2821C88.9389 29.7814 88.8942 30.3395 89.0316 30.867L80.3534 37.1803ZM62.7635 33.6059C68.196 31.4383 73.7668 29.6305 79.4396 28.1945C82.2545 27.4916 85.0872 26.8771 87.9377 26.351L88.6514 26.2316C88.2645 26.351 87.8776 26.4902 87.5174 26.6162C83.778 27.9612 80.14 29.5701 76.6313 31.4307C75.0704 32.2397 73.5162 33.0753 71.962 33.9175L72.3622 33.6457C73.9498 32.5714 72.8225 30.0845 70.9748 30.9267L61.5494 35.2306C61.1047 34.1562 60.6222 33.0997 60.102 32.0607L60.6823 32.9361C60.8754 33.2929 61.1997 33.5618 61.5875 33.6866C61.9753 33.8114 62.3966 33.7825 62.7635 33.6059ZM50.2631 17.027L56.2198 26.1122C55.9115 26.0389 55.5885 26.0564 55.2901 26.1624C54.9916 26.2683 54.7306 26.4582 54.5388 26.709C54.3585 26.9234 54.2185 27.1682 54.1252 27.4319L49.6694 20.3428C49.5026 19.8123 49.3425 19.2751 49.1758 18.7379C48.5087 16.5495 47.8817 14.2881 47.0479 12.1064L50.2631 17.027ZM38.5965 12.8093C38.6365 12.6104 38.6898 12.4181 38.7298 12.2191C38.4363 16.0212 38.214 19.8211 38.0628 23.6187C37.6372 23.6126 37.2251 23.7666 36.9088 24.0498C36.9088 23.7116 36.9622 23.3866 37.0022 23.0418C37.3758 19.5668 37.9027 16.145 38.5698 12.7629L38.5965 12.8093ZM25.9226 47.2934L24.6819 49.0043C24.5049 48.9846 24.3257 49.0005 24.155 49.0508C20.2538 50.2175 16.2191 50.886 12.1482 51.0402C13.8825 50.4699 15.6235 49.9194 17.3778 49.4221C20.1794 48.5998 23.0343 47.8902 25.9026 47.2535L25.9226 47.2934ZM4.9441 55.6292C4.55054 55.4501 3.53663 55.1053 3.31651 54.6345C3.31651 54.6809 3.11641 54.4488 3.12308 54.3957C3.5109 54.1805 3.92283 54.0113 4.35042 53.8917C5.72453 53.3479 7.10532 52.8241 8.49277 52.3201L9.35325 52.0283C9.3012 52.1372 9.2588 52.2503 9.22651 52.3665C8.67953 52.4992 8.1259 52.6185 7.57893 52.7644C6.17814 53.1424 5.87795 55.2115 7.39881 55.6956L18.345 59.2302C19.7918 59.9893 21.287 60.6539 22.8209 61.2196C21.5668 60.9941 20.3217 60.7355 19.0854 60.4437C14.219 59.282 9.47656 57.6564 4.92407 55.5894L4.9441 55.6292ZM36.2418 102.348C35.6718 103.283 35.0272 104.17 34.314 105.001C34.0138 105.339 32.1728 107.315 31.6458 106.991C31.1189 106.666 31.4324 104.172 31.4257 103.708C31.4257 102.474 31.4257 101.241 31.4658 100.008C31.5525 97.5273 31.7659 95.0538 32.0061 92.5802C32.4863 87.7458 33.1 82.9114 33.2334 78.0505C33.3058 75.6452 33.2279 73.2377 33 70.842C32.7932 68.7265 32.5997 66.2729 31.7126 64.3099C31.5233 63.8908 31.2537 63.5124 30.9188 63.1958H31.1055C31.3354 63.2718 31.5803 63.2915 31.8195 63.2534C32.0587 63.2153 32.2851 63.1205 32.4796 62.977C32.5197 63.7529 32.5731 64.5288 32.5931 65.3047C32.5951 65.523 32.6423 65.7386 32.7318 65.938C32.8213 66.1375 32.9511 66.3165 33.1131 66.4639C33.2752 66.6113 33.4661 66.724 33.6738 66.795C33.8815 66.8659 34.1017 66.8936 34.3207 66.8763C33.9382 71.2364 33.8825 75.6186 34.1539 79.9868C33.2201 87.0627 32.4197 94.1585 31.9327 101.281C31.8126 103.104 34.2206 103.37 34.9144 101.871C36.3463 98.7762 37.7115 95.6395 39.01 92.4608C39.1902 92.6339 39.4113 92.7591 39.6529 92.8249C39.8946 92.8908 40.149 92.8952 40.3927 92.8377C40.6365 92.7803 40.8618 92.6628 41.048 92.4961C41.2342 92.3294 41.3752 92.1189 41.4581 91.8839C45.2375 83.7387 48.2844 75.277 50.5632 66.5978C50.8123 66.9603 51.079 67.3184 51.3637 67.6721C51.1852 67.8337 51.0578 68.0434 50.9968 68.2756C48.4079 77.871 44.7077 87.1353 39.9706 95.8827C38.7899 98.0512 37.5559 100.213 36.2218 102.309L36.2418 102.348ZM84.8826 89.4434C85.0204 89.9489 85.0522 90.4771 84.976 90.9953C83.2484 85.69 81.5007 80.4643 79.5596 75.2652C80.7049 77.4215 81.7379 79.635 82.6547 81.8967C83.639 84.3201 84.3786 86.8349 84.8626 89.4037L84.8826 89.4434ZM77.0582 44.5745C75.5996 45.7416 74.1677 46.9441 72.7624 48.182C74.6168 46.1174 76.5579 44.1279 78.5857 42.2136L88.7782 34.7597C88.4113 35.1178 88.0378 35.4759 87.6575 35.8274C84.3223 38.9442 80.6202 41.6764 77.0382 44.5346L77.0582 44.5745ZM92.4869 30.6946C92.4104 30.485 92.2819 30.298 92.1134 30.1509C92.1521 29.9791 92.2103 29.8122 92.2868 29.6535C92.3911 29.3275 92.4626 28.9921 92.5003 28.6521C92.5397 28.2923 92.5006 27.9283 92.3854 27.5849C92.2703 27.2416 92.082 26.927 91.8332 26.6627C91.614 26.4469 91.3534 26.2771 91.067 26.1632C90.7805 26.0493 90.4741 25.9936 90.1656 25.9995C90.7059 25.9067 91.2396 25.8072 91.7865 25.7209C92.5203 25.6082 94.348 25.1042 95.035 25.6613C95.8955 26.3112 93.2807 29.627 92.4669 30.6549L92.4869 30.6946Z" fill="white"/>
<path d="M66.2921 13.4327C66.5058 13.8326 66.8629 14.138 67.2927 14.2882C67.5981 14.3868 67.9204 14.4228 68.2403 14.3943C68.5601 14.3659 68.8708 14.2734 69.1537 14.1224C69.9784 13.6558 70.7273 13.0678 71.375 12.3783C72.7174 11.0183 73.7343 9.37496 74.35 7.57046C74.653 6.65662 74.8477 5.71076 74.9303 4.75205C74.997 4.26356 74.997 3.76836 74.9303 3.27987C74.8318 2.80453 74.5512 2.38587 74.1479 2.11239C73.7446 1.83891 73.2502 1.73205 72.7691 1.81432C71.7485 2.00664 70.9014 2.882 70.2343 3.63136C69.5707 4.36847 68.9872 5.17313 68.4934 6.03198C67.4827 7.93612 66.6649 9.93541 66.052 12.0004C65.9853 12.2221 65.968 12.4557 66.0014 12.6847C66.0349 12.9138 66.1181 13.1329 66.2454 13.3267L66.2921 13.4327ZM73.4361 4.75869C73.4962 4.69901 73.5629 4.64593 73.5829 4.65256L73.4361 4.75869Z" fill="white"/>
<path d="M14.5095 26.908C16.2408 28.9541 18.3954 30.6052 20.8264 31.749C21.1275 31.8586 21.4565 31.8668 21.7627 31.7721C22.0689 31.6774 22.3352 31.4852 22.5207 31.2251C22.6986 31.0441 22.8331 30.8253 22.9139 30.5853C22.9948 30.3453 23.02 30.0902 22.9876 29.8391C22.7475 27.6905 20.5796 26.2979 19.1454 24.9053C17.611 23.4109 16.1571 21.837 14.7896 20.1902C14.6117 19.9916 14.384 19.8434 14.1298 19.7607C13.8755 19.678 13.6037 19.6638 13.3421 19.7194C12.9076 19.8157 12.5167 20.0505 12.2289 20.3881C11.9411 20.7257 11.7722 21.1476 11.7479 21.5895C11.728 22.29 11.9134 22.9813 12.2815 23.5789C12.8992 24.7665 13.6463 25.8829 14.5095 26.908Z" fill="white"/>
<path d="M100.031 64.5884C98.1205 63.78 96.0642 63.3672 93.9877 63.3748C93.5834 63.3545 93.1869 63.4911 92.882 63.7559C92.5771 64.0207 92.3876 64.3929 92.3535 64.794C92.3409 65.1482 92.4475 65.4964 92.6566 65.7835C92.8656 66.0707 93.1651 66.2802 93.5075 66.3789L97.6632 70.0793C99.0773 71.3459 100.578 72.8911 102.659 72.6457C103.167 72.5924 103.649 72.3953 104.047 72.0779C104.446 71.7606 104.744 71.3362 104.907 70.8552C105.214 69.8605 104.707 68.7 104.153 67.8644C103.131 66.395 101.698 65.256 100.031 64.5884ZM100.865 68.8658L100.672 68.7L99.6243 67.7649C99.8711 67.9108 100.118 68.0633 100.351 68.2291L100.658 68.4613L100.912 68.6867C101.1 68.883 101.278 69.0888 101.445 69.3034L101.198 69.1376L100.865 68.8658ZM101.932 70.1921C101.932 70.1921 101.932 70.2385 101.932 70.2252V70.1921ZM101.932 70.1921C101.93 70.1745 101.93 70.1566 101.932 70.139C101.932 70.139 101.959 70.2385 101.939 70.2451L101.932 70.1921Z" fill="white"/>
<path d="M61.7162 96.3336C61.5141 96.3717 61.323 96.4532 61.1559 96.5723H61.0958C58.3609 97.1427 59.0947 100.856 59.2214 102.839C59.3559 105.578 59.7739 108.296 60.4688 110.95C60.789 112.117 61.1358 113.43 62.043 114.265C62.5036 114.703 63.1066 114.962 63.7428 114.996C64.379 115.03 65.0064 114.837 65.5116 114.451C66.6389 113.523 66.3321 112.17 66.0386 110.95C65.7184 109.623 65.4183 108.27 65.1381 106.891C64.471 103.781 63.9574 100.644 63.5239 97.5008C63.4343 97.1108 63.1955 96.7708 62.858 96.5529C62.5205 96.335 62.111 96.2563 61.7162 96.3336ZM63.177 112.316C63.1865 112.396 63.2189 112.472 63.2704 112.535C63.1637 112.455 63.1503 112.382 63.177 112.316Z" fill="white"/>
<path d="M17.5446 80.093C16.2709 81.0764 15.0898 82.173 14.0159 83.369C13.3889 84.0786 12.7818 84.8014 12.2282 85.564C11.8762 85.9729 11.6461 86.4714 11.5636 87.0033C11.4811 87.5352 11.5495 88.0795 11.7613 88.5748C11.9026 88.8651 12.1074 89.1202 12.3608 89.3216C12.6142 89.523 12.9097 89.6655 13.2256 89.7386C13.5416 89.8117 13.87 89.8136 14.1868 89.7442C14.5036 89.6748 14.8007 89.5358 15.0565 89.3374C15.3682 89.0773 15.6501 88.7837 15.8969 88.462L16.9976 87.1954C18.1916 85.8028 19.3722 84.3836 20.4795 82.918C20.8413 82.4623 21.0965 81.9322 21.2266 81.3663C21.3354 80.9605 21.3234 80.5321 21.1919 80.133C21.0605 79.7339 20.8153 79.3814 20.4862 79.1182C19.4456 78.4418 18.0715 79.0784 17.5446 80.093Z" fill="white"/>
</svg>
