<svg width="50" height="50" viewBox="0 0 50 50" fill="none" xmlns="http://www.w3.org/2000/svg">
<path d="M2.28987 32.0105C2.05763 32.0402 1.83933 32.1385 1.6625 32.2928C1.48567 32.4472 1.35822 32.6508 1.29623 32.878C1.23423 33.1052 1.24047 33.3457 1.31414 33.5693C1.38782 33.7929 1.52564 33.9896 1.71022 34.1345C1.89481 34.2795 2.11788 34.3661 2.35135 34.3836C2.58481 34.4011 2.81822 34.3486 3.02211 34.2328C3.22599 34.1171 3.39124 33.9431 3.49703 33.733C3.60282 33.5228 3.6444 33.2859 3.61654 33.0519C3.6004 32.8947 3.55287 32.7423 3.47676 32.604C3.40066 32.4656 3.29756 32.3442 3.17366 32.2469C3.04976 32.1496 2.90762 32.0786 2.75576 32.0379C2.60389 31.9973 2.44541 31.988 2.28987 32.0105Z" fill="white"/>
<path d="M48.6556 28.5076C48.4241 28.5391 48.2069 28.6388 48.0315 28.7941C47.856 28.9493 47.7301 29.1533 47.6695 29.3804C47.6089 29.6075 47.6163 29.8475 47.6908 30.0704C47.7654 30.2932 47.9037 30.4889 48.0884 30.6329C48.2731 30.7769 48.496 30.8628 48.7291 30.8797C48.9621 30.8966 49.195 30.8438 49.3983 30.728C49.6017 30.6122 49.7665 30.4386 49.8721 30.2288C49.9776 30.0191 50.0193 29.7826 49.9917 29.5491C49.9744 29.3914 49.9257 29.2388 49.8486 29.1004C49.7715 28.9621 49.6676 28.8406 49.5429 28.7435C49.4183 28.6463 49.2755 28.5754 49.1231 28.5349C48.9707 28.4944 48.8117 28.4851 48.6556 28.5076Z" fill="white"/>
<path d="M39.1527 2.56518C39.1787 2.8021 39.274 3.02591 39.4267 3.20819C39.5793 3.39047 39.7823 3.52296 40.0099 3.58889C40.2375 3.65483 40.4795 3.65122 40.7051 3.57849C40.9306 3.50576 41.1297 3.36722 41.2768 3.18045C41.424 2.99368 41.5127 2.76712 41.5316 2.52953C41.5505 2.29193 41.4988 2.05399 41.3831 1.84601C41.2674 1.63803 41.0929 1.46937 40.8817 1.3614C40.6706 1.25343 40.4323 1.21105 40.1971 1.23964C40.0419 1.25727 39.8916 1.30561 39.755 1.38186C39.6184 1.4581 39.4981 1.56074 39.4011 1.68391C39.304 1.80709 39.2321 1.94835 39.1895 2.09958C39.1469 2.25082 39.1344 2.40907 39.1527 2.56518Z" fill="white"/>
<path d="M13.2413 2.37642C13.4736 2.3467 13.6919 2.24845 13.8687 2.09407C14.0455 1.93968 14.173 1.73608 14.235 1.50891C14.297 1.28174 14.2907 1.04114 14.2171 0.817531C14.1434 0.59392 14.0056 0.39727 13.821 0.252365C13.6364 0.107459 13.4133 0.0208018 13.1799 0.00329849C12.9464 -0.0142048 12.713 0.0382285 12.5091 0.154009C12.3053 0.26979 12.14 0.443719 12.0342 0.653875C11.9284 0.864031 11.8868 1.101 11.9147 1.33491C11.9308 1.4922 11.9784 1.64459 12.0545 1.78294C12.1306 1.92128 12.2337 2.04274 12.3576 2.14001C12.4815 2.23727 12.6236 2.30835 12.7755 2.34897C12.9274 2.38959 13.0858 2.39893 13.2413 2.37642Z" fill="white"/>
<path d="M2.38269 20.0824C2.35673 19.8455 2.26138 19.6217 2.10876 19.4394C1.95613 19.2571 1.75314 19.1246 1.52552 19.0586C1.29789 18.9927 1.05593 18.9963 0.830354 19.0691C0.604781 19.1418 0.405763 19.2803 0.258602 19.4671C0.111441 19.6539 0.0227563 19.8805 0.00382331 20.1181C-0.0151097 20.3557 0.0365705 20.5936 0.152274 20.8015C0.267978 21.0095 0.442504 21.1782 0.653677 21.2861C0.86485 21.3941 1.10315 21.4365 1.3383 21.4079C1.49354 21.3903 1.64377 21.342 1.78038 21.2657C1.91699 21.1895 2.03729 21.0868 2.13434 20.9636C2.23139 20.8405 2.30328 20.6992 2.3459 20.548C2.38853 20.3967 2.40103 20.2385 2.38269 20.0824Z" fill="white"/>
<path d="M33.3576 33.2422C33.0338 33.247 32.7245 33.3779 32.4946 33.6075C32.2648 33.837 32.1323 34.1472 32.125 34.473V42.8049C32.152 43.1163 32.2941 43.4063 32.5231 43.6176C32.7522 43.8288 33.0516 43.946 33.3623 43.946C33.673 43.946 33.9724 43.8288 34.2014 43.6176C34.4305 43.4063 34.5725 43.1163 34.5996 42.8049V34.473C34.5752 34.1515 34.4359 33.8498 34.2076 33.6235C33.9794 33.3973 33.6774 33.2618 33.3576 33.2422Z" fill="white"/>
<path d="M46.9411 9.57168C47.5168 9.56607 48.0779 9.38922 48.5538 9.06332C49.0298 8.73742 49.3992 8.27705 49.6156 7.74026C49.8321 7.20348 49.8858 6.61425 49.7701 6.04679C49.6544 5.47932 49.3744 4.95899 48.9654 4.55135C48.5564 4.14371 48.0366 3.86698 47.4716 3.75602C46.9066 3.64505 46.3216 3.7048 45.7903 3.92776C45.2589 4.15072 44.805 4.52694 44.4858 5.00897C44.1665 5.49101 43.9961 6.05734 43.9961 6.63663C44.02 7.41231 44.3388 8.14916 44.8868 8.69527C45.4347 9.24137 46.1701 9.55508 46.9411 9.57168ZM46.9411 5.97386C47.0528 5.97386 47.1619 6.00719 47.2548 6.06961C47.3476 6.13204 47.4199 6.22071 47.4627 6.32452C47.5054 6.42832 47.5166 6.54256 47.4948 6.65275C47.473 6.76295 47.4192 6.86421 47.3403 6.94366C47.2613 7.0231 47.1607 7.07719 47.0512 7.09911C46.9417 7.12103 46.8282 7.1098 46.7251 7.0668C46.6219 7.02381 46.5337 6.95097 46.4717 6.85755C46.4097 6.76413 46.3766 6.65427 46.3766 6.54192C46.3874 6.39488 46.4504 6.25668 46.554 6.15242C46.6576 6.04817 46.795 5.9848 46.9411 5.97386Z" fill="white"/>
<path d="M46.9417 36.7454C46.3664 36.7529 45.8062 36.9313 45.3316 37.2583C44.8569 37.5853 44.4889 38.0463 44.2739 38.5833C44.0589 39.1202 44.0065 39.7091 44.1232 40.2759C44.24 40.8428 44.5207 41.3622 44.9301 41.7689C45.3395 42.1756 45.8592 42.4514 46.4239 42.5616C46.9887 42.6718 47.5732 42.6115 48.104 42.3883C48.6348 42.1651 49.0881 41.7889 49.407 41.3071C49.7259 40.8253 49.896 40.2593 49.8961 39.6804C49.8999 39.2907 49.8259 38.9042 49.6783 38.5438C49.5307 38.1835 49.3127 37.8567 49.0371 37.5829C48.7614 37.309 48.4339 37.0938 48.0739 36.9499C47.7139 36.806 47.3289 36.7365 46.9417 36.7454ZM46.9417 40.3432C46.8304 40.3413 46.7222 40.3064 46.6306 40.2429C46.539 40.1793 46.4681 40.09 46.4268 39.9861C46.3856 39.8821 46.3757 39.7682 46.3985 39.6587C46.4214 39.5491 46.4759 39.4487 46.5552 39.3702C46.6345 39.2917 46.7351 39.2385 46.8443 39.2174C46.9536 39.1962 47.0666 39.208 47.1692 39.2512C47.2718 39.2945 47.3594 39.3674 47.4211 39.4606C47.4827 39.5538 47.5156 39.6632 47.5156 39.7752C47.6097 40.0592 47.3274 40.3432 46.9417 40.3432Z" fill="white"/>
<path d="M5.99674 7.11026C6.92004 7.11026 7.80554 6.74115 8.45841 6.08418C9.11129 5.42721 9.47807 4.53619 9.47807 3.6071C9.48067 2.66353 9.11381 1.75688 8.45695 1.0835C7.80009 0.410117 6.90609 0.0242116 5.96851 0.00927734C5.02046 0.0212869 4.11404 0.403043 3.44011 1.07414C2.76618 1.74523 2.37733 2.65327 2.35547 3.6071C2.38014 4.55638 2.77676 5.45736 3.45886 6.11359C4.14096 6.76982 5.05322 7.12808 5.99674 7.11026ZM5.99674 2.47093C6.32053 2.47575 6.62985 2.60668 6.85971 2.83621C7.08956 3.06574 7.22204 3.37598 7.22931 3.70175C7.22328 3.85805 7.18654 4.01163 7.12118 4.15354C7.05581 4.29545 6.96315 4.42287 6.84854 4.52853C6.73392 4.63418 6.59961 4.71593 6.45341 4.76904C6.3072 4.82214 6.15199 4.84555 5.99674 4.83792C5.68481 4.83792 5.38566 4.71326 5.1651 4.49131C4.94453 4.26936 4.82062 3.96831 4.82062 3.65442C4.82062 3.34054 4.94453 3.03955 5.1651 2.8176C5.38566 2.59565 5.68481 2.47093 5.99674 2.47093Z" fill="white"/>
<path d="M43.9988 22.5432C44.3242 22.5409 44.6359 22.411 44.8678 22.1812C45.0996 21.9514 45.2334 21.6398 45.2407 21.3124V14.2114C45.2334 13.884 45.0996 13.5724 44.8678 13.3426C44.6359 13.1128 44.3242 12.983 43.9988 12.9806H36.2081C36.6642 12.1884 36.847 11.2664 36.7278 10.3587C36.6087 9.45099 36.1944 8.60846 35.5495 7.96254C34.7794 7.19894 33.7467 6.76309 32.6657 6.74546C31.5847 6.72783 30.5384 7.1298 29.7442 7.86788V2.28175C29.7328 2.0316 29.6471 1.79068 29.4981 1.59014C29.349 1.38961 29.1436 1.23877 28.9083 1.15714C28.6731 1.07551 28.4189 1.06687 28.1787 1.13235C27.9385 1.19783 27.7234 1.33436 27.5613 1.52432L25.002 5.02749L22.4334 1.7137C22.2785 1.51729 22.066 1.37497 21.8262 1.30698C21.5863 1.239 21.3313 1.24878 21.0973 1.33495C20.8561 1.41187 20.6448 1.56274 20.4929 1.76646C20.3411 1.97017 20.2563 2.21655 20.2505 2.47112V8.05725C19.5251 7.37348 18.5803 6.97374 17.5873 6.93044C16.5943 6.88715 15.6188 7.20317 14.8373 7.82124C14.0559 8.43932 13.5203 9.31859 13.3275 10.2998C13.1348 11.281 13.2976 12.2991 13.7865 13.1699H5.99587C5.67044 13.1723 5.35874 13.3022 5.12687 13.532C4.895 13.7618 4.76124 14.0734 4.75391 14.4008V21.5018C4.76124 21.8292 4.895 22.1408 5.12687 22.3706C5.35874 22.6004 5.67044 22.7302 5.99587 22.7326H7.22844V48.7696C7.23571 49.0953 7.36822 49.4056 7.59808 49.6351C7.82793 49.8646 8.13726 49.9956 8.46105 50.0004H41.7218C42.0456 49.9956 42.3549 49.8646 42.5847 49.6351C42.8146 49.4056 42.9471 49.0953 42.9543 48.7696V22.5432H43.9988ZM42.8603 20.1762H29.8476V15.4423H42.8603V20.1762ZM22.6498 27.2772V22.5432H27.3543V27.2772H22.6498ZM27.3543 29.6442V47.444H22.6498V29.6442H27.3543ZM22.6498 20.1762V15.4423H27.3543V20.1762H22.6498ZM33.9406 9.76148C34.2579 10.1106 34.4339 10.5665 34.4339 11.0396C34.4339 11.5127 34.2579 11.9688 33.9406 12.3178L33.0843 13.0753H28.0505L31.3719 9.76148C31.7204 9.43401 32.1794 9.2519 32.6562 9.2519C33.133 9.2519 33.5921 9.43401 33.9406 9.76148ZM24.0611 7.86788C24.1682 8.01839 24.3095 8.14104 24.4731 8.22564C24.6367 8.31025 24.8181 8.3544 25.002 8.3544C25.186 8.3544 25.3673 8.31025 25.5309 8.22564C25.6946 8.14104 25.8358 8.01839 25.9429 7.86788L27.3637 5.97428V10.4242L24.9926 12.7912L22.6498 10.4242V5.97428L24.0611 7.86788ZM16.0635 12.2231C15.9012 12.0645 15.775 11.8723 15.6938 11.6598C15.6125 11.4473 15.5782 11.2195 15.593 10.9923C15.593 10.7545 15.6399 10.519 15.7309 10.2995C15.8219 10.08 15.9553 9.88086 16.1233 9.71357C16.2913 9.54627 16.4906 9.41411 16.7097 9.32483C16.9287 9.23555 17.1632 9.19092 17.3996 9.19342C17.8549 9.19014 18.2948 9.35911 18.6322 9.66682L21.9535 12.9806H16.9197L16.0635 12.2231ZM7.22844 15.4423H20.2505V20.1762H7.22844V15.4423ZM20.2505 22.5432V27.2772H9.59953V22.5432H20.2505ZM9.59953 29.6442H20.3446V47.444H9.59953V29.6442ZM34.4957 47.444V46.2132C34.4957 45.8842 34.3658 45.5687 34.1347 45.3361C33.9035 45.1035 33.59 44.9729 33.2631 44.9729C32.9362 44.9729 32.6227 45.1035 32.3916 45.3361C32.1604 45.5687 32.0305 45.8842 32.0305 46.2132V47.444H29.6501V29.6442H40.2916V47.444H34.4957ZM40.5268 27.2772H29.7442V22.5432H40.3951V27.2772H40.5268Z" fill="white"/>
</svg>
