<svg width="1728" height="929" viewBox="0 0 1728 929" fill="none" xmlns="http://www.w3.org/2000/svg">
<path d="M-230.414 858.155C-220.475 858.157 -210.577 857.039 -200.963 854.826C-193.247 874.252 -179.521 891.402 -161.324 904.349C-143.127 917.297 -121.183 925.529 -97.9551 928.12C-74.7278 930.711 -51.1382 927.558 -29.8372 919.017C-8.53638 910.475 9.63171 896.883 22.6257 879.767C29.0623 883.469 36.3362 885.899 43.9458 886.889C51.5554 887.88 59.3191 887.406 66.7003 885.503C74.0814 883.599 80.9044 880.31 86.6977 875.862C92.4911 871.415 97.1168 865.916 100.255 859.744C113.289 865.288 127.64 868.021 142.116 867.715C156.593 867.409 170.777 864.073 183.492 857.984C196.207 851.895 207.086 843.228 215.226 832.704C223.365 822.18 228.531 810.102 230.294 797.472C243.51 813.272 261.388 825.599 281.996 833.121C302.604 840.643 325.16 843.075 347.226 840.153C369.292 837.231 390.031 829.067 407.201 816.543C424.372 804.018 437.323 787.609 444.654 769.088C461.069 772.887 478.25 773.371 494.908 770.507C511.567 767.642 527.273 761.502 540.848 752.546C554.423 743.591 565.516 732.052 573.296 718.795C581.076 705.537 585.341 690.904 585.772 675.993C598.748 681.506 612.953 684.424 627.366 684.537C641.779 684.649 656.041 681.954 669.127 676.643C676.647 687.193 687.79 695.368 700.946 699.986C714.101 704.604 728.588 705.426 742.31 702.333C756.032 699.24 768.279 692.392 777.281 682.78C786.283 673.168 791.573 661.289 792.386 648.861C801.539 652.26 811.694 652.977 821.347 650.905C831 648.833 839.637 644.084 845.976 637.36C860.978 644.978 878.651 647.46 895.607 644.331C895.707 656.83 899.141 669.134 905.634 680.256C912.126 691.377 921.496 701.006 932.991 708.369C944.486 715.731 957.784 720.623 971.82 722.651C985.855 724.678 1000.24 723.785 1013.81 720.044C1013.48 721.846 1013.08 723.635 1012.88 725.488C1010.36 747.247 1016.79 769.08 1031 787.037C1045.21 804.995 1066.26 817.891 1090.35 823.393C1114.44 828.895 1139.97 826.64 1162.33 817.035C1184.69 807.431 1202.4 791.111 1212.26 771.028C1220.51 774.67 1229.5 776.843 1238.71 777.423C1247.92 778.003 1257.16 776.979 1265.92 774.409C1274.68 771.839 1282.77 767.774 1289.73 762.448C1296.7 757.121 1302.39 750.638 1306.5 743.371C1319.98 752.121 1336.58 756.343 1353.3 755.274C1370.01 754.204 1385.74 747.913 1397.64 737.539C1405.43 751.52 1416.52 763.882 1430.17 773.801C1443.82 783.72 1459.72 790.968 1476.81 795.063C1493.9 799.158 1511.79 800.005 1529.28 797.548C1546.77 795.091 1563.47 789.387 1578.25 780.815C1577.99 782.733 1577.86 784.664 1577.87 786.596C1577.86 793.105 1579.32 799.551 1582.15 805.566C1584.98 811.581 1589.13 817.046 1594.37 821.651C1599.6 826.255 1605.82 829.908 1612.66 832.401C1619.51 834.893 1626.84 836.177 1634.25 836.179C1641.81 836.196 1649.31 834.859 1656.27 832.249C1657.29 847.399 1663.76 861.872 1674.75 873.582C1685.74 885.291 1700.67 893.633 1717.4 897.405C1734.13 901.177 1751.79 900.184 1767.83 894.569C1783.88 888.955 1797.48 879.008 1806.68 866.164C1828.35 874.99 1852.55 877.877 1876.11 874.45C1899.68 871.022 1921.52 861.439 1938.8 846.947C1956.08 832.456 1968 813.728 1972.99 793.202C1977.99 772.677 1975.83 751.305 1966.81 731.87C1988.5 728.506 2008.15 718.533 2022.3 703.702C2036.46 688.871 2044.21 670.131 2044.2 650.776C2044.2 650.125 2044.2 649.524 2044.2 648.836L2051.6 0.5L-338.606 0.500209L-346 756.561C-346.004 769.902 -343.017 783.112 -337.21 795.438C-331.404 807.763 -322.89 818.963 -312.157 828.397C-301.424 837.831 -288.677 845.315 -274.652 850.421C-260.627 855.527 -245.595 858.155 -230.414 858.155Z" fill="#FFF8D2"/>
</svg>
