<svg width="63" height="49" viewBox="0 0 63 49" fill="none" xmlns="http://www.w3.org/2000/svg">
<path d="M59.5015 17.4451C57.4861 15.775 54.9274 14.9031 52.3115 14.9951C53.4915 11.9951 54.3115 8.56514 53.7615 5.50514C53.1615 2.19514 49.9115 0.415125 46.8215 0.0551255C43.9703 -0.196462 41.1095 0.417017 38.6121 1.81553C36.1148 3.21405 34.0969 5.33268 32.8215 7.89512C31.4715 5.89512 30.3315 3.75512 28.5015 2.17512C27.4156 1.20854 26.0882 0.554074 24.6603 0.281169C23.2324 0.00826439 21.7573 0.127122 20.3915 0.625133C14.5415 2.72513 13.2815 9.30513 15.8715 14.2751C12.6959 15.1072 9.69281 16.4953 7.00152 18.3751C4.00152 20.4751 1.1715 23.2651 0.291497 26.9351C-1.4485 34.2451 4.8615 41.3151 12.2915 40.8651C14.9242 40.7482 17.4102 39.6198 19.2315 37.7151C20.0239 40.4349 21.2642 43.0034 22.9015 45.3151C25.0515 48.2051 28.4515 49.0351 31.9015 48.4851C34.8283 47.9953 37.5119 46.5541 39.5367 44.3847C41.5615 42.2152 42.8144 39.4387 43.1015 36.4851C45.5395 37.8011 48.3286 38.3197 51.0766 37.9681C53.8246 37.6165 56.3934 36.4124 58.4215 34.5251C62.7715 30.3251 64.5815 21.8551 59.5015 17.4451Z" fill="#F5AE1E"/>
</svg>
