<svg width="77" height="61" viewBox="0 0 77 61" fill="none" xmlns="http://www.w3.org/2000/svg">
<path d="M68.9617 9.26061C66.2598 8.95468 63.9472 10.8589 62.1168 12.591C60.0774 14.5377 58.2705 16.7182 56.7321 19.0891C54.4961 13.8995 51.278 9.1921 47.2597 5.23298C45.8876 3.87618 44.4123 2.42932 42.6756 1.55336C39.1727 -0.222486 35.859 1.89296 34.1647 5.04481C32.4704 8.19665 32.2334 11.9529 32.2769 15.461C32.3199 18.7003 32.629 21.9546 32.3859 25.1757C30.8078 23.2046 28.8113 21.6154 26.5462 20.5272C24.2811 19.4391 21.8064 18.8803 19.3079 18.893C16.3554 18.9404 13.3201 19.9328 11.2228 22.0631C9.01123 24.3337 8.70129 27.5168 9.11954 30.5393C9.63083 34.326 10.5252 38.0736 11.309 41.8222C8.45165 40.831 5.21589 40.5585 2.86102 42.7324C0.216807 45.2024 0.0942205 49.0999 1.12958 52.3635C2.19049 55.8029 4.05244 59.5612 7.84437 60.3843C11.771 61.2455 15.6039 59.0783 19.0651 57.5642L31.2057 52.2682C33.1842 51.4063 35.1348 50.4571 37.1768 49.7598C39.0857 49.1548 40.943 48.3991 42.7316 47.4996C44.6071 46.5142 46.5416 45.6455 48.5242 44.8984C50.4447 44.1382 52.2385 43.2238 54.0829 42.2985C56.5618 41.0496 59.3556 40.4436 61.9367 39.4165C64.8663 38.2538 67.7307 36.9335 70.5176 35.4612C71.6346 34.8858 72.7196 34.2499 73.7678 33.5563C74.4767 33.1315 75.106 32.5854 75.6278 31.942C75.775 31.8058 75.8712 31.6224 75.9004 31.4223C76.8774 25.8173 75.5102 19.973 73.8032 14.6232C73.0232 12.2616 71.7414 9.57449 68.9617 9.26061ZM72.5837 17.1183C73.0168 18.6201 73.4018 20.1379 73.6957 21.6727C74.36 24.7017 74.4874 27.82 74.0719 30.8826C73.2291 31.9592 71.628 32.7161 70.4595 33.3673C68.2986 34.5698 66.0538 35.617 63.7907 36.5977C61.6626 37.5435 59.4849 38.3739 57.267 39.0855C55.8438 39.4925 54.4591 40.0221 53.1278 40.6682C51.451 41.5287 49.7953 42.3545 48.0549 43.0503C46.3146 43.7462 44.5013 44.4444 42.8042 45.3143C41.151 46.1897 39.4376 46.946 37.6767 47.5777C33.9499 48.8639 30.4087 50.5526 26.8128 52.1225L15.8699 56.8977C12.9607 58.1636 8.86668 59.9381 6.01809 57.4666C4.54354 56.182 3.70459 54.0541 3.08094 52.2459C2.42941 50.3505 2.10763 48.2468 2.78679 46.3198C3.04683 45.4856 3.52696 44.7405 4.17604 44.1637C4.82511 43.5869 5.61885 43.2 6.47283 43.0443C8.4346 42.7218 10.4454 43.4026 12.219 44.2115C12.8053 44.4792 13.7146 44.0288 13.5656 43.2906C12.8706 39.8284 12.1765 36.3679 11.4831 32.9091C10.9476 30.2346 10.2972 27.1502 11.6803 24.6485C12.9921 22.2735 15.8206 21.1136 18.3963 20.8646C21.0045 20.6363 23.6317 21.1476 25.9821 22.3411C28.6321 23.6617 30.83 25.7595 32.2846 28.3564C32.7 29.097 33.8531 28.7469 33.9708 27.9983C35.1025 21.6715 33.2341 15.1011 34.7911 8.85348C35.4837 6.03199 37.6543 1.78482 41.2122 2.99732C42.7974 3.51776 44.1345 4.86567 45.3439 6.00344C46.7572 7.33972 48.0761 8.77407 49.291 10.2957C51.9735 13.6823 54.1301 17.4581 55.686 21.4918C55.7545 21.6647 55.8706 21.8146 56.0204 21.9238C56.1703 22.0329 56.3475 22.0967 56.5313 22.1075C56.715 22.1184 56.8973 22.0758 57.0567 21.9849C57.2161 21.894 57.3458 21.7586 57.4304 21.5947C59.1228 18.7065 67.3426 6.68519 71.0334 12.8847C71.7203 14.2288 72.2362 15.6537 72.5685 17.1253L72.5837 17.1183Z" fill="white"/>
</svg>
