<svg width="50" height="50" viewBox="0 0 50 50" fill="none" xmlns="http://www.w3.org/2000/svg">
<path d="M48.8614 47.8386H44.7361V24.9904H46.8152C47.2186 24.9937 47.6186 24.9167 47.9923 24.7638C48.366 24.6109 48.706 24.3851 48.9928 24.0994C49.2795 23.8137 49.5074 23.4738 49.6633 23.0991C49.8191 22.7245 49.8999 22.3225 49.901 21.9163C49.9011 21.0875 49.5776 20.2919 49.0003 19.7013C48.423 19.1106 47.6381 18.7722 46.8152 18.7591H44.7361V8.37355C44.7361 7.53841 44.4066 6.73748 43.8202 6.14694C43.2338 5.55641 42.4384 5.22464 41.6091 5.22464C40.7797 5.22464 39.9844 5.55641 39.3979 6.14694C38.8115 6.73748 38.482 7.53841 38.482 8.37355V18.7591H35.2313C34.9949 17.9091 34.5019 17.1541 33.8204 16.5989C34.4478 15.921 34.8035 15.0329 34.8187 14.1064C34.774 13.1572 34.3681 12.2618 33.6852 11.606C33.0023 10.9502 32.0949 10.5843 31.1513 10.5843C30.2077 10.5843 29.3003 10.9502 28.6174 11.606C27.9345 12.2618 27.5286 13.1572 27.4839 14.1064C27.4991 15.0329 27.8548 15.921 28.4822 16.5989C27.8511 17.1686 27.415 17.9247 27.2364 18.7591H22.7645C22.522 17.9098 22.0267 17.1559 21.3454 16.5989C21.8391 16.0743 22.1693 15.4154 22.2951 14.7038C22.4209 13.9922 22.3369 13.2591 22.0533 12.5951C21.7697 11.9311 21.2991 11.3653 20.6997 10.9678C20.1002 10.5703 19.3982 10.3584 18.6804 10.3584C17.9626 10.3584 17.2606 10.5703 16.6611 10.9678C16.0617 11.3653 15.5911 11.9311 15.3075 12.5951C15.0239 13.2591 14.9399 13.9922 15.0657 14.7038C15.1915 15.4154 15.5217 16.0743 16.0154 16.5989C15.329 17.136 14.8551 17.9019 14.6788 18.7591H11.428V8.37355C11.4259 7.95676 11.3422 7.54448 11.1818 7.16025C11.0214 6.77601 10.7875 6.42734 10.4933 6.13417C10.1991 5.84099 9.85039 5.60906 9.46716 5.45157C9.08394 5.29409 8.67367 5.21416 8.25978 5.21635C7.85073 5.21628 7.44577 5.29832 7.06857 5.45768C6.69138 5.61705 6.34952 5.85052 6.06297 6.14448C5.77643 6.43845 5.55096 6.787 5.39974 7.16973C5.24853 7.55246 5.17459 7.96171 5.18227 8.37355V18.7591H3.09484C2.27426 18.7591 1.48729 19.0874 0.907051 19.6717C0.326812 20.256 0.000836517 21.0484 0.000836517 21.8748C0.000836517 22.7011 0.326812 23.4936 0.907051 24.0779C1.48729 24.6622 2.27426 24.9904 3.09484 24.9904H5.18227V47.8386H1.00742C0.870538 47.8418 0.73566 47.8725 0.610649 47.9287C0.485638 47.9849 0.372995 48.0657 0.279298 48.1662C0.185602 48.2668 0.112727 48.3851 0.0649173 48.5143C0.0171081 48.6435 -0.0046771 48.781 0.000836517 48.9187C0.00418092 49.1929 0.10938 49.4558 0.295696 49.6558C0.482013 49.8557 0.735934 49.9781 1.00742 49.9988H48.9192C49.2031 49.9946 49.4743 49.8797 49.6759 49.6783C49.8775 49.4769 49.9936 49.2046 50 48.9187C49.9627 48.6342 49.8291 48.3714 49.6216 48.1746C49.4142 47.9778 49.1457 47.8591 48.8614 47.8386ZM46.8565 20.8362C47.1419 20.8383 47.4152 20.9522 47.6185 21.1539C47.8218 21.3555 47.9392 21.629 47.9456 21.9163C47.9403 22.0542 47.9078 22.1897 47.85 22.3148C47.7922 22.4399 47.7102 22.5521 47.6088 22.6449C47.5074 22.7377 47.3886 22.8093 47.2594 22.8554C47.1303 22.9014 46.9933 22.9211 46.8565 22.9133H44.7361V20.8362H46.8565ZM11.4445 24.9904H14.5303V30.1417C14.5367 30.4275 14.6528 30.6998 14.8544 30.9012C15.056 31.1026 15.3272 31.2175 15.6111 31.2218V36.373C15.6174 36.6575 15.7325 36.9285 15.9323 37.1297C16.1321 37.3309 16.4012 37.4467 16.6837 37.4531H20.8091C21.0944 37.451 21.3678 37.3371 21.5711 37.1354C21.7744 36.9338 21.8917 36.6603 21.8982 36.373V31.2218C22.1821 31.2175 22.4533 31.1026 22.6549 30.9012C22.8565 30.6998 22.9726 30.4275 22.979 30.1417V24.9904H27.1043V30.1417C27.1075 30.2875 27.1394 30.4313 27.198 30.5646C27.2567 30.698 27.341 30.8184 27.4461 30.9188C27.5512 31.0192 27.675 31.0977 27.8103 31.1497C27.9457 31.2017 28.0899 31.2262 28.2347 31.2218V36.373C28.2379 36.6458 28.3419 36.9077 28.5265 37.1074C28.7111 37.3071 28.963 37.4304 29.233 37.4531H33.3996C33.685 37.451 33.9583 37.3371 34.1616 37.1354C34.365 36.9338 34.4823 36.6603 34.4887 36.373V31.2218C34.6249 31.2175 34.7589 31.1861 34.8829 31.1294C35.007 31.0726 35.1187 30.9917 35.2115 30.8913C35.3043 30.7909 35.3765 30.6729 35.4238 30.5442C35.471 30.4156 35.4926 30.2788 35.487 30.1417V24.9904H38.6553V47.8386H11.428L11.4445 24.9904ZM17.6986 31.2218H19.7777V35.376H17.6821L17.6986 31.2218ZM20.7761 19.8392V29.1446H16.6507V19.8392C16.7272 19.3436 16.9771 18.8918 17.3554 18.5655C17.7337 18.2392 18.2153 18.0599 18.7134 18.0599C19.2115 18.0599 19.6931 18.2392 20.0714 18.5655C20.4497 18.8918 20.6996 19.3436 20.7761 19.8392ZM30.0911 31.2218H32.1785V35.376H30.0911V31.2218ZM33.2594 19.8392V29.1446H29.134V19.8392C29.2105 19.3436 29.4604 18.8918 29.8387 18.5655C30.217 18.2392 30.6986 18.0599 31.1967 18.0599C31.6948 18.0599 32.1764 18.2392 32.5547 18.5655C32.9329 18.8918 33.1829 19.3436 33.2594 19.8392ZM38.5068 22.9133H35.3468V20.8362H38.5068V22.9133ZM29.5961 14.1064C29.5971 13.898 29.639 13.6918 29.7192 13.4997C29.7994 13.3076 29.9163 13.1333 30.0634 12.9867C30.2105 12.8401 30.3849 12.7241 30.5765 12.6454C30.7681 12.5667 30.9732 12.5267 31.1802 12.5278C31.389 12.5197 31.5971 12.5549 31.7919 12.6312C31.9866 12.7075 32.1637 12.8232 32.3122 12.9712C32.4607 13.1191 32.5774 13.2963 32.6552 13.4915C32.733 13.6868 32.7701 13.8961 32.7643 14.1064C32.7632 14.3148 32.7214 14.5209 32.6412 14.713C32.561 14.9051 32.444 15.0795 32.2969 15.2261C32.1498 15.3726 31.9755 15.4886 31.7839 15.5674C31.5923 15.6461 31.3871 15.6861 31.1802 15.685C30.768 15.6689 30.3767 15.4979 30.0835 15.2057C29.7903 14.9135 29.6164 14.5213 29.5961 14.1064ZM27.0136 22.9133H22.8882V20.8362H27.0136V22.9133ZM17.1128 14.1064C17.1095 13.7902 17.1996 13.4801 17.3717 13.2156C17.5437 12.9511 17.79 12.7441 18.0792 12.6208C18.3683 12.4975 18.6873 12.4635 18.9957 12.5232C19.3041 12.5828 19.5879 12.7334 19.8111 12.9559C20.0343 13.1783 20.1868 13.4625 20.2493 13.7724C20.3117 14.0823 20.2814 14.4039 20.162 14.6963C20.0426 14.9888 19.8395 15.2389 19.5787 15.4149C19.3178 15.591 19.0109 15.6849 18.6969 15.685C18.2818 15.6729 17.8865 15.5038 17.5898 15.2112C17.2931 14.9185 17.1169 14.524 17.0963 14.1064H17.1128ZM14.5303 20.8362V22.9133H11.428V20.8362H14.5303ZM3.01234 22.9133C2.74074 22.9143 2.47873 22.8122 2.27845 22.6275C2.07817 22.4427 1.95431 22.1888 1.9315 21.9163C1.93787 21.6304 2.05405 21.3582 2.25561 21.1568C2.45716 20.9553 2.72841 20.8404 3.01234 20.8362H5.13276V22.9133H3.01234ZM7.13768 47.8386V8.37355C7.16137 8.10023 7.28594 7.84578 7.48679 7.6604C7.68764 7.47503 7.9502 7.37219 8.22265 7.37219C8.4951 7.37219 8.75766 7.47503 8.95851 7.6604C9.15936 7.84578 9.28392 8.10023 9.30761 8.37355V47.8386H7.13768ZM40.553 47.8386V8.37355C40.5593 8.08767 40.6755 7.81542 40.8771 7.614C41.0786 7.41259 41.3499 7.29769 41.6338 7.29346C41.7703 7.29663 41.9049 7.32728 42.0294 7.38363C42.154 7.43997 42.2661 7.52085 42.3592 7.62151C42.4522 7.72217 42.5243 7.84058 42.5712 7.96974C42.618 8.0989 42.6388 8.23619 42.6321 8.37355V47.8386H40.553Z" fill="white"/>
<path d="M24.4332 38.5338C23.7167 38.5404 23.0181 38.7604 22.4254 39.1661C21.8328 39.5717 21.3726 40.1449 21.1029 40.8135C20.8332 41.482 20.766 42.216 20.9098 42.9229C21.0535 43.6298 21.4019 44.2781 21.9109 44.7861C22.4199 45.294 23.0668 45.6389 23.7701 45.7773C24.4733 45.9157 25.2016 45.8414 25.863 45.5637C26.5244 45.2861 27.0895 44.8175 27.4869 44.2171C27.8844 43.6166 28.0965 42.9112 28.0965 42.1896C28.0966 41.7067 28.0016 41.2286 27.8171 40.7829C27.6326 40.3372 27.3622 39.9327 27.0216 39.5928C26.681 39.2529 26.2769 38.9843 25.8326 38.8025C25.3884 38.6208 24.9127 38.5295 24.4332 38.5338ZM24.4332 43.6851C24.1235 43.6834 23.8213 43.5895 23.5646 43.415C23.3079 43.2406 23.1082 42.9934 22.9908 42.7048C22.8734 42.4163 22.8436 42.0991 22.905 41.7934C22.9664 41.4878 23.1164 41.2073 23.3359 40.9873C23.5555 40.7674 23.8348 40.6179 24.1387 40.5576C24.4425 40.4974 24.7573 40.5291 25.0433 40.6489C25.3293 40.7686 25.5736 40.9709 25.7455 41.2303C25.9174 41.4897 26.0091 41.7946 26.0091 42.1065C26.0069 42.5259 25.84 42.9274 25.5447 43.2232C25.2494 43.519 24.8498 43.6851 24.4332 43.6851Z" fill="white"/>
<path d="M35.3479 6.29763C35.7614 6.29981 36.1713 6.21983 36.554 6.06225C36.9368 5.90467 37.2849 5.67259 37.5785 5.37931C37.872 5.08602 38.1052 4.73728 38.2647 4.3531C38.4242 3.96891 38.5068 3.55683 38.5079 3.14043C38.5063 2.51941 38.3223 1.91274 37.9791 1.39674C37.636 0.880743 37.149 0.478443 36.5794 0.240436C36.0097 0.0024279 35.383 -0.0606486 34.7779 0.0591195C34.1727 0.178888 33.6163 0.476174 33.1785 0.913569C32.7407 1.35096 32.4411 1.90892 32.3174 2.51732C32.1938 3.12572 32.2515 3.75736 32.4833 4.33281C32.7152 4.90827 33.1109 5.40184 33.6206 5.75145C34.1303 6.10105 34.7312 6.29107 35.3479 6.29763ZM35.3479 2.14341C35.619 2.14434 35.8799 2.24704 36.0798 2.43142C36.2797 2.61579 36.4041 2.8686 36.4287 3.14043C36.4224 3.4263 36.3062 3.69855 36.1046 3.89997C35.9031 4.10139 35.6318 4.21629 35.3479 4.22052C35.211 4.21732 35.0761 4.1867 34.9511 4.13045C34.8261 4.07421 34.7135 3.99349 34.6198 3.89295C34.5261 3.79241 34.4532 3.67407 34.4054 3.54487C34.3576 3.41567 34.3358 3.27819 34.3413 3.14043C34.3477 2.87517 34.4564 2.62281 34.6442 2.43674C34.8321 2.25068 35.0844 2.14548 35.3479 2.14341Z" fill="white"/>
<path d="M15.0356 8.37524C15.5404 8.37032 16.0324 8.2151 16.4498 7.92912C16.8671 7.64313 17.1911 7.23916 17.3809 6.76812C17.5707 6.29708 17.6178 5.78001 17.5163 5.28204C17.4149 4.78408 17.1694 4.32747 16.8107 3.96975C16.452 3.61203 15.9962 3.3692 15.5008 3.27182C15.0053 3.17444 14.4923 3.22688 14.0264 3.42253C13.5605 3.61819 13.1625 3.9483 12.8825 4.3713C12.6026 4.79431 12.4531 5.29128 12.4531 5.79962C12.4596 6.485 12.7346 7.14007 13.2182 7.62239C13.7018 8.10471 14.3549 8.37528 15.0356 8.37524ZM15.0356 5.30111C15.1335 5.30111 15.2292 5.33036 15.3106 5.38514C15.392 5.43991 15.4555 5.51776 15.4929 5.60885C15.5304 5.69994 15.5402 5.80018 15.5211 5.89688C15.502 5.99359 15.4549 6.08239 15.3856 6.15211C15.3164 6.22183 15.2282 6.26931 15.1322 6.28855C15.0361 6.30778 14.9366 6.29791 14.8461 6.26018C14.7557 6.22245 14.6784 6.15856 14.624 6.07658C14.5696 5.9946 14.5405 5.89822 14.5405 5.79962C14.5382 5.73353 14.5495 5.66767 14.5735 5.60614C14.5976 5.5446 14.634 5.48872 14.6804 5.44196C14.7268 5.3952 14.7823 5.35856 14.8435 5.33433C14.9046 5.3101 14.97 5.29879 15.0356 5.30111Z" fill="white"/>
<path d="M11.4285 4.22066C11.565 4.2175 11.6995 4.18684 11.8241 4.1305C11.9487 4.07416 12.0608 3.99328 12.1538 3.89262C12.2469 3.79195 12.319 3.67355 12.3659 3.54439C12.4127 3.41523 12.4335 3.27793 12.4268 3.14058C12.4225 2.87607 12.3157 2.62373 12.1292 2.43745C11.9427 2.25117 11.6912 2.14569 11.4285 2.14355C11.1489 2.16101 10.8851 2.28018 10.6863 2.47888C10.4875 2.67758 10.3671 2.94224 10.3477 3.22364C10.3705 3.49618 10.4943 3.75009 10.6946 3.93483C10.8949 4.11958 11.1569 4.22163 11.4285 4.22066Z" fill="white"/>
<path d="M29.0926 7.37648C29.6895 7.37648 30.1734 6.89292 30.1734 6.2964C30.1734 5.69987 29.6895 5.21631 29.0926 5.21631C28.4956 5.21631 28.0117 5.69987 28.0117 6.2964C28.0117 6.89292 28.4956 7.37648 29.0926 7.37648Z" fill="white"/>
<path d="M45.7605 4.22087C46.0445 4.21664 46.3157 4.10175 46.5173 3.90033C46.7188 3.69891 46.835 3.42666 46.8414 3.14078C46.8372 3.00327 46.8057 2.86799 46.7487 2.74293C46.6918 2.61788 46.6106 2.50558 46.5098 2.41265C46.4091 2.31973 46.2909 2.24806 46.1622 2.20187C46.0335 2.15569 45.8969 2.13593 45.7605 2.14376C45.4889 2.14279 45.2269 2.24485 45.0266 2.42959C44.8264 2.61434 44.7025 2.86824 44.6797 3.14078C44.6992 3.42218 44.8195 3.68685 45.0183 3.88555C45.2172 4.08424 45.4809 4.20342 45.7605 4.22087Z" fill="white"/>
<path d="M22.8467 10.4517C23.1178 10.4508 23.3788 10.3481 23.5786 10.1637C23.7785 9.97935 23.9029 9.72654 23.9276 9.45471C23.9476 9.2343 23.9008 9.01296 23.7936 8.81979C23.6863 8.62661 23.5235 8.47064 23.3266 8.37237C23.1297 8.27409 22.9078 8.2381 22.6902 8.26914C22.4726 8.30019 22.2694 8.39683 22.1073 8.54633C21.9453 8.69583 21.8319 8.89121 21.7822 9.10678C21.7324 9.32236 21.7486 9.54804 21.8286 9.75418C21.9086 9.96033 22.0487 10.1373 22.2304 10.2618C22.4121 10.3863 22.627 10.4525 22.8467 10.4517Z" fill="white"/>
<path d="M3.01443 10.4531C3.28604 10.4541 3.54804 10.352 3.74832 10.1673C3.9486 9.98253 4.07246 9.72862 4.09527 9.45608C4.09527 9.16742 3.9814 8.89058 3.7787 8.68647C3.576 8.48235 3.30109 8.36768 3.01443 8.36768C2.72778 8.36768 2.45286 8.48235 2.25016 8.68647C2.04747 8.89058 1.93359 9.16742 1.93359 9.45608C1.98233 9.71767 2.11404 9.95628 2.30893 10.1361C2.50383 10.3158 2.75139 10.4271 3.01443 10.4531Z" fill="white"/>
</svg>
