<svg width="1728" height="1420" viewBox="0 0 1728 1420" fill="none" xmlns="http://www.w3.org/2000/svg">
<path d="M1798.59 62.1501C1789.87 62.1477 1781.19 63.1291 1772.76 65.0704C1765.99 48.0289 1753.94 32.9837 1737.98 21.6254C1722.01 10.2671 1702.76 3.04569 1682.38 0.77268C1662 -1.50034 1641.31 1.2651 1622.62 8.75824C1603.93 16.2514 1587.99 28.1753 1576.59 43.1901C1570.95 39.9426 1564.56 37.8109 1557.89 36.9423C1551.21 36.0736 1544.4 36.4887 1537.93 38.1589C1531.45 39.8291 1525.46 42.7145 1520.38 46.6159C1515.3 50.5173 1511.24 55.3417 1508.49 60.7558C1497.05 55.8919 1484.46 53.4948 1471.76 53.7634C1459.06 54.032 1446.62 56.9586 1435.46 62.3002C1424.31 67.6418 1414.76 75.2443 1407.62 84.4768C1400.48 93.7092 1395.95 104.305 1394.4 115.385C1382.8 101.524 1367.12 90.7101 1349.04 84.1112C1330.96 77.5123 1311.17 75.3792 1291.81 77.9423C1272.45 80.5055 1254.26 87.6674 1239.19 98.6545C1224.13 109.642 1212.77 124.037 1206.33 140.284C1191.93 136.952 1176.86 136.527 1162.24 139.04C1147.63 141.553 1133.85 146.94 1121.94 154.796C1110.03 162.652 1100.3 172.775 1093.47 184.405C1086.65 196.035 1082.91 208.872 1082.53 221.954C1071.14 217.117 1058.68 214.557 1046.04 214.458C1033.39 214.359 1020.88 216.724 1009.4 221.383C1002.8 212.128 993.023 204.957 981.482 200.905C969.94 196.854 957.231 196.133 945.192 198.846C933.153 201.56 922.408 207.567 914.511 215.999C906.613 224.432 901.972 234.852 901.258 245.755C893.228 242.773 884.318 242.145 875.85 243.962C867.381 245.779 859.804 249.946 854.242 255.844C841.081 249.161 825.575 246.984 810.699 249.729C810.611 238.764 807.598 227.97 801.902 218.214C796.206 208.457 787.985 200.01 777.901 193.551C767.816 187.092 756.149 182.801 743.835 181.022C731.521 179.244 718.904 180.027 706.997 183.309C707.284 181.728 707.634 180.158 707.809 178.533C710.019 159.445 704.381 140.292 691.916 124.539C679.45 108.785 660.98 97.4719 639.846 92.6451C618.712 87.8183 596.31 89.7966 576.692 98.2223C557.074 106.648 541.536 120.965 532.887 138.583C525.649 135.388 517.765 133.482 509.686 132.973C501.607 132.464 493.493 133.362 485.811 135.617C478.129 137.871 471.029 141.437 464.92 146.11C458.81 150.783 453.812 156.47 450.212 162.845C438.383 155.169 423.819 151.465 409.152 152.403C394.486 153.342 380.686 158.86 370.248 167.961C363.415 155.696 353.687 144.852 341.71 136.15C329.733 127.449 315.783 121.09 300.79 117.498C285.796 113.906 270.104 113.162 254.758 115.318C239.412 117.473 224.765 122.477 211.794 129.997C212.026 128.315 212.139 126.621 212.131 124.925C212.134 119.215 210.857 113.56 208.373 108.284C205.889 103.007 202.246 98.2127 197.652 94.1735C193.059 90.1343 187.605 86.9298 181.602 84.7429C175.599 82.5561 169.164 81.4298 162.666 81.4284C156.027 81.4139 149.455 82.5868 143.349 84.8756C142.45 71.5852 136.771 58.889 127.131 48.6166C117.492 38.3442 104.39 31.0263 89.7131 27.7174C75.0363 24.4085 59.5428 25.2795 45.4655 30.2049C31.3883 35.1304 19.4541 43.8558 11.3832 55.1238C-7.62996 47.381 -28.8559 44.8481 -49.5305 47.8549C-70.2051 50.8618 -89.3702 59.2691 -104.53 71.9819C-119.69 84.6947 -130.142 101.124 -134.525 119.13C-138.908 137.136 -137.019 155.885 -129.104 172.934C-148.134 175.885 -165.372 184.635 -177.789 197.645C-190.206 210.656 -197.007 227.095 -196.998 244.075C-196.998 244.646 -196.998 245.173 -196.998 245.777L-197 1419.5L1900 1419.5L1900 151.274C1900 139.571 1897.38 127.982 1892.29 117.169C1887.19 106.356 1879.72 96.5313 1870.31 88.2551C1860.89 79.9789 1849.71 73.4138 1837.41 68.9346C1825.1 64.4555 1811.91 62.1501 1798.59 62.1501Z" fill="#00AC76"/>
</svg>
