<svg width="118" height="99" viewBox="0 0 118 99" fill="none" xmlns="http://www.w3.org/2000/svg">
<path d="M117.671 42.0717C116.618 38.8762 113.31 37.989 110.437 37.1811C103.201 35.1436 95.6984 34.2555 88.1948 34.5483C86.9501 34.5988 85.6982 34.6997 84.4534 34.8151C83.6862 33.427 82.8185 32.0985 81.8573 30.8406C80.1502 28.6766 77.9167 27.1835 75.6264 25.6903C73.336 24.1972 71.195 22.5021 68.7695 21.4129C66.344 20.3237 63.7407 20.8069 61.1232 20.9079C60.4119 20.9079 59.6579 20.9656 58.9324 21.0161C58.8039 20.8907 58.648 20.7979 58.4775 20.7453C58.3069 20.6926 58.1264 20.6816 57.9508 20.7132C52.9287 21.5001 48.0794 23.1646 43.6184 25.6326C39.3151 28.0202 34.9051 31.1724 32.1595 35.3634C29.7408 39.2678 28.1427 43.6363 27.465 48.1958C20.7613 50.3419 14.416 53.5034 8.64426 57.5731C3.8644 60.9417 -0.872752 65.7025 0.137278 72.079C0.313962 73.418 0.822143 74.6898 1.61443 75.7758C2.40671 76.8618 3.45728 77.7266 4.66818 78.2896C7.80497 79.6818 11.6104 79.2562 14.9534 79.2778C22.7776 79.3428 30.6018 79.4726 38.426 79.3356H39.2866C42.5853 81.4414 46.1538 83.0773 49.8919 84.1973C54.686 85.7337 59.85 86.5921 64.8717 85.9646C69.6824 85.3761 74.2038 83.3212 77.8385 80.0713C80.7286 77.4317 83.2189 74.374 85.2288 70.997C90.5511 68.836 95.6916 66.2403 100.6 63.2355C103.54 61.4147 106.389 59.4455 109.135 57.335C111.725 55.5146 113.989 53.2579 115.828 50.6627C117.443 48.2463 118.595 44.9715 117.671 42.0717ZM6.4962 74.7407C3.47322 73.1754 3.02509 69.5616 4.42633 66.669C5.89158 63.6322 8.81497 61.4106 11.4894 59.5207C16.1781 56.2309 21.4252 53.8466 26.9671 52.4877C26.6757 56.972 27.3129 61.4685 28.8378 65.688C30.1898 69.3769 32.2633 72.7506 34.9335 75.6063C31.2633 75.7939 27.5883 75.9092 23.9085 75.9525C20.6935 75.991 17.4785 75.991 14.2635 75.9525C11.6886 75.8804 8.84346 75.9597 6.46065 74.7407H6.4962ZM87.5831 49.4365C87.7895 50.5954 87.9249 51.7662 87.9886 52.9421C87.8834 52.8267 87.7513 52.7399 87.6044 52.6897C87.2488 48.2653 86.172 43.9314 84.4179 39.8644C84.0693 39.0566 83.7066 38.227 83.2798 37.3975C85.3149 41.1593 86.755 45.2217 87.5476 49.4365H87.5831ZM82.725 64.3391C83.166 63.2283 83.5667 62.1054 83.9271 60.9705C83.856 61.6269 83.7564 62.2834 83.6355 62.9326C83.2869 63.4303 82.9882 63.8919 82.6895 64.3391H82.725ZM47.253 31.2229C48.037 30.6955 48.8571 30.2254 49.707 29.8163C49.7845 29.987 49.9047 30.1341 50.0557 30.2429C50.2067 30.3518 50.3832 30.4186 50.5676 30.4367L48.6685 33.8486L47.6798 34.5699C46.7646 35.2047 45.8447 35.8274 44.92 36.4381C44.7856 36.2211 44.6333 36.016 44.4648 35.825C44.3932 35.7452 44.3059 35.6813 44.2087 35.6375C44.7579 34.3015 45.4751 33.0432 46.3426 31.8938L46.3782 31.8505C46.6271 31.6197 46.9187 31.4177 47.253 31.2229ZM76.0033 71.8554L75.6264 71.9708L75.7828 71.6029L76.2523 71.4659C76.1385 71.5957 76.046 71.7616 75.9678 71.8554H76.0033ZM73.3502 32.24L73.649 32.8459C73.0515 32.5862 72.454 32.3338 71.8565 32.0885L72.7385 32.2905C72.9318 32.3215 73.1295 32.3041 73.3147 32.24H73.3502ZM38.8527 70.319L38.9025 70.4127C38.4488 70.1439 38.0445 69.7974 37.7076 69.3885C37.7828 69.4186 37.8618 69.438 37.9422 69.4461H38.2055C38.441 69.7214 38.6573 70.0131 38.8527 70.319ZM53.2563 30.4728L53.0074 30.6603L53.1141 30.4655L53.2563 30.4728ZM74.282 35.6447C74.6092 35.825 74.9364 36.0054 75.2494 36.2001C75.4983 36.7267 75.7473 37.2605 75.9606 37.7942L76.7715 42.6993C76.5203 42.5344 76.236 42.4285 75.9393 42.3891C75.5648 41.0181 74.979 39.7157 74.2038 38.53C73.8624 37.9962 73.4925 37.4913 73.1013 36.9936C73.2009 36.701 73.3564 36.4312 73.559 36.1998C73.7617 35.9683 74.0073 35.7796 74.282 35.6447ZM73.9904 58.0059C73.8055 58.4459 73.6276 58.8859 73.4356 59.3187C72.9092 60.5522 72.3473 61.764 71.7925 62.9758L72.2406 61.4755C73.713 56.6498 75.2209 51.8457 76.7217 47.0489C76.8071 47.3735 76.8996 47.6981 76.9707 48.0227C76.7794 49.2381 76.5229 50.4422 76.2025 51.6293C75.918 52.6753 75.5837 53.6995 75.228 54.7238C74.8724 55.7481 74.3674 56.9167 73.969 58.0131L73.9904 58.0059ZM48.1777 41.0546C50.8127 37.5739 53.6788 34.2794 56.7558 31.1941C57.1897 31.4538 57.6378 31.6918 58.086 31.9154C54.0562 35.737 50.2894 39.8341 46.812 44.178C46.8974 43.738 46.9899 43.298 47.0752 42.858L47.3526 42.2015C47.6087 41.8265 47.8719 41.4658 48.1564 41.0619L48.1777 41.0546ZM64.1959 61.9732C64.5303 61.1004 64.9072 60.2348 65.2131 59.3692C65.2699 59.2436 65.2994 59.107 65.2994 58.9689C65.2994 58.8307 65.2699 58.6941 65.2131 58.5685C65.564 57.4384 65.9291 56.3132 66.3084 55.1927C66.3084 55.1278 66.3796 55.0701 66.408 55.0052C66.1733 56.5127 65.6968 58.2511 66.1164 59.7731L63.0437 68.5877L62.3324 70.6436C62.3679 70.3983 62.3964 70.1531 62.432 69.9222C62.8732 67.2359 63.4549 64.5753 64.1746 61.9516L64.1959 61.9732ZM40.8514 56.0006C40.8514 55.8563 40.8514 55.712 40.8159 55.5678L40.9723 55.3586C40.9723 55.5822 40.887 55.7986 40.8586 56.015L40.8514 56.0006ZM58.5056 58.1069C58.5412 57.8688 58.5839 57.6236 58.6194 57.3855C58.8541 56.758 59.0889 56.1304 59.3307 55.5101L58.4132 58.7128C58.4274 58.5108 58.4487 58.3088 58.4843 58.1069H58.5056ZM61.7847 44.7046C61.4504 45.3898 61.109 46.0823 60.7818 46.7748C60.8813 46.3708 60.9738 45.9669 61.0805 45.5629C61.1166 45.4251 61.1252 45.2813 61.1057 45.1401C61.0861 44.9989 61.0389 44.863 60.9667 44.7406C61.7776 43.4927 62.6098 42.2593 63.4918 41.0619L63.3637 41.5091L61.7847 44.7046ZM58.5981 40.4415C58.8328 39.8933 59.0747 39.3523 59.3094 38.8041L59.8357 38.3064C59.4232 39.0277 58.9964 39.7346 58.5767 40.4415H58.5981ZM51.727 61.8361C52.1634 60.7213 52.6719 59.637 53.2492 58.5901C53.3701 58.3737 53.5124 58.1645 53.6404 57.9481C53.1781 60.7469 52.7868 63.5601 51.5065 66.0848L51.3074 65.9693C51.4141 64.5844 51.5208 63.2066 51.7057 61.8361H51.727ZM69.4381 52.5743C69.1963 53.4254 68.9473 54.2694 68.6628 55.1061C68.6628 54.9114 68.7197 54.7166 68.7553 54.5291C69.0327 52.8123 69.3599 51.0955 69.7227 49.3932C69.7227 49.3211 69.7226 49.2489 69.7724 49.1768C69.6586 50.3093 69.5448 51.4418 69.4168 52.5743H69.4381ZM60.6964 34.4905L61.173 33.7187C61.3294 33.8197 61.4859 33.9207 61.6282 34.0289C61.2877 34.1288 60.9657 34.2848 60.6751 34.4905H60.6964ZM51.1651 68.595L51.3358 68.7104C51.4381 68.783 51.5542 68.8333 51.6766 68.8581C51.799 68.8829 51.9252 68.8817 52.0471 68.8546C51.9262 69.172 51.8053 69.4894 51.6702 69.7996C51.535 70.1098 51.3287 70.6219 51.1367 71.0691C51.1154 70.2468 51.1367 69.4173 51.1651 68.595ZM54.0956 40.9176C53.7044 41.3504 53.3203 41.7904 52.9362 42.2376C53.2634 41.55 53.5025 40.8228 53.6475 40.0736C53.665 39.9396 53.665 39.8038 53.6475 39.6697C54.7216 38.4867 55.8312 37.3254 56.9621 36.1929C55.9948 37.7582 55.0345 39.3018 54.0956 40.9176ZM47.253 53.5986C46.4267 55.3726 45.6954 57.1906 45.0623 59.0446C45.1429 58.3184 45.214 57.5971 45.2756 56.8806C45.8873 55.7625 46.5418 54.6733 47.253 53.5986ZM72.6603 41.1701C72.5749 41.4586 72.4896 41.7543 72.4113 42.0501C72.4113 41.372 72.4611 40.6868 72.4824 39.9871C72.6247 40.2251 72.7598 40.4704 72.895 40.7084C72.7711 40.838 72.6807 40.9966 72.6318 41.1701H72.6603ZM64.1959 48.6791C64.7365 47.1787 65.3056 45.6784 65.8959 44.1924C66.3796 42.995 66.8633 41.8048 67.4181 40.6363L68.1293 41.6173C66.6613 43.8777 65.3471 46.2371 64.1959 48.6791ZM68.0582 35.1398V35.1758L68.0156 35.2191C68.0156 35.2191 68.0582 35.1758 68.0582 35.147V35.1398ZM66.1306 34.2525C65.9884 34.404 65.8532 34.5627 65.711 34.7214C64.7659 33.6646 63.7093 32.7164 62.56 31.8938C63.9454 32.4627 65.2724 33.1681 66.5219 34C66.3745 34.0534 66.2408 34.1397 66.1306 34.2525ZM70.0925 37.6211C70.0925 37.9169 70.1352 38.2198 70.1494 38.5228C70.1068 38.6382 70.0641 38.7608 70.0285 38.8762C69.9734 38.9237 69.9233 38.9769 69.8791 39.0349L69.4594 39.6264C69.1821 39.2225 68.8905 38.8185 68.6059 38.4218C68.8478 38.0251 69.1038 37.6428 69.3812 37.2749C69.5021 37.109 69.6586 36.9575 69.7724 36.7844L69.8293 36.7195L69.9502 36.8421C70.0143 37.1378 70.0783 37.5201 70.0925 37.6355V37.6211ZM71.6004 35.1037C71.3326 34.6613 70.9234 34.3253 70.441 34.1515L69.9502 33.7043C70.6615 33.964 71.3728 34.2309 72.0841 34.5338C71.9105 34.7177 71.7489 34.9129 71.6004 35.1181V35.1037ZM41.9184 45.9164C41.833 46.0462 41.7548 46.1761 41.6765 46.3059C42.1916 44.4308 42.8407 42.5962 43.6184 40.8166C43.6184 41.4947 43.6184 42.1727 43.6184 42.8508L41.9184 45.9164ZM38.4473 48.8811C38.4496 48.8643 38.4496 48.8473 38.4473 48.8306C38.4473 48.7729 38.4473 48.7152 38.4971 48.6575C38.4686 48.744 38.4615 48.8161 38.4473 48.8883V48.8811ZM47.8221 67.2461L47.8647 67.3543C47.685 68.4835 47.5757 69.623 47.5376 70.7662C47.1754 70.0896 46.921 69.3593 46.7836 68.6022C47.1715 68.1872 47.5192 67.7356 47.8221 67.2533V67.2461ZM45.7735 38.9772C45.7735 38.8474 45.7309 38.7247 45.7024 38.5949L46.1577 38.292L45.7735 38.9772ZM44.1874 68.9989C44.3136 69.1102 44.4549 69.2025 44.6071 69.273C44.7862 70.2062 45.1103 71.1046 45.5673 71.9347C46.1409 72.9312 46.8604 73.8335 47.7012 74.6109L46.4635 74.7335C45.7567 73.7561 45.2202 72.6631 44.8773 71.5019C44.5857 70.6508 44.351 69.7852 44.166 68.9196C44.1747 68.948 44.1819 68.9769 44.1874 69.0061V68.9989ZM54.1454 76.0968L55.0701 75.9597V76.0896L54.1241 76.1906L54.1454 76.0968ZM68.8406 78.0732C68.9189 77.8713 68.9971 77.6693 69.0683 77.4673C69.5946 77.0345 70.1068 76.5873 70.6047 76.1329C70.5478 76.5801 70.4908 77.0273 70.4482 77.4745C69.8791 77.7558 69.303 78.0155 68.7268 78.268C68.7835 78.2114 68.8336 78.1485 68.8762 78.0805L68.8406 78.0732ZM77.4899 68.696C77.6149 68.5341 77.7312 68.3655 77.8385 68.191L77.6535 68.6455L77.4899 68.696ZM76.8426 62.3266C76.0318 64.5772 75.2138 66.8133 74.3247 69.0278L74.1042 69.2658C74.972 65.45 76.0887 61.6991 77.3192 57.9842C77.3192 58.4243 77.2552 58.8715 77.2268 59.3115C77.1627 60.0328 77.1343 60.8551 77.0845 61.6486C77.0347 61.8794 76.9565 62.103 76.8782 62.3266H76.8426ZM74.3247 74.7263L75.1 74.5026C75.1195 74.5436 75.1433 74.5824 75.1711 74.6181L74.0117 75.3394C74.154 75.1591 74.282 74.9427 74.3602 74.7263H74.3247ZM78.9338 65.2697C79.0975 64.2904 79.2115 63.3033 79.2753 62.3122C79.7589 60.9561 80.2213 59.5928 80.6481 58.215C80.4489 59.1816 80.2497 60.1482 80.0364 61.1003C79.7163 62.5286 79.3606 63.9208 78.9338 65.2697ZM35.4172 43.7236C36.0897 42.5887 36.821 41.4907 37.608 40.4343L37.4586 40.8166C36.982 42.0645 36.541 43.334 36.1285 44.6108C35.5462 45.384 34.9242 46.1256 34.2649 46.8325C34.3574 46.2699 34.4783 45.7144 34.6134 45.1662C34.8837 44.6252 35.1967 44.1131 35.4172 43.738V43.7236ZM53.612 78.4772C54.2379 78.7801 54.8709 79.0615 55.5111 79.3356C54.6361 79.1302 53.7759 78.8652 52.9362 78.5421L53.612 78.4772ZM83.2656 48.3401C82.9112 48.9327 82.6429 49.5741 82.4689 50.2444C82.4491 50.3035 82.4324 50.3637 82.4192 50.4247C82.4689 50.028 82.5259 49.6312 82.5614 49.2273C82.6136 48.6743 82.6491 48.1117 82.6681 47.5394C82.6841 47.4875 82.696 47.4345 82.7037 47.3807C82.7641 46.5864 82.7783 45.7891 82.7464 44.9931C82.9384 46.1328 83.102 47.2364 83.2656 48.3545V48.3401ZM66.1093 27.0392C64.176 26.8062 62.2247 26.7675 60.2839 26.9238C60.2073 26.7507 60.0927 26.5975 59.949 26.476C59.8052 26.3545 59.636 26.2679 59.4543 26.2227C59.2725 26.1775 59.083 26.1749 58.9001 26.2151C58.7173 26.2554 58.5458 26.3374 58.3989 26.455L58.0148 26.7651C56.4291 26.4751 54.814 26.3855 53.2065 26.4982C54.8356 25.815 56.5576 25.3869 58.3136 25.2287C60.0811 25.2094 61.8435 25.4252 63.5558 25.8707C63.9968 26.0149 64.4307 26.1664 64.8717 26.3323L67.0695 27.1691C66.7495 27.1114 66.4578 27.0392 66.1093 27.0392ZM33.9662 50.028C34.148 50.0074 34.3218 49.9404 34.4712 49.8332C34.2934 50.3742 34.1369 50.9152 33.9875 51.4562C33.9685 50.9705 33.9614 50.4896 33.9662 50.0135V50.028ZM40.6879 74.0987C40.9851 73.8969 41.2293 73.6245 41.3991 73.3053C41.4004 73.2788 41.4004 73.2524 41.3991 73.2259C41.9396 73.8725 42.5142 74.489 43.1204 75.0725L41.8046 75.1735C41.4418 74.8056 41.0648 74.4449 40.6879 74.0843V74.0987ZM35.1185 37.9674L35.1825 37.8303C36.1032 35.9171 37.3397 34.1777 38.8385 32.6872C39.0305 32.5069 39.2368 32.341 39.436 32.1679C37.7687 33.9097 36.3187 35.8526 35.1185 37.9529V37.9674ZM31.7327 51.1749C31.7594 52.922 31.9983 54.659 32.444 56.3468C32.5634 56.7873 32.7304 57.213 32.9419 57.6164C32.885 58.3954 32.8637 59.1744 32.8708 59.9535C32.7997 60.6027 32.757 61.2519 32.7498 61.9011C31.4558 58.4551 31.0328 54.7354 31.5193 51.0811C31.5456 50.9873 31.5576 50.89 31.5549 50.7926C31.6118 50.3526 31.6758 49.9125 31.7398 49.4725C31.7327 50.0135 31.7185 50.5834 31.7327 51.1605V51.1749ZM32.821 69.0134C30.6359 65.0976 29.3976 60.7121 29.2076 56.217C29.3827 58.6753 29.9546 61.0878 30.9005 63.3581C31.4869 64.7298 32.2014 66.0414 33.0344 67.275C33.0344 67.3543 33.0344 67.4264 33.0344 67.5058C33.4524 68.9218 34.1493 70.2371 35.0829 71.3721C36.1891 72.7989 37.4045 74.135 38.7176 75.3683L38.0063 75.4188C35.943 73.581 34.1913 71.4122 32.821 68.9989V69.0134ZM48.3413 78.9388C48.6187 79.0975 48.9032 79.2562 49.1877 79.4005C50.1817 79.9054 51.2028 80.3533 52.2463 80.7422C52.2455 80.8907 52.2791 81.0373 52.3446 81.1701C52.4101 81.303 52.5056 81.4183 52.6233 81.5068C52.7157 81.5861 52.8153 81.651 52.9149 81.7304C51.4479 81.3492 50.0191 80.83 48.6472 80.1795C47.959 79.8433 47.2915 79.4651 46.6485 79.047L48.3413 78.9388ZM64.957 82.9999L65.6683 82.7042C66.1164 82.7835 66.5574 82.8701 67.0055 82.9783C66.0698 83.1764 65.1163 83.2755 64.1604 83.274L64.957 82.9999ZM85.0723 66.1713C85.2003 65.7457 85.3141 65.3201 85.4279 64.8873C85.5849 64.945 85.7524 64.9672 85.9187 64.9523C85.7622 65.3201 85.5986 65.6736 85.4279 66.0415L85.0723 66.1713ZM90.222 53.0864C89.8477 47.7394 88.3951 42.5273 85.9542 37.7726C92.6012 37.0633 99.3158 37.377 105.87 38.7031C108.395 39.2225 111.731 39.6625 113.694 41.5884C115.885 43.7524 113.453 47.1427 112.101 49.1119C108.808 53.8871 103.85 57.2557 98.857 59.9679C95.4404 61.8145 91.9261 63.4689 88.33 64.9234C89.7966 61.1577 90.442 57.1147 90.222 53.072V53.0864ZM65.3269 22.9637C67.8448 22.9998 69.8649 24.6805 71.8921 26.0005C74.0828 27.2876 76.188 28.7189 78.1941 30.2852C79.0606 31.0443 79.8365 31.9037 80.5058 32.8459C79.6215 31.6499 78.5778 30.5842 77.4046 29.6793C75.6345 28.501 73.7605 27.4917 71.8067 26.6641C69.8151 25.6831 67.9302 24.5001 65.9244 23.5408C65.4929 23.3388 65.0519 23.1513 64.6014 22.9781C64.8148 22.9565 65.0353 22.9421 65.2984 22.9493L65.3269 22.9637Z" fill="#00AC76"/>
<path d="M90.0371 25.4162C91.4596 24.9834 92.3558 23.6201 92.932 22.3073C93.2819 21.6443 93.4733 20.9072 93.4906 20.1554C93.5079 19.4036 93.3506 18.6582 93.0316 17.9793C92.6958 17.3729 92.1757 16.8928 91.5489 16.6108C90.922 16.3287 90.222 16.2596 89.5534 16.414C88.6249 16.6073 87.8051 17.1548 87.263 17.9433C86.691 18.2991 86.2298 18.8117 85.9329 19.422C85.6396 20.079 85.515 20.8006 85.571 21.5196C85.627 22.2385 85.8616 22.9314 86.253 23.5336C87.0852 24.8752 88.4651 25.8923 90.0371 25.4162Z" fill="#00AC76"/>
<path d="M62.5529 10.0808C63.3779 10.1987 64.2187 10.1127 65.0039 9.83009C65.7891 9.54751 66.4953 9.07672 67.0624 8.45779C67.6862 7.83382 68.1708 7.08152 68.4837 6.25158C68.7966 5.42165 68.9304 4.53336 68.8762 3.64654C68.8133 2.79175 68.4815 1.98 67.9296 1.33075C67.3777 0.681499 66.635 0.229029 65.8106 0.039896C64.8953 -0.0889697 63.9639 0.0963775 63.1646 0.566452C62.2244 0.903842 61.3897 1.48891 60.7462 2.26158C59.6152 3.58161 58.7759 5.36331 59.2312 7.14499C59.4515 7.90441 59.8812 8.58417 60.4697 9.10427C61.0582 9.62438 61.7809 9.96318 62.5529 10.0808ZM65.9528 2.63668V2.53569L66.0168 2.58619L65.9528 2.63668Z" fill="#00AC76"/>
<path d="M21.8814 90.2421C20.8969 89.9856 19.8544 90.0939 18.9417 90.5475C18.0289 91.001 17.3058 91.7701 16.9024 92.7162C16.6679 93.2847 16.5517 93.8962 16.5609 94.5123C16.5057 94.7803 16.4795 95.0536 16.4827 95.3274C16.4742 95.8314 16.5684 96.3318 16.7593 96.7973C16.9502 97.2627 17.2338 97.6832 17.5923 98.0324C17.9772 98.3799 18.4282 98.6437 18.9176 98.8074C19.4069 98.9712 19.9242 99.0315 20.4374 98.9846C22.4788 98.7682 24.57 97.1452 24.8759 95.0028C25.0504 93.9475 24.8159 92.8646 24.2215 91.9805C23.6655 91.1417 22.8376 90.5267 21.8814 90.2421Z" fill="#00AC76"/>
<path d="M15.0672 42.9085C15.5321 42.813 15.968 42.607 16.339 42.3072C16.71 42.0075 17.0055 41.6227 17.2011 41.1845C17.4173 40.6981 17.529 40.1707 17.529 39.6372C17.529 39.1037 17.4173 38.5764 17.2011 38.09C16.9768 37.5794 16.6111 37.1459 16.1484 36.8421C15.8681 36.6671 15.5528 36.5575 15.2256 36.5213C14.8984 36.4852 14.5673 36.5233 14.2563 36.6329C13.7192 36.8376 13.2334 37.1603 12.8338 37.5778C12.6421 37.7726 12.4748 37.9907 12.3359 38.227C12.0048 38.5717 11.7608 38.9924 11.6246 39.4533C11.4918 39.92 11.4831 40.414 11.5993 40.8852C11.7155 41.3565 11.9524 41.7882 12.2861 42.1366C12.6534 42.4841 13.0984 42.7358 13.5828 42.8703C14.0673 43.0047 14.5767 43.0178 15.0672 42.9085Z" fill="#00AC76"/>
</svg>
