<svg width="40" height="51" viewBox="0 0 40 51" fill="none" xmlns="http://www.w3.org/2000/svg">
<path d="M34.4372 47.8C32.3993 46.1542 30.2083 44.7049 27.8939 43.4717C26.7556 42.8634 25.5857 42.3156 24.389 41.8304C23.4114 41.3097 22.3363 40.9943 21.2307 40.9038C20.1246 40.9038 19.3917 41.976 18.6987 42.704C17.7925 43.657 16.8596 44.5968 15.9001 45.5101C14.0078 47.35 12.0088 49.0839 9.95656 50.8047C9.83491 50.9007 9.69045 50.964 9.53706 50.9885C9.38367 51.0131 9.22649 50.9981 9.08063 50.9449C8.93477 50.8917 8.80513 50.8022 8.70414 50.6849C8.60316 50.5676 8.53422 50.4265 8.50397 50.2752C8.02422 47.7206 9.25025 45.4307 10.1298 43.1143C10.7055 41.6875 11.1515 40.2124 11.4624 38.7066C11.689 37.4624 12.1821 35.9402 11.2092 34.921C10.2364 33.9018 9.13032 32.962 8.15749 31.9296C7.18466 30.8972 6.10522 29.6662 5.15905 28.4617C3.25709 26.0624 1.56302 23.5075 0.0950137 20.8243C-0.278125 20.1493 0.521454 19.3815 1.21443 19.633C5.50891 21.1818 9.98916 22.1653 14.5408 22.5583C14.8429 18.9668 15.4266 15.4043 16.2866 11.903C16.9881 8.01776 18.1095 4.21901 19.6315 0.572716C19.7181 0.358707 19.8831 0.18515 20.0932 0.086937C20.3033 -0.0112724 20.543 -0.0268936 20.7643 0.043232C22.3368 0.45356 22.2168 2.6905 22.3901 4.01413L23.163 9.61316L24.5623 19.6992C29.2265 17.652 33.953 15.746 38.7416 13.9811C38.9205 13.9014 39.1208 13.8823 39.3116 13.9269C39.5025 13.9715 39.6732 14.0773 39.7975 14.2279C39.9218 14.3784 39.9928 14.5655 39.9995 14.7601C40.0061 14.9547 39.9481 15.1462 39.8343 15.3048C36.2806 21.1552 32.8513 27.0895 29.5464 33.1077C30.9723 35.5432 32.3582 38.0051 33.6775 40.4935C34.3572 41.8171 35.1035 43.1408 35.6898 44.4644C35.9558 44.9545 36.095 45.5026 36.095 46.0594C36.095 46.6162 35.9558 47.1643 35.6898 47.6544C35.543 47.8385 35.3286 47.9571 35.0938 47.9844C34.859 48.0117 34.6228 47.9454 34.4372 47.8Z" fill="#454542"/>
</svg>
