<svg width="69" height="74" viewBox="0 0 69 74" fill="none" xmlns="http://www.w3.org/2000/svg">
<path d="M67.6528 26.1446C63.6423 26.4119 59.6152 26.304 55.6251 25.8224C53.6525 25.5718 51.704 25.2258 49.7796 24.7963C48.0804 24.5896 46.4425 24.0372 44.9684 23.1736C43.6334 22.1594 43.6213 20.2264 43.4048 18.7111C43.1161 16.7065 42.7914 14.7259 42.4065 12.7452C41.6608 8.76793 40.7306 4.84638 39.616 0.980495C39.5482 0.754814 39.4231 0.550268 39.2526 0.386456C39.0821 0.222645 38.872 0.105122 38.6424 0.0451952C38.4129 -0.0147318 38.1716 -0.0150793 37.9419 0.0442485C37.7122 0.103576 37.5016 0.220541 37.3307 0.383907C34.456 3.15207 33.9268 7.08957 32.9887 10.7645C32.4096 13.0414 31.6246 15.2617 30.6433 17.3986C29.8374 19.1645 29.0917 21.4912 26.9748 21.9088C24.8579 22.3264 22.6208 22.5531 20.4678 22.9826C18.3149 23.4122 15.8852 24.0207 13.636 24.6769C9.17885 25.9966 4.83826 27.6767 0.657968 29.7002C0.431055 29.8388 0.249372 30.0395 0.134689 30.2781C0.0200049 30.5167 -0.0227994 30.7832 0.0115036 31.0453C0.0458066 31.3075 0.15576 31.5542 0.328055 31.7559C0.50035 31.9575 0.727678 32.1055 0.982742 32.1821C7.72245 34.0112 14.1921 36.7067 20.2272 40.2002C17.4056 44.9589 14.9646 49.9298 12.9264 55.0672C10.6652 60.5796 8.00699 66.2711 7.02072 72.1773C6.934 72.5235 6.98409 72.8894 7.16079 73.2C7.33748 73.5106 7.62744 73.7424 7.97096 73.8477C10.2923 74.6949 12.1566 71.7955 13.4917 70.3756L19.4454 64.0398L30.1742 52.6569C34.1835 59.3148 38.4053 65.8455 42.8395 72.2489C42.9981 72.4965 43.2325 72.687 43.5083 72.7928C43.7841 72.8985 44.0867 72.9138 44.3719 72.8364C44.6571 72.759 44.9097 72.593 45.0928 72.3627C45.2759 72.1324 45.3799 71.85 45.3894 71.5568C46.1111 61.1046 47.0973 50.6762 48.3482 40.2717C52.3053 38.4701 56.2385 36.6087 60.1234 34.64C62.1321 33.6258 64.2129 32.6712 66.1373 31.49C66.9065 31.1115 67.5699 30.5512 68.0691 29.8583C68.5683 29.1653 68.888 28.3611 68.9999 27.5167C69.0032 27.158 68.8635 26.8125 68.6112 26.5555C68.3589 26.2986 68.0144 26.1509 67.6528 26.1446Z" fill="#8D67CE"/>
</svg>
