<svg width="58" height="63" viewBox="0 0 58 63" fill="none" xmlns="http://www.w3.org/2000/svg">
<path d="M56.2504 22.6176C52.916 22.8409 49.5679 22.7505 46.2504 22.3476C44.6204 22.1476 42.9904 21.8476 41.3904 21.4876C39.9794 21.3133 38.6185 20.854 37.3904 20.1376C36.2804 19.2876 36.2704 17.6576 36.0904 16.3876C35.8604 14.7176 35.5804 13.0476 35.2704 11.3876C34.6438 8.05428 33.8671 4.76422 32.9404 1.51755C32.8841 1.32841 32.78 1.15698 32.6383 1.01969C32.4965 0.882399 32.3218 0.783904 32.1309 0.733679C31.9401 0.683454 31.7395 0.683163 31.5485 0.732885C31.3575 0.782608 31.1826 0.880636 31.0404 1.01755C28.6504 3.33755 28.2204 6.64758 27.4304 9.72758C26.9538 11.6359 26.3044 13.4969 25.4904 15.2876C24.8104 16.7576 24.1904 18.7076 22.4304 19.0576C20.6704 19.4076 18.8204 19.5976 17.0304 19.9576C15.2404 20.3176 13.2104 20.8276 11.3404 21.3776C7.63449 22.487 4.02573 23.8984 0.550425 25.5976C0.36096 25.7121 0.208923 25.8793 0.112879 26.0787C0.0168355 26.2782 -0.0190543 26.5012 0.00957727 26.7207C0.0382088 26.9402 0.130129 27.1467 0.274119 27.3148C0.418109 27.4829 0.607937 27.6055 0.820429 27.6676C6.42272 29.2085 11.8011 31.4707 16.8204 34.3976C14.4712 38.3821 12.4382 42.5449 10.7404 46.8476C8.86043 51.4776 6.66042 56.2476 5.83042 61.1876C5.75833 61.4777 5.80002 61.7844 5.94692 62.0447C6.09383 62.3051 6.33483 62.4993 6.62043 62.5876C8.56043 63.2976 10.1004 60.8676 11.2104 59.6776L16.2104 54.3776L25.1204 44.8276C28.4538 50.4076 31.9671 55.8809 35.6604 61.2476C35.7894 61.4567 35.9825 61.6186 36.2109 61.7091C36.4393 61.7996 36.6909 61.8139 36.9281 61.7498C37.1653 61.6857 37.3754 61.5467 37.5272 61.3535C37.679 61.1603 37.7643 60.9232 37.7704 60.6776C38.3704 51.9176 39.1904 43.1743 40.2304 34.4476C43.5638 32.9476 46.8271 31.3776 50.0204 29.7376C51.6904 28.8876 53.4204 28.0776 55.0204 27.0976C55.6588 26.7775 56.2087 26.3056 56.622 25.7232C57.0352 25.1408 57.2991 24.4658 57.3904 23.7576C57.3904 23.4553 57.2703 23.1652 57.0565 22.9515C56.8427 22.7377 56.5528 22.6176 56.2504 22.6176Z" fill="#454542"/>
</svg>
