<svg width="31" height="39" viewBox="0 0 31 39" fill="none" xmlns="http://www.w3.org/2000/svg">
<path d="M26.2104 2.4176C24.6813 3.66096 23.0372 4.75592 21.3004 5.68762C20.4463 6.14713 19.5684 6.56103 18.6704 6.92761C17.9368 7.32099 17.1301 7.55927 16.3004 7.62763C15.4704 7.62763 14.9204 6.81758 14.4004 6.26758C13.7204 5.54758 13.0204 4.83758 12.3004 4.14758C10.8804 2.75758 9.38045 1.44758 7.84045 0.147584C7.74916 0.0750565 7.64076 0.0272251 7.52566 0.00866849C7.41056 -0.00988812 7.29261 0.00146161 7.18316 0.0416275C7.07371 0.0817933 6.97642 0.149434 6.90064 0.238039C6.82487 0.326643 6.77314 0.433251 6.75044 0.547609C6.39044 2.47761 7.31044 4.20758 7.97044 5.95758C8.40241 7.03554 8.73708 8.15 8.97044 9.2876C9.14044 10.2276 9.51044 11.3776 8.78043 12.1476C8.05043 12.9176 7.22044 13.6276 6.49044 14.4076C5.76044 15.1876 4.95044 16.1176 4.24044 17.0276C2.81323 18.8403 1.54202 20.7705 0.440438 22.7976C0.160438 23.3076 0.760434 23.8876 1.28043 23.6976C4.50297 22.5275 7.8649 21.7845 11.2804 21.4876C11.5071 24.2009 11.9451 26.8924 12.5904 29.5376C13.1168 32.4729 13.9584 35.3428 15.1004 38.0976C15.1654 38.2593 15.2892 38.3904 15.4469 38.4646C15.6045 38.5388 15.7844 38.5506 15.9504 38.4976C17.1304 38.1876 17.0404 36.4976 17.1704 35.4976L17.7504 31.2676L18.8004 23.6476C22.3004 25.1943 25.8471 26.6343 29.4405 27.9676C29.5747 28.0278 29.725 28.0422 29.8682 28.0085C30.0114 27.9748 30.1395 27.895 30.2328 27.7812C30.3261 27.6674 30.3794 27.5261 30.3844 27.3791C30.3894 27.2321 30.3458 27.0874 30.2604 26.9676C27.5938 22.5476 25.0204 18.0642 22.5404 13.5176C23.6104 11.6776 24.6504 9.81762 25.6404 7.93762C26.1504 6.93762 26.7104 5.93762 27.1504 4.93762C27.35 4.56733 27.4545 4.15325 27.4545 3.73261C27.4545 3.31196 27.35 2.89788 27.1504 2.52759C27.0403 2.38853 26.8794 2.29888 26.7032 2.27826C26.527 2.25764 26.3498 2.30774 26.2104 2.4176Z" fill="#454542"/>
</svg>
