<svg width="67" height="83" viewBox="0 0 67 83" fill="none" xmlns="http://www.w3.org/2000/svg">
<path d="M31.0515 22.0937C31.0132 20.6624 30.3734 19.4238 29.7171 18.1907C26.8415 12.7731 23.1417 7.8416 18.7519 3.575C16.4823 1.37302 13.4963 -1.07668 10.1657 0.503239C8.1805 1.44459 7.55702 3.64657 8.43205 5.61183C9.15818 7.10816 9.98026 8.55534 10.8931 9.94423C10.9532 10.0433 11.0188 10.1314 11.079 10.2305C12.9547 14.9443 15.923 19.1382 19.7363 22.4625C20.7397 23.3404 21.8033 24.1462 22.9192 24.8737L23.395 25.1709C23.5153 25.2865 23.6247 25.4076 23.745 25.5232C24.1263 25.8421 24.5962 26.0344 25.0904 26.0737C26.1155 26.5703 27.2925 26.6453 28.3717 26.2829C29.2086 25.9707 29.9223 25.3935 30.4055 24.6381C30.8887 23.8826 31.1154 22.9898 31.0515 22.0937Z" fill="#F5AE1E"/>
<path d="M4.60379 32.0741C4.00311 31.8153 3.33427 31.7634 2.70129 31.9267C2.06831 32.0899 1.50664 32.4592 1.10367 32.977C0.487842 33.8325 0.163638 34.8657 0.179459 35.9221C-0.0741192 36.5915 -0.0584479 37.334 0.223186 37.992C1.17051 40.1883 2.31266 42.2943 3.63579 44.2841C4.99755 46.343 6.97728 48.7762 9.7719 48.1376C10.4816 48.0084 11.1486 47.7045 11.7135 47.2531C12.2783 46.8017 12.7235 46.2167 13.0095 45.5503C13.4092 44.541 13.5393 43.444 13.3869 42.3684C13.1025 40.2655 11.9103 38.4379 10.5595 36.8635C8.88353 34.9121 6.86456 33.2886 4.60379 32.0741ZM7.33825 39.0544C7.33825 39.0159 7.29998 38.9829 7.28358 38.9498L7.3711 39.104L7.33825 39.0544ZM9.67897 42.4675C9.73912 42.5005 9.78284 42.528 9.77737 42.5336C9.7719 42.5391 9.73366 42.5115 9.68444 42.462L9.67897 42.4675Z" fill="#F5AE1E"/>
<path d="M66.244 68.4399C65.6644 65.8639 64.8176 63.3564 63.7173 60.9586C61.5291 56.3568 58.4523 52.2397 54.6663 48.8477C52.4581 46.7563 49.7513 45.2736 46.8075 44.5429C44.248 43.9924 41.5354 44.1961 38.9541 44.4823C36.4767 44.7521 34.0813 46.954 33.8188 49.5138C33.8188 49.5964 33.8188 49.679 33.8188 49.7616C33.4924 50.8222 33.4341 51.948 33.6492 53.037C34.0497 54.697 34.687 56.2898 35.5414 57.7658C35.6475 58.2989 35.9127 58.7867 36.3016 59.164L36.3782 59.2961C37.472 61.2999 38.6314 63.2597 39.9002 65.1479C42.8147 69.4744 46.2009 73.4591 49.9958 77.0276C50.6412 77.6386 51.374 78.3488 52.1834 79.0644C52.9447 80.0393 53.925 80.8185 55.0436 81.338C57.696 83.1161 60.6219 83.9528 63.1923 81.338C63.3523 81.168 63.4834 80.9727 63.5806 80.76C65.297 79.4464 66.4666 77.5372 66.8619 75.4036C67.2393 73.0971 66.7799 70.6639 66.244 68.4399Z" fill="#F5AE1E"/>
</svg>
