<svg width="50" height="44" viewBox="0 0 50 44" fill="none" xmlns="http://www.w3.org/2000/svg">
<path d="M39.1496 32.1559V28.8974H42.3637C42.6594 28.8931 42.9419 28.7745 43.1518 28.5666C43.3618 28.3587 43.4828 28.0777 43.4894 27.7827V24.6099H46.7894C47.0851 24.6056 47.3676 24.487 47.5776 24.2791C47.7875 24.0712 47.9085 23.7902 47.9152 23.4952V14.9202C47.9108 14.7783 47.878 14.6387 47.8187 14.5096C47.7594 14.3805 47.6748 14.2646 47.5698 14.1687C47.4649 14.0728 47.3418 13.9988 47.2077 13.9512C47.0737 13.9035 46.9315 13.8831 46.7894 13.8912H43.4894V10.6327C43.4828 10.3377 43.3618 10.0567 43.1518 9.84879C42.9419 9.6409 42.6594 9.52232 42.3637 9.51796H39.1496V6.34522C39.143 6.05017 39.022 5.76918 38.812 5.56129C38.6021 5.35341 38.3196 5.23483 38.0239 5.23047H33.727C33.4313 5.23483 33.1488 5.35341 32.9388 5.56129C32.7289 5.76918 32.6079 6.05017 32.6013 6.34522V9.51796H29.3013C29.0056 9.52232 28.723 9.6409 28.5131 9.84879C28.3032 10.0567 28.1822 10.3377 28.1755 10.6327V13.8912H21.6186V10.6327C21.6119 10.3377 21.4909 10.0567 21.281 9.84879C21.071 9.6409 20.7885 9.52232 20.4928 9.51796H17.2788V6.34522C17.2721 6.05017 17.1511 5.76918 16.9412 5.56129C16.7312 5.35341 16.4487 5.23483 16.153 5.23047H11.8562C11.5604 5.23483 11.2779 5.35341 11.068 5.56129C10.858 5.76918 10.737 6.05017 10.7304 6.34522V9.51796H7.38744C7.09171 9.52232 6.80919 9.6409 6.59926 9.84879C6.38932 10.0567 6.26832 10.3377 6.26168 10.6327V13.8912H3.04765C2.76476 13.8902 2.49185 13.9955 2.28325 14.1862C2.07464 14.3769 1.94563 14.6389 1.92188 14.9202V23.4952C1.92851 23.7902 2.04952 24.0712 2.25945 24.2791C2.46939 24.487 2.75192 24.6056 3.04765 24.6099H6.26168V27.7827C6.26832 28.0777 6.38932 28.3587 6.59926 28.5666C6.80919 28.7745 7.09171 28.8931 7.38744 28.8974H10.6874V32.1559C10.6941 32.451 10.8151 32.732 11.025 32.9398C11.2349 33.1477 11.5175 33.2663 11.8132 33.2707H15.0272V36.4434C15.0338 36.7385 15.1549 37.0194 15.3648 37.2273C15.5747 37.4352 15.8573 37.5538 16.153 37.5582H19.367V40.7309C19.3737 41.0259 19.4947 41.3069 19.7046 41.5148C19.9145 41.7227 20.197 41.8413 20.4928 41.8456H29.1724C29.4681 41.8413 29.7506 41.7227 29.9606 41.5148C30.1705 41.3069 30.2915 41.0259 30.2982 40.7309V37.5582H33.6067C33.7489 37.5549 33.889 37.5233 34.0188 37.4651C34.1485 37.407 34.2653 37.3235 34.3622 37.2196C34.4591 37.1157 34.5342 36.9935 34.583 36.8602C34.6319 36.7269 34.6535 36.5852 34.6465 36.4434V33.2707H37.9035C38.2145 33.2783 38.5167 33.1672 38.7483 32.96C38.9799 32.7528 39.1234 32.4652 39.1496 32.1559ZM30.3841 31.0412V28.8974H32.5583V31.0412H30.3841ZM26.0873 35.3287V33.1849H28.2615V35.3287H26.0873ZM10.9452 16.0349V18.1787H8.77962V16.0349H10.9452ZM15.2421 11.7475V13.8912H13.0249V11.7475H15.2421ZM32.6872 16.0349V18.1787H30.513V16.0349H32.6872ZM36.984 11.7475V13.8912H34.7239V11.7475H36.984ZM39.2356 22.4662V20.3224H41.341V22.4662H39.2356ZM36.984 18.1787H34.7239V16.0349H36.8981L36.984 18.1787ZM32.6872 22.4662H30.513V20.3224H32.6872V22.4662ZM28.2615 26.7537H26.0443V24.6099H28.2185L28.2615 26.7537ZM23.9646 26.7537H21.7045V24.6099H23.8787L23.9646 26.7537ZM19.6248 22.4662H17.3647V20.3224H19.5389V22.4662H19.6248ZM15.328 18.1787H13.0249V16.0349H15.1991L15.328 18.1787ZM13.1538 20.3224H15.328V22.4662H13.0249L13.1538 20.3224ZM17.5881 24.6099H19.7537V26.7537H17.4592L17.5881 24.6099ZM21.8334 28.8974H24.0076V31.0412H21.7045V28.8974H21.8334ZM26.2591 28.8974H28.4333V31.0412H26.1302L26.2591 28.8974ZM30.556 24.6099H32.7302V26.7537H30.556V24.6099ZM34.8528 20.3224H37.027V22.4662H34.7239L34.8528 20.3224ZM41.341 18.1787H39.1668V16.0349H41.341V18.1787ZM28.2357 22.4662H26.0443V20.3224H28.2185L28.2357 22.4662ZM23.9388 22.4662H21.7045V20.3224H23.8787L23.9388 22.4662ZM19.599 18.1787H17.3647V16.0349H19.5389V18.1787H19.599ZM8.68509 20.3224H10.8507V22.4662H8.68509V20.3224ZM12.9819 24.6099H15.1561V26.7537H13.0249L12.9819 24.6099ZM17.4163 28.8974H19.5819V31.0412H17.4592L17.4163 28.8974ZM21.6615 33.1849H23.8357V35.3287H21.7045V33.1849H21.6615ZM34.6809 24.6099H36.8551V26.7537H34.7239L34.6809 24.6099ZM41.2808 26.7537H39.1067V24.6099H41.341L41.2808 26.7537ZM45.5777 22.4662H43.4894V20.3224H45.6378L45.5777 22.4662ZM45.5777 18.1787H43.4894V16.0349H45.6378L45.5777 18.1787ZM41.2808 13.8912H39.1067V11.7475H41.341L41.2808 13.8912ZM34.6809 7.45996H36.8551V9.60371H34.7239L34.6809 7.45996ZM30.3841 11.7475H32.5583V13.8912H30.3841V11.7475ZM28.2185 18.1787H26.0443V16.0349H28.2185V18.1787ZM23.9217 18.1787H21.7045V16.0349H23.8787L23.9217 18.1787ZM19.5819 13.8912H17.3647V11.7475H19.5389V13.8912H19.5819ZM13.0679 7.45996H15.2421V9.60371H13.0249L13.0679 7.45996ZM8.77103 11.7475H10.9366V13.8912H8.68509L8.77103 11.7475ZM4.47419 16.0349H6.6398V18.1787H4.43982L4.47419 16.0349ZM4.47419 20.3224H6.6398V22.4662H4.43982L4.47419 20.3224ZM8.77103 24.6099H10.9366V26.7537H8.68509L8.77103 24.6099ZM13.0679 28.8974H15.2421V31.0412H13.0249L13.0679 28.8974ZM17.5022 33.1849H19.6678V35.3287H17.4592L17.5022 33.1849ZM21.7475 37.4724H23.9217V39.6161H21.7045V37.4724H21.7475ZM28.2615 39.6161H26.0443V37.4724H28.2185L28.2615 39.6161ZM32.6872 35.3287H30.513V33.1849H32.6872V35.3287ZM36.984 31.0412H34.7239V28.8974H36.8981L36.984 31.0412Z" fill="#F5AE1E"/>
<path d="M5.47965 36.4434C5.04855 36.4411 4.62122 36.5236 4.22207 36.6862C3.82292 36.8487 3.45976 37.0881 3.15333 37.3907C2.8469 37.6933 2.60319 38.0531 2.43614 38.4497C2.26908 38.8462 2.18194 39.2717 2.17969 39.7019C2.18144 40.3425 2.37286 40.9682 2.72991 41.5006C3.08696 42.0329 3.59371 42.4481 4.1865 42.694C4.77929 42.9399 5.43168 43.0055 6.06171 42.8826C6.69175 42.7596 7.27132 42.4537 7.72763 42.0031C8.18394 41.5525 8.49663 40.9774 8.62642 40.3501C8.7562 39.7227 8.6973 39.0711 8.45711 38.4771C8.21692 37.883 7.80614 37.3731 7.2764 37.0112C6.74665 36.6494 6.12156 36.4519 5.47965 36.4434ZM5.47965 40.7309C5.20272 40.7234 4.93828 40.6143 4.73692 40.4245C4.53556 40.2346 4.41142 39.9774 4.38826 39.7019C4.3949 39.4068 4.5159 39.1259 4.72584 38.918C4.93577 38.7101 5.21829 38.5915 5.51403 38.5872C5.65623 38.5904 5.79634 38.6221 5.92609 38.6802C6.05585 38.7384 6.17262 38.8218 6.26953 38.9257C6.36644 39.0296 6.44152 39.1518 6.49035 39.2851C6.53919 39.4184 6.56078 39.5601 6.55386 39.7019C6.55163 39.84 6.52202 39.9763 6.46671 40.103C6.41141 40.2296 6.33151 40.3441 6.23164 40.4397C6.13177 40.5354 6.0139 40.6104 5.88483 40.6604C5.75577 40.7103 5.61805 40.7343 5.47965 40.7309Z" fill="white"/>
<path d="M25.5258 5.31637C26.0515 5.31129 26.564 5.15108 26.9987 4.85592C27.4334 4.56076 27.7709 4.14385 27.9685 3.65769C28.1662 3.17154 28.2153 2.63788 28.1096 2.12393C28.004 1.60999 27.7482 1.13875 27.3746 0.769556C27.0011 0.400363 26.5263 0.149729 26.0103 0.0492282C25.4942 -0.051273 24.9599 0.0028518 24.4746 0.204782C23.9893 0.406712 23.5748 0.74742 23.2832 1.18399C22.9916 1.62056 22.836 2.13347 22.8359 2.65812C22.8427 3.36549 23.1291 4.04158 23.6328 4.53937C24.1365 5.03716 24.8168 5.3164 25.5258 5.31637ZM25.5258 2.14363C25.6277 2.14363 25.7274 2.1738 25.8122 2.23034C25.897 2.28687 25.9631 2.36722 26.0021 2.46124C26.0411 2.55525 26.0514 2.6587 26.0315 2.7585C26.0116 2.8583 25.9625 2.94997 25.8903 3.02193C25.8182 3.09388 25.7264 3.14288 25.6263 3.16274C25.5263 3.18259 25.4227 3.1724 25.3284 3.13346C25.2342 3.09452 25.1537 3.02857 25.097 2.94397C25.0404 2.85936 25.0101 2.75988 25.0101 2.65812C25.0201 2.52495 25.0776 2.39977 25.1722 2.30534C25.2668 2.21092 25.3923 2.15353 25.5258 2.14363Z" fill="white"/>
<path d="M46.1757 32.1567C45.4298 32.1652 44.703 32.3936 44.0869 32.8133C43.4707 33.233 42.9928 33.8252 42.7131 34.5153C42.4335 35.2055 42.3648 35.9627 42.5155 36.6917C42.6662 37.4208 43.0297 38.089 43.5601 38.6124C44.0906 39.1358 44.7644 39.4909 45.4967 39.6331C46.229 39.7752 46.987 39.698 47.6755 39.4112C48.3639 39.1244 48.9519 38.6409 49.3655 38.0214C49.7792 37.4019 49.9999 36.6741 49.9999 35.9297C49.9864 34.9259 49.5778 33.9675 48.8623 33.2616C48.1469 32.5558 47.1819 32.1589 46.1757 32.1567ZM46.1757 37.4732C45.9613 37.4732 45.749 37.4311 45.5509 37.3492C45.3528 37.2673 45.1728 37.1473 45.0212 36.996C44.8696 36.8447 44.7493 36.6651 44.6672 36.4675C44.5852 36.2698 44.543 36.0579 44.543 35.844C44.543 35.63 44.5852 35.4182 44.6672 35.2205C44.7493 35.0228 44.8696 34.8432 45.0212 34.6919C45.1728 34.5406 45.3528 34.4206 45.5509 34.3387C45.749 34.2569 45.9613 34.2147 46.1757 34.2147C46.3935 34.2052 46.6109 34.2406 46.8143 34.3189C47.0177 34.3971 47.2027 34.5165 47.3576 34.6695C47.5126 34.8225 47.6341 35.0058 47.7147 35.2079C47.7952 35.41 47.8331 35.6266 47.8257 35.844C47.8246 36.0591 47.781 36.2718 47.6975 36.4701C47.614 36.6684 47.4921 36.8483 47.3389 36.9996C47.1857 37.1509 47.0041 37.2706 46.8045 37.3518C46.605 37.4331 46.3913 37.4744 46.1757 37.4732Z" fill="white"/>
<path d="M38.632 35.4994C38.3738 35.6289 38.1754 35.8524 38.0779 36.1237C37.9803 36.3951 37.991 36.6935 38.1078 36.9572C38.2438 37.213 38.4717 37.4082 38.7457 37.5036C39.0198 37.599 39.3199 37.5876 39.5859 37.4717C39.8425 37.3407 40.039 37.1166 40.135 36.8454C40.2309 36.5742 40.2189 36.2766 40.1015 36.0139C40.0495 35.8751 39.9675 35.7493 39.8614 35.6456C39.7553 35.5418 39.6276 35.4626 39.4874 35.4135C39.3472 35.3644 39.1979 35.3467 39.0501 35.3615C38.9023 35.3764 38.7596 35.4235 38.632 35.4994Z" fill="white"/>
<path d="M12.589 41.9322C12.3309 42.0616 12.1325 42.2852 12.0349 42.5565C11.9373 42.8278 11.948 43.1262 12.0648 43.3899C12.2008 43.6458 12.4287 43.8409 12.7028 43.9363C12.9768 44.0317 13.2769 44.0203 13.5429 43.9044C13.8011 43.775 13.9995 43.5514 14.097 43.2801C14.1946 43.0088 14.1839 42.7104 14.0671 42.4467C14.0141 42.3076 13.9312 42.1817 13.8243 42.078C13.7174 41.9742 13.589 41.895 13.4481 41.846C13.3073 41.797 13.1574 41.7793 13.009 41.7942C12.8606 41.8091 12.7173 41.8562 12.589 41.9322Z" fill="white"/>
<path d="M0.613255 30.0979C0.35663 30.2289 0.160107 30.453 0.0641793 30.7242C-0.0317484 30.9954 -0.0197723 31.293 0.0976368 31.5557C0.232045 31.8109 0.458336 32.0059 0.730983 32.1013C1.00363 32.1968 1.30239 32.1856 1.56715 32.0702C1.8253 31.9407 2.02369 31.7172 2.12127 31.4459C2.21885 31.1745 2.20814 30.8761 2.09137 30.6124C2.03377 30.477 1.94843 30.3551 1.84081 30.2546C1.7332 30.154 1.60569 30.077 1.46648 30.0286C1.32728 29.9801 1.17946 29.9613 1.03252 29.9732C0.885578 29.9852 0.742765 30.0276 0.613255 30.0979Z" fill="white"/>
<path d="M7.64139 2.05811C7.86198 2.0598 8.07712 2.12661 8.2597 2.25013C8.44229 2.37364 8.58414 2.54832 8.66738 2.75216C8.75062 2.956 8.77152 3.17987 8.72745 3.39554C8.68338 3.61121 8.5763 3.80903 8.41973 3.96408C8.26315 4.11912 8.06408 4.22444 7.84761 4.26676C7.63113 4.30909 7.40695 4.28652 7.20331 4.2019C6.99967 4.11728 6.8257 3.9744 6.70332 3.79127C6.58094 3.60814 6.51563 3.39296 6.51562 3.17285C6.51789 2.87641 6.6375 2.59289 6.84838 2.38408C7.05926 2.17526 7.3443 2.0581 7.64139 2.05811Z" fill="white"/>
<path d="M24.4875 7.63196C24.2293 7.76141 24.0309 7.98493 23.9333 8.25628C23.8358 8.52763 23.8465 8.82602 23.9632 9.08971C24.0993 9.34557 24.3271 9.54072 24.6012 9.63612C24.8753 9.73152 25.1753 9.72012 25.4414 9.60421C25.698 9.47327 25.8945 9.24911 25.9904 8.97791C26.0864 8.7067 26.0744 8.40912 25.957 8.14646C25.9089 8.00457 25.8291 7.87546 25.7236 7.76894C25.618 7.66242 25.4896 7.58128 25.3479 7.53169C25.2063 7.4821 25.0552 7.46536 24.9061 7.48273C24.757 7.5001 24.6138 7.55114 24.4875 7.63196Z" fill="white"/>
<path d="M38.5429 3.08821C38.7995 2.95728 38.9961 2.73312 39.092 2.46192C39.1879 2.19071 39.1759 1.89313 39.0585 1.63047C38.9241 1.37525 38.6978 1.18029 38.4252 1.08483C38.1525 0.989374 37.8538 1.0005 37.589 1.11597C37.3309 1.24541 37.1325 1.46894 37.0349 1.74029C36.9373 2.01163 36.948 2.31003 37.0648 2.57372C37.1224 2.70914 37.2077 2.83104 37.3154 2.93159C37.423 3.03214 37.5505 3.10911 37.6897 3.15756C37.8289 3.20602 37.9767 3.22488 38.1237 3.21293C38.2706 3.20099 38.4134 3.15851 38.5429 3.08821Z" fill="white"/>
<path d="M47.2226 9.51839C47.4792 9.38746 47.6758 9.1633 47.7717 8.89209C47.8676 8.62089 47.8556 8.3233 47.7382 8.06065C47.6038 7.80542 47.3775 7.61046 47.1049 7.51501C46.8322 7.41955 46.5335 7.43067 46.2687 7.54614C46.0106 7.67559 45.8122 7.89912 45.7146 8.17046C45.617 8.44181 45.6277 8.7402 45.7445 9.00389C45.8021 9.13931 45.8874 9.26121 45.995 9.36176C46.1027 9.46231 46.2302 9.53928 46.3694 9.58774C46.5086 9.63619 46.6564 9.65505 46.8033 9.64311C46.9503 9.63117 47.0931 9.58868 47.2226 9.51839Z" fill="white"/>
</svg>
