<svg width="173" height="167" viewBox="0 0 173 167" fill="none" xmlns="http://www.w3.org/2000/svg">
<path d="M136.567 66.3596C133.308 60.9881 129.592 55.9065 125.461 51.1709C117.465 41.7594 107.657 33.5894 95.8635 29.4767C94.3343 28.9321 92.7773 28.4691 91.199 28.0896C90.9642 27.8713 90.6691 27.7287 90.3521 27.6804C89.2528 27.4849 88.1424 27.3575 87.0273 27.2989H86.9717C86.8286 27.2853 86.6845 27.2853 86.5414 27.2989C81.2591 27.0562 76.0253 28.1728 70.9513 29.7749C65.5946 31.4344 60.4364 33.6764 55.5694 36.4607C45.7475 42.1478 37.6123 50.3941 33.1907 60.943C28.5609 71.9912 28.1028 84.3433 29.852 96.0712C30.7821 102.272 32.1981 108.604 35.3009 114.103C38.2793 119.169 42.1999 123.618 46.8512 127.212C63.767 140.722 87.9366 144.238 107.719 135.174C127.03 126.31 141.336 105.843 141.537 84.3919C141.572 78.0388 139.852 71.7992 136.567 66.3596ZM113.168 128.023C96.1481 139.238 73.7208 139.258 56.1316 129.23C46.5249 123.758 38.362 115.449 35.3078 104.63C32.2953 93.9906 31.4415 82.2072 33.7252 71.3393C35.8831 60.7419 41.6892 51.2351 50.1344 44.4712C58.7727 37.6727 68.9677 33.1276 79.8014 31.2452C81.9866 30.8629 84.2077 30.7257 86.4234 30.836C97.9043 32.5699 108.052 38.6731 116.333 46.6281C120.566 50.7468 124.446 55.2127 127.932 59.979C131.361 64.5841 134.873 69.439 136.657 74.9596C139.948 85.2241 137.074 97.2641 132.284 106.62C127.861 115.279 121.277 122.65 113.168 128.023Z" fill="#8D67CE"/>
<path d="M130.591 41.4127C130.75 41.7465 130.989 42.0368 131.285 42.2588C133.124 43.6043 135.151 41.7317 136.456 40.5457C137.704 39.4069 138.864 38.1758 139.927 36.863C141.043 35.5175 142.059 34.0919 142.967 32.5977C143.925 30.9886 144.806 28.9496 143.661 27.1949C143.415 26.7926 143.022 26.5014 142.565 26.3824C142.108 26.2635 141.623 26.326 141.211 26.5569C136.181 29.5968 132.281 34.1944 130.105 39.651C130.002 39.9598 129.994 40.292 130.08 40.6055C130.167 40.9191 130.344 41.2 130.591 41.4127Z" fill="#8D67CE"/>
<path d="M100.223 20.3704C100.368 20.4044 100.517 20.4207 100.667 20.4189C100.861 20.601 101.093 20.7384 101.347 20.8214C101.6 20.9043 101.868 20.9309 102.133 20.8991C102.397 20.8674 102.652 20.7782 102.878 20.6377C103.105 20.4972 103.298 20.3089 103.443 20.086C106.581 15.2312 107.948 9.53716 109.441 4.00264C109.774 2.77506 109.774 1.27006 108.629 0.458604C107.143 -0.588655 105.581 0.306024 104.728 1.65151C103.289 4.00365 102.107 6.50315 101.201 9.10716C100.131 12.0373 99.3793 15.074 98.9593 18.1649C98.8486 18.6242 98.9178 19.1083 99.1526 19.5183C99.3875 19.9283 99.7702 20.2331 100.223 20.3704ZM106.067 2.83748C106.067 2.72651 106.144 2.69184 106.067 2.83748V2.83748Z" fill="#8D67CE"/>
<path d="M59.0817 22.4996C60.4144 21.383 60.5255 19.7254 59.991 18.1025C59.3732 16.2091 58.6374 14.3504 57.9086 12.5125C57.1798 10.6746 56.3676 8.83667 55.5347 7.02651C55.2158 6.13274 54.7463 5.30003 54.1464 4.56441C53.7621 4.15443 53.2531 3.8826 52.6984 3.79107C52.1437 3.69953 51.5743 3.79339 51.0784 4.05812C50.8045 4.2102 50.5772 4.4338 50.4207 4.705C50.2642 4.9762 50.1844 5.2848 50.1899 5.5978C50.97 11.6044 52.9303 17.3979 55.9581 22.6452C56.1277 22.9138 56.3655 23.1326 56.6473 23.2794C56.9291 23.4263 57.2449 23.4958 57.5623 23.481C57.8798 23.4662 58.1877 23.3676 58.4546 23.1952C58.7215 23.0228 58.9379 22.7827 59.0817 22.4996Z" fill="#8D67CE"/>
<path d="M170.781 75.0359C169.08 74.4256 166.901 74.6614 165.131 74.7446C160.468 74.9574 155.872 75.932 151.526 77.6298C151.075 77.7684 150.694 78.0741 150.462 78.4842C150.23 78.8943 150.163 79.3777 150.276 79.8352C150.374 80.164 150.564 80.4577 150.825 80.6814C150.79 81.0065 150.83 81.3352 150.943 81.642C151.057 81.9488 151.239 82.2253 151.477 82.4499C152.282 83.192 153.677 83.2822 154.719 83.414C156.745 83.6499 158.794 83.6009 160.806 83.2683C162.821 82.945 164.811 82.4816 166.762 81.8812C168.573 81.3541 170.857 80.9311 172.231 79.5509C173.87 77.9072 172.655 75.7017 170.781 75.0359ZM165.873 78.3025H166.297L164.943 78.6909C164.95 78.5777 164.95 78.4642 164.943 78.3511C165.228 78.3372 165.533 78.3025 165.873 78.3025Z" fill="#8D67CE"/>
<path d="M16.6358 49.222C18.8184 51.4455 21.6719 52.8905 24.7571 53.3348C25.0716 53.3423 25.3823 53.2635 25.6552 53.107C25.9281 52.9505 26.1528 52.7222 26.305 52.447C26.419 52.175 26.5028 51.8912 26.5549 51.6009C26.7529 51.5161 26.9339 51.3962 27.0893 51.2472C27.4156 50.9064 27.5977 50.453 27.5977 49.9815C27.5977 49.5099 27.4156 49.0565 27.0893 48.7157C25.4165 46.6351 23.7436 44.5128 21.8834 42.5709C20.9506 41.5914 19.9634 40.6653 18.9264 39.7967C17.8953 38.8878 16.7743 38.086 15.5807 37.4039C14.123 36.648 12.1864 36.6064 11.2424 38.1946C10.4303 39.5817 11.0203 41.1144 11.7283 42.3559C13.0405 44.8591 14.6919 47.1696 16.6358 49.222ZM13.6371 40.4486C13.3734 40.3446 13.5677 40.4486 13.6371 40.4486V40.4486Z" fill="#8D67CE"/>
<path d="M20.0509 89.4548C19.9151 89.0024 19.6096 88.62 19.1983 88.3874C18.787 88.1547 18.3016 88.0899 17.8436 88.2064C13.9842 88.8999 10.0902 89.5935 6.42516 90.9806C4.63431 91.6741 2.4964 92.4786 1.06649 93.8103C0.650427 94.159 0.337471 94.6146 0.161338 95.1278C-0.0147947 95.6411 -0.0474291 96.1927 0.0669505 96.7232C0.407073 97.8814 1.45521 98.4016 2.4964 98.7553C6.41128 100.08 11.0133 98.4154 14.6298 96.8758C15.5113 96.5012 16.3859 96.092 17.2327 95.6412C18.1939 95.2122 19.0853 94.6418 19.8774 93.949C20.421 93.4046 20.7443 92.6788 20.7853 91.9108C20.8263 91.1428 20.5821 90.3868 20.0995 89.7877C20.0953 89.6753 20.079 89.5637 20.0509 89.4548ZM3.25994 95.2529C3.14194 95.1974 3.17664 95.1974 3.25994 95.2529V95.2529ZM4.90502 95.6412C5.15491 95.5025 5.41173 95.3846 5.66856 95.2598C5.67343 95.3931 5.69204 95.5256 5.72409 95.6551C5.45338 95.6412 5.18267 95.6412 4.90502 95.6412Z" fill="#8D67CE"/>
<path d="M36.3421 129.528C35.9373 129.542 35.539 129.634 35.169 129.799C34.8441 129.667 34.4805 129.667 34.1556 129.799C31.1361 131.068 28.0819 132.684 26.0065 135.291C24.9167 136.679 23.8825 138.378 23.7922 140.146C23.754 140.708 23.8735 141.269 24.1371 141.766C24.4008 142.264 24.7982 142.678 25.2846 142.962C25.7727 143.193 26.3062 143.313 26.8464 143.313C27.3866 143.313 27.9201 143.193 28.4082 142.962C31.6477 141.63 34.4932 139.493 36.6752 136.755C37.2509 136.044 37.7818 135.298 38.2648 134.522C38.8548 133.551 39.4101 132.517 39.063 131.352C38.8618 130.799 38.4897 130.324 38.0006 129.996C37.5114 129.668 36.9306 129.504 36.3421 129.528Z" fill="#8D67CE"/>
<path d="M76.657 148.427C76.4879 148.3 76.2975 148.204 76.0948 148.143C75.6358 148.027 75.1496 148.092 74.7381 148.326C74.3266 148.56 74.0218 148.945 73.8874 149.398C72.6105 153.045 72.0267 156.898 72.166 160.759C72.166 161.612 72.2632 162.458 72.3673 163.304C72.3747 164.286 72.656 165.247 73.1794 166.078C74.526 167.798 76.6986 166.813 77.955 165.544C80.3081 163.172 80.5511 159.475 80.8565 156.348C81.0231 154.628 81.3979 152.616 80.8009 150.945C80.5281 150.098 79.9592 149.377 79.1982 148.915C78.4373 148.453 77.5352 148.279 76.657 148.427Z" fill="#8D67CE"/>
<path d="M117.819 157.006C117.458 154.922 116.859 152.886 116.035 150.938C115.223 149.01 114.279 146.895 112.432 145.75C110.586 144.606 107.351 144.529 106.81 147.137C106.813 147.16 106.813 147.184 106.81 147.207C106.595 147.418 106.44 147.684 106.362 147.975C106.284 148.266 106.285 148.573 106.366 148.864C106.643 149.992 106.926 151.118 107.213 152.242C107.33 152.845 107.469 153.435 107.636 154.024C107.636 154.1 107.691 154.17 107.712 154.246C107.823 154.676 107.927 155.106 108.038 155.536C108.587 157.658 109.073 159.815 109.76 161.896C110.371 163.748 111.474 165.537 113.48 166.057C113.949 166.198 114.44 166.245 114.926 166.196C115.412 166.146 115.884 166.001 116.314 165.769C116.744 165.537 117.124 165.223 117.433 164.844C117.741 164.465 117.971 164.029 118.11 163.56C118.306 162.562 118.346 161.54 118.228 160.53C118.16 159.348 118.023 158.172 117.819 157.006ZM114.556 162.555C114.43 162.568 114.303 162.538 114.195 162.472C113.839 162.247 113.568 161.91 113.425 161.515C113.844 161.594 114.278 161.543 114.667 161.369C114.667 161.417 114.667 161.473 114.667 161.521C114.622 161.848 114.622 162.18 114.667 162.506C114.667 162.506 114.667 162.506 114.667 162.555H114.556ZM114.688 162.555C114.765 162.562 114.744 162.569 114.688 162.569V162.555ZM114.688 162.555L114.751 162.513C114.751 162.513 114.848 162.555 114.695 162.562L114.688 162.555Z" fill="#8D67CE"/>
<path d="M149.214 127.954C148.145 127.121 147.069 126.296 145.952 125.533C143.598 123.836 140.933 122.618 138.108 121.948C136.921 121.698 135.332 122.787 135.908 124.153C136.413 125.38 137.061 126.544 137.837 127.621C138.84 129.457 140.079 131.155 141.523 132.67C143.328 134.549 145.688 136.138 148.346 136.242C149.008 136.296 149.673 136.203 150.293 135.969C150.914 135.736 151.475 135.367 151.935 134.889C152.42 134.287 152.694 133.541 152.714 132.768C152.734 131.995 152.499 131.237 152.046 130.61C151.256 129.574 150.299 128.677 149.214 127.954ZM143.182 128.183C143.009 128.044 142.821 127.919 142.662 127.773L142.391 127.524C142.675 127.683 142.946 127.857 143.224 128.03C143.209 128.08 143.197 128.131 143.189 128.183H143.182Z" fill="#8D67CE"/>
<path d="M58.7902 77.5049C56.6368 76.9432 54.3529 77.1752 52.3567 78.1584C50.3605 79.1417 48.7855 80.8104 47.9201 82.8591C46.7609 85.564 45.8377 88.6988 46.3097 91.6533C46.4394 92.1081 46.7427 92.4939 47.1543 92.7274C47.5659 92.9609 48.0528 93.0235 48.5101 92.9017C48.9626 92.7675 49.3458 92.4639 49.5799 92.0544C49.8139 91.6448 49.8808 91.1608 49.7665 90.7032C49.6601 89.4311 49.8404 88.1514 50.294 86.958C50.5897 85.7424 51.0302 84.5665 51.6059 83.4556C52.0377 82.7265 52.6341 82.1084 53.3477 81.6508C54.0612 81.1932 54.872 80.9087 55.7152 80.8201C56.5955 80.6985 57.4922 80.8 58.323 81.1151C59.1538 81.4301 59.8921 81.9488 60.4699 82.6233C61.9068 84.2393 62.476 86.5003 62.8577 88.567C62.9889 89.0224 63.2936 89.4082 63.7063 89.6416C64.119 89.875 64.6068 89.9374 65.0651 89.8154C65.5173 89.6812 65.8999 89.3774 66.1329 88.9675C66.3658 88.5577 66.4309 88.0736 66.3145 87.6169C65.5301 83.3238 63.3853 78.6978 58.7902 77.5049Z" fill="#8D67CE"/>
<path d="M122.678 76.2219C121.885 75.0552 120.85 74.0736 119.642 73.3446C118.434 72.6155 117.083 72.1562 115.681 71.9982C108.816 71.3948 106.622 79.5717 105.526 84.7456C105.4 85.2054 105.462 85.6965 105.698 86.1108C105.934 86.525 106.325 86.8285 106.786 86.9545C107.246 87.0805 107.737 87.0187 108.152 86.7826C108.567 86.5466 108.87 86.1556 108.996 85.6957C109.524 83.1851 110.031 80.5774 111.322 78.3233C112.266 76.6865 113.716 75.3064 115.695 75.5491C120.338 76.1872 121.532 81.8604 122.338 85.6264C122.4 85.8541 122.507 86.0673 122.652 86.2538C122.796 86.4402 122.977 86.5964 123.182 86.7133C123.387 86.8302 123.614 86.9055 123.848 86.935C124.082 86.9645 124.32 86.9476 124.548 86.8852C124.776 86.8228 124.99 86.7162 125.176 86.5714C125.363 86.4266 125.519 86.2465 125.636 86.0414C125.753 85.8363 125.829 85.6102 125.858 85.3759C125.888 85.1417 125.871 84.9039 125.808 84.6762C125.149 81.7703 124.448 78.6978 122.678 76.2219Z" fill="#8D67CE"/>
<path d="M94.3781 87.8111C93.9059 87.8199 93.4555 88.0113 93.1216 88.345C92.7877 88.6786 92.5961 89.1286 92.5872 89.6004C92.3998 92.444 92.261 95.2875 92.025 98.1311C91.8376 100.392 91.435 102.917 89.6302 104.484C85.8264 107.785 82.1406 101.335 81.0161 98.3877C80.0102 95.7618 79.6069 92.9437 79.8361 90.1414C79.8361 89.6668 79.6474 89.2117 79.3116 88.8761C78.9757 88.5406 78.5202 88.352 78.0453 88.352C77.5703 88.352 77.1148 88.5406 76.7789 88.8761C76.4431 89.2117 76.2544 89.6668 76.2544 90.1414C75.7963 95.988 77.844 102.667 82.2447 106.724C84.5353 108.805 87.534 109.672 90.4146 108.243C93.1911 106.856 94.7043 103.943 95.2735 101.03C95.9676 97.2919 95.9676 93.4011 96.1967 89.6004C96.1958 89.3634 96.1479 89.1288 96.0559 88.9103C95.9638 88.6918 95.8294 88.4937 95.6603 88.3273C95.4913 88.161 95.2909 88.0297 95.0708 87.9411C94.8508 87.8525 94.6153 87.8083 94.3781 87.8111Z" fill="#8D67CE"/>
</svg>
