<svg width="50" height="50" viewBox="0 0 50 50" fill="none" xmlns="http://www.w3.org/2000/svg">
<path d="M41.6772 29.0477C41.5299 28.8682 41.3258 28.7382 41.095 28.6769C40.8642 28.6156 40.6188 28.6261 40.3947 28.707C40.173 28.779 39.982 28.9178 39.8509 29.1023C39.7198 29.2867 39.6557 29.5068 39.6683 29.7291V44.6342H37.3992V31.0066C37.3937 30.8212 37.3421 30.6397 37.2486 30.4768C37.1551 30.314 37.0223 30.1745 36.8611 30.0698L31.6952 27.0036V17.8902L39.6683 23.0005V25.3853C39.694 25.6655 39.8294 25.9263 40.0477 26.1163C40.2661 26.3064 40.5515 26.4118 40.8476 26.4118C41.1438 26.4118 41.4292 26.3064 41.6475 26.1163C41.8658 25.9263 42.0012 25.6655 42.027 25.3853V22.4043C42.0267 22.2381 41.9851 22.0744 41.9056 21.9264C41.8261 21.7784 41.711 21.6504 41.5696 21.5526L31.7042 15.2498V6.22159C31.6403 4.55104 30.8965 2.96915 29.6295 1.80877C28.3624 0.648399 26.6708 0 24.9105 0C23.1503 0 21.4587 0.648399 20.1916 1.80877C18.9246 2.96915 18.1808 4.55104 18.1169 6.22159V15.2498L8.43088 21.5526C8.28786 21.6489 8.17156 21.7767 8.09191 21.925C8.01225 22.0733 7.97162 22.2378 7.9735 22.4043V29.3032L0.278494 38.587C0.186449 38.677 0.114412 38.7838 0.0666519 38.9008C0.0188917 39.0179 -0.0036158 39.1428 0.000471802 39.2683V45.6562C0.00746062 45.9507 0.134992 46.2311 0.356005 46.4378C0.577018 46.6445 0.874132 46.7613 1.18432 46.7635H9.05869V48.8928C9.06568 49.1873 9.19321 49.4676 9.41422 49.6743C9.63523 49.8811 9.93235 49.9979 10.2425 50H18.1169C18.4271 49.9979 18.7242 49.8811 18.9452 49.6743C19.1662 49.4676 19.2938 49.1873 19.3008 48.8928V46.7635H30.619V48.8928C30.626 49.1858 30.7522 49.4649 30.9713 49.6714C31.1904 49.8779 31.4853 49.9957 31.7939 50H39.7669C40.0755 49.9957 40.3704 49.8779 40.5895 49.6714C40.8086 49.4649 40.9349 49.1858 40.9418 48.8928V46.7635H48.8251C49.1338 46.7591 49.4286 46.6413 49.6477 46.4349C49.8668 46.2284 49.9931 45.9493 50 45.6562V39.2683C49.9917 39.0193 49.8971 38.7798 49.731 38.587L41.6772 29.0477ZM31.7132 44.549V29.5587C35.6952 31.9435 34.9777 31.5177 35.1571 31.6028V44.6342H31.7132V44.549ZM10.1887 23.0005L18.1528 17.8902V27.0036C12.7179 30.2401 12.9959 30.0697 12.7717 30.2401C12.5825 30.4608 12.4586 30.7254 12.4129 31.0066V36.117C12.4387 36.3971 12.5741 36.658 12.7924 36.848C13.0107 37.0381 13.2961 37.1435 13.5923 37.1435C13.8884 37.1435 14.1738 37.0381 14.3922 36.848C14.6105 36.658 14.7459 36.3971 14.7716 36.117V31.6028L18.1169 29.5587V44.6342H14.7716V40.3756C14.7659 40.2342 14.7306 40.0954 14.6677 39.9671C14.6049 39.8389 14.5157 39.7238 14.4055 39.6287C14.2953 39.5335 14.1662 39.4602 14.0258 39.4129C13.8854 39.3657 13.7365 39.3455 13.5878 39.3535C13.2931 39.3545 13.0095 39.4597 12.7922 39.6487C12.5749 39.8377 12.4397 40.0969 12.4129 40.3756V44.6342H10.1528L10.1887 23.0005ZM2.30539 39.609L8.00939 32.7953V44.6342H2.27848L2.30539 39.609ZM16.9779 47.7855H11.3367V46.6783H16.951V47.7855H16.9779ZM20.4218 6.22159C20.4218 5.08084 20.899 3.98682 21.7484 3.18019C22.5977 2.37356 23.7497 1.9204 24.9509 1.9204C26.1521 1.9204 27.3041 2.37356 28.1535 3.18019C29.0029 3.98682 29.48 5.08084 29.48 6.22159V44.549H28.3948V40.2904C28.3925 39.8631 28.3015 39.4405 28.1272 39.0466C27.9529 38.6527 27.6985 38.2953 27.3787 37.9947C27.0589 37.6942 26.6799 37.4564 26.2633 37.295C25.8468 37.1335 25.4008 37.0516 24.9509 37.0539C24.5059 37.0538 24.0653 37.1379 23.6548 37.3011C23.2443 37.4644 22.8721 37.7036 22.5599 38.0048C22.2477 38.3061 22.0018 38.6633 21.8364 39.0557C21.671 39.4481 21.5896 39.8678 21.5967 40.2904V44.549H20.3949L20.4218 6.22159ZM23.7671 44.549V40.2904C23.7928 40.0102 23.9282 39.7494 24.1465 39.5593C24.3649 39.3693 24.6503 39.2639 24.9464 39.2639C25.2426 39.2639 25.528 39.3693 25.7463 39.5593C25.9646 39.7494 26.1 40.0102 26.1258 40.2904V44.549H23.7671ZM38.5382 47.7855H32.8253V46.6783H38.5382V47.7855ZM47.5964 44.549H41.9732V32.7953L47.5964 39.609V44.549Z" fill="#A37414"/>
<path d="M24.925 27.5128C25.3749 27.515 25.8208 27.4331 26.2374 27.2716C26.654 27.1102 27.033 26.8724 27.3528 26.5719C27.6726 26.2713 27.9269 25.9139 28.1012 25.52C28.2756 25.1261 28.3665 24.7035 28.3689 24.2762V12.6077C28.3665 12.1804 28.2756 11.7578 28.1012 11.3639C27.9269 10.97 27.6726 10.6126 27.3528 10.312C27.033 10.0115 26.654 9.77371 26.2374 9.61227C25.8208 9.45083 25.3749 9.3689 24.925 9.37114C24.4799 9.37108 24.0393 9.45514 23.6288 9.6184C23.2183 9.78167 22.8461 10.0209 22.5339 10.3221C22.2218 10.6234 21.9758 10.9806 21.8104 11.373C21.6451 11.7654 21.5636 12.1851 21.5707 12.6077V24.2762C21.5636 24.6988 21.6451 25.1186 21.8104 25.5109C21.9758 25.9033 22.2218 26.2606 22.5339 26.5618C22.8461 26.863 23.2183 27.1022 23.6288 27.2655C24.0393 27.4288 24.4799 27.5128 24.925 27.5128ZM23.7411 12.6077C23.7669 12.3275 23.9023 12.0666 24.1206 11.8766C24.3389 11.6866 24.6243 11.5812 24.9205 11.5812C25.2166 11.5812 25.502 11.6866 25.7204 11.8766C25.9387 12.0666 26.0741 12.3275 26.0998 12.6077V24.2762C26.0741 24.5564 25.9387 24.8173 25.7204 25.0073C25.502 25.1973 25.2166 25.3027 24.9205 25.3027C24.6243 25.3027 24.3389 25.1973 24.1206 25.0073C23.9023 24.8173 23.7669 24.5564 23.7411 24.2762V12.6077Z" fill="#A37414"/>
<path d="M2.81497 15.8469C3.36367 15.8419 3.89853 15.6828 4.35219 15.3896C4.80584 15.0964 5.15798 14.6823 5.3643 14.1995C5.57061 13.7166 5.62184 13.1865 5.51154 12.676C5.40125 12.1655 5.13438 11.6975 4.74451 11.3308C4.35463 10.9641 3.85919 10.7151 3.32062 10.6153C2.78205 10.5155 2.22444 10.5692 1.71799 10.7698C1.21153 10.9704 0.778901 11.3088 0.474577 11.7424C0.170253 12.176 0.0078382 12.6855 0.0078125 13.2066C0.0172249 13.9085 0.316843 14.5788 0.842016 15.0727C1.36719 15.5667 2.07581 15.8448 2.81497 15.8469ZM2.81497 12.6104C2.92139 12.6104 3.02543 12.6404 3.11393 12.6965C3.20242 12.7527 3.27138 12.8325 3.31211 12.9259C3.35284 13.0193 3.3635 13.122 3.34274 13.2211C3.32197 13.3203 3.27072 13.4113 3.19546 13.4828C3.1202 13.5543 3.02431 13.6029 2.91993 13.6227C2.81555 13.6424 2.70736 13.6323 2.60904 13.5936C2.51071 13.5549 2.42665 13.4894 2.36752 13.4054C2.3084 13.3213 2.27685 13.2225 2.27685 13.1214C2.28721 12.9892 2.34723 12.8648 2.44599 12.771C2.54475 12.6772 2.67568 12.6203 2.81497 12.6104Z" fill="white"/>
<path d="M45.8464 10.4812C46.625 10.4728 47.3835 10.2459 48.0265 9.82905C48.6695 9.41219 49.1683 8.82401 49.4601 8.13853C49.7519 7.45306 49.8237 6.70091 49.6664 5.97678C49.5091 5.25265 49.1298 4.5889 48.5762 4.06904C48.0225 3.54918 47.3194 3.19647 46.5551 3.05528C45.7909 2.9141 44.9998 2.99077 44.2813 3.27562C43.5628 3.56047 42.9492 4.04079 42.5175 4.65612C42.0859 5.27145 41.8555 5.99428 41.8555 6.73365C41.8696 7.73077 42.296 8.68263 43.0427 9.38377C43.7894 10.0849 44.7964 10.4791 45.8464 10.4812ZM45.8464 5.20056C46.0714 5.19943 46.2944 5.2404 46.5027 5.32112C46.7109 5.40184 46.9005 5.52074 47.0603 5.67101C47.2202 5.82128 47.3474 5.99998 47.4346 6.19692C47.5218 6.39387 47.5672 6.6052 47.5684 6.81883C47.5747 7.03442 47.5344 7.24895 47.4498 7.44912C47.3653 7.6493 47.2384 7.83086 47.0769 7.98257C46.9155 8.13427 46.723 8.25289 46.5114 8.33107C46.2997 8.40926 46.0734 8.44534 45.8464 8.4371C45.3945 8.4371 44.9611 8.26661 44.6415 7.96312C44.322 7.65964 44.1424 7.24802 44.1424 6.81883C44.1424 6.38964 44.322 5.97802 44.6415 5.67454C44.9611 5.37106 45.3945 5.20056 45.8464 5.20056Z" fill="white"/>
<path d="M10.1645 2.04691C10.3765 2.05027 10.5828 2.11305 10.7574 2.22738C10.932 2.3417 11.0672 2.50248 11.1459 2.68951C11.2246 2.87654 11.2434 3.08149 11.1998 3.27861C11.1563 3.47574 11.0524 3.65625 10.9012 3.79749C10.75 3.93873 10.5582 4.0344 10.35 4.07248C10.1417 4.11055 9.92625 4.08933 9.73064 4.0115C9.53502 3.93366 9.368 3.80269 9.25052 3.635C9.13303 3.46731 9.07034 3.27039 9.07031 3.06897C9.07149 2.93363 9.10071 2.79985 9.15634 2.67524C9.21196 2.55063 9.29288 2.43764 9.39448 2.34273C9.49608 2.24782 9.61637 2.17285 9.74848 2.12209C9.88059 2.07134 10.022 2.04579 10.1645 2.04691Z" fill="white"/>
<path d="M35.0694 10.4802C35.378 10.4758 35.6729 10.358 35.892 10.1516C36.1111 9.94509 36.2374 9.666 36.2443 9.37294C36.2385 9.23234 36.2035 9.09422 36.1412 8.96656C36.0789 8.8389 35.9906 8.72423 35.8813 8.62919C35.7721 8.53415 35.6441 8.46063 35.5047 8.41285C35.3653 8.36508 35.2174 8.34402 35.0694 8.35088C34.7742 8.34989 34.4894 8.45449 34.2717 8.64388C34.054 8.83326 33.9193 9.09355 33.8945 9.37294C33.9138 9.66204 34.044 9.93439 34.2605 10.1384C34.4771 10.3425 34.7648 10.4641 35.0694 10.4802Z" fill="white"/>
<path d="M46.3849 16.8695C46.3804 16.7285 46.3461 16.5898 46.2842 16.4616C46.2223 16.3334 46.134 16.2183 46.0245 16.1231C45.915 16.0278 45.7865 15.9543 45.6466 15.907C45.5067 15.8596 45.3583 15.8394 45.21 15.8474C44.9148 15.8464 44.63 15.951 44.4123 16.1404C44.1946 16.3298 44.0599 16.5901 44.0352 16.8695C44.0421 17.1625 44.1684 17.4416 44.3875 17.6481C44.6066 17.8546 44.9014 17.9724 45.21 17.9767C45.3652 17.9826 45.5201 17.9581 45.6648 17.9047C45.8096 17.8513 45.9412 17.7701 46.0515 17.6662C46.1617 17.5623 46.2482 17.4379 46.3056 17.3008C46.363 17.1637 46.39 17.0169 46.3849 16.8695Z" fill="white"/>
<path d="M46.3858 29.6447C46.696 29.6425 46.9931 29.5257 47.2141 29.319C47.4351 29.1123 47.5627 28.832 47.5697 28.5374C47.5639 28.3961 47.5286 28.2572 47.4658 28.129C47.4029 28.0007 47.3138 27.8857 47.2035 27.7905C47.0933 27.6954 46.9642 27.622 46.8238 27.5748C46.6834 27.5275 46.5345 27.5074 46.3858 27.5154C46.0912 27.5163 45.8075 27.6216 45.5902 27.8106C45.373 27.9996 45.2377 28.2588 45.2109 28.5374C45.2321 28.8259 45.3629 29.0972 45.5791 29.3009C45.7952 29.5046 46.0819 29.6268 46.3858 29.6447Z" fill="white"/>
<path d="M4.51862 22.1465C4.74883 22.1482 4.97335 22.2145 5.16389 22.3372C5.35444 22.4599 5.50249 22.6334 5.58936 22.8359C5.67623 23.0383 5.69806 23.2607 5.65206 23.4749C5.60607 23.6891 5.49431 23.8856 5.3309 24.0396C5.1675 24.1936 4.95975 24.2982 4.73383 24.3403C4.50792 24.3823 4.27396 24.3599 4.06144 24.2758C3.84892 24.1918 3.66735 24.0499 3.53964 23.868C3.41192 23.6861 3.34376 23.4723 3.34375 23.2537C3.34612 22.9593 3.47094 22.6777 3.69102 22.4703C3.91109 22.2629 4.20858 22.1465 4.51862 22.1465Z" fill="white"/>
<path d="M11.3389 10.4805C11.5691 10.4822 11.7937 10.5485 11.9842 10.6712C12.1748 10.7939 12.3228 10.9674 12.4097 11.1699C12.4965 11.3723 12.5184 11.5947 12.4724 11.8089C12.4264 12.0231 12.3146 12.2196 12.1512 12.3736C11.9878 12.5276 11.7801 12.6322 11.5541 12.6742C11.3282 12.7163 11.0943 12.6939 10.8818 12.6098C10.6692 12.5258 10.4877 12.3838 10.3599 12.2019C10.2322 12.0201 10.1641 11.8063 10.1641 11.5877C10.1664 11.2933 10.2913 11.0116 10.5113 10.8042C10.7314 10.5968 11.0289 10.4805 11.3389 10.4805Z" fill="white"/>
</svg>
